%TF.GenerationSoftware,KiCad,Pcbnew,9.0.2*%
%TF.CreationDate,2026-01-09T09:24:01+01:00*%
%TF.ProjectId,led_print,6c65645f-7072-4696-9e74-2e6b69636164,rev?*%
%TF.SameCoordinates,Original*%
%TF.FileFunction,Copper,L1,Top*%
%TF.FilePolarity,Positive*%
%FSLAX46Y46*%
G04 Gerber Fmt 4.6, Leading zero omitted, Abs format (unit mm)*
G04 Created by KiCad (PCBNEW 9.0.2) date 2026-01-09 09:24:01*
%MOMM*%
%LPD*%
G01*
G04 APERTURE LIST*
%ADD10C,0.300000*%
%TA.AperFunction,ComponentPad*%
%ADD11R,1.800000X1.800000*%
%TD*%
%TA.AperFunction,ComponentPad*%
%ADD12C,1.800000*%
%TD*%
%TA.AperFunction,ComponentPad*%
%ADD13R,1.700000X1.700000*%
%TD*%
%TA.AperFunction,ComponentPad*%
%ADD14C,1.700000*%
%TD*%
%TA.AperFunction,Conductor*%
%ADD15C,0.600000*%
%TD*%
G04 APERTURE END LIST*
D10*
G36*
X111993153Y-84636067D02*
G01*
X110222725Y-84636067D01*
X110222725Y-84290136D01*
X110389392Y-84290136D01*
X110389392Y-84348664D01*
X110411790Y-84402736D01*
X110453174Y-84444120D01*
X110507246Y-84466518D01*
X110536510Y-84469400D01*
X111679368Y-84469400D01*
X111708632Y-84466518D01*
X111762704Y-84444120D01*
X111804088Y-84402736D01*
X111826486Y-84348664D01*
X111826486Y-84290136D01*
X111804088Y-84236064D01*
X111762704Y-84194680D01*
X111708632Y-84172282D01*
X111679368Y-84169400D01*
X110536510Y-84169400D01*
X110507246Y-84172282D01*
X110453174Y-84194680D01*
X110411790Y-84236064D01*
X110389392Y-84290136D01*
X110222725Y-84290136D01*
X110222725Y-84002733D01*
X111993153Y-84002733D01*
X111993153Y-84636067D01*
G37*
G36*
X120883153Y-85204613D02*
G01*
X119112725Y-85204613D01*
X119112725Y-84290136D01*
X119279392Y-84290136D01*
X119279392Y-84348664D01*
X119301790Y-84402736D01*
X119343174Y-84444120D01*
X119397246Y-84466518D01*
X119426510Y-84469400D01*
X119847939Y-84469400D01*
X119847939Y-84890828D01*
X119850821Y-84920092D01*
X119873219Y-84974164D01*
X119914603Y-85015548D01*
X119968675Y-85037946D01*
X120027203Y-85037946D01*
X120081275Y-85015548D01*
X120122659Y-84974164D01*
X120145057Y-84920092D01*
X120147939Y-84890828D01*
X120147939Y-84469400D01*
X120569368Y-84469400D01*
X120598632Y-84466518D01*
X120652704Y-84444120D01*
X120694088Y-84402736D01*
X120716486Y-84348664D01*
X120716486Y-84290136D01*
X120694088Y-84236064D01*
X120652704Y-84194680D01*
X120598632Y-84172282D01*
X120569368Y-84169400D01*
X120147939Y-84169400D01*
X120147939Y-83747971D01*
X120145057Y-83718707D01*
X120122659Y-83664635D01*
X120081275Y-83623251D01*
X120027203Y-83600853D01*
X119968675Y-83600853D01*
X119914603Y-83623251D01*
X119873219Y-83664635D01*
X119850821Y-83718707D01*
X119847939Y-83747971D01*
X119847939Y-84169400D01*
X119426510Y-84169400D01*
X119397246Y-84172282D01*
X119343174Y-84194680D01*
X119301790Y-84236064D01*
X119279392Y-84290136D01*
X119112725Y-84290136D01*
X119112725Y-83434186D01*
X120883153Y-83434186D01*
X120883153Y-85204613D01*
G37*
D11*
%TO.P,D12,1,K*%
%TO.N,GND*%
X107691000Y-68580000D03*
D12*
%TO.P,D12,2,A*%
%TO.N,Net-(D1-A)*%
X110231000Y-68580000D03*
%TD*%
D11*
%TO.P,D11,1,K*%
%TO.N,GND*%
X125725000Y-84074000D03*
D12*
%TO.P,D11,2,A*%
%TO.N,Net-(D1-A)*%
X128265000Y-84074000D03*
%TD*%
D11*
%TO.P,D15,1,K*%
%TO.N,GND*%
X125725000Y-55118000D03*
D12*
%TO.P,D15,2,A*%
%TO.N,Net-(D1-A)*%
X128265000Y-55118000D03*
%TD*%
D11*
%TO.P,D1,1,K*%
%TO.N,GND*%
X102865000Y-84074000D03*
D12*
%TO.P,D1,2,A*%
%TO.N,Net-(D1-A)*%
X105405000Y-84074000D03*
%TD*%
D11*
%TO.P,D14,1,K*%
%TO.N,GND*%
X114041000Y-45720000D03*
D12*
%TO.P,D14,2,A*%
%TO.N,Net-(D1-A)*%
X116581000Y-45720000D03*
%TD*%
D11*
%TO.P,D2,1,K*%
%TO.N,GND*%
X91440000Y-74422000D03*
D12*
%TO.P,D2,2,A*%
%TO.N,Net-(D1-A)*%
X93980000Y-74422000D03*
%TD*%
D13*
%TO.P,J1,1,Pin_1*%
%TO.N,Net-(D1-A)*%
X116840000Y-81534000D03*
D14*
%TO.P,J1,2,Pin_2*%
%TO.N,GND*%
X114300000Y-81534000D03*
%TD*%
D11*
%TO.P,D13,1,K*%
%TO.N,GND*%
X101849000Y-55118000D03*
D12*
%TO.P,D13,2,A*%
%TO.N,Net-(D1-A)*%
X104389000Y-55118000D03*
%TD*%
D11*
%TO.P,D16,1,K*%
%TO.N,GND*%
X120137000Y-68834000D03*
D12*
%TO.P,D16,2,A*%
%TO.N,Net-(D1-A)*%
X122677000Y-68834000D03*
%TD*%
D11*
%TO.P,D4,1,K*%
%TO.N,GND*%
X91440000Y-45466000D03*
D12*
%TO.P,D4,2,A*%
%TO.N,Net-(D1-A)*%
X93980000Y-45466000D03*
%TD*%
D11*
%TO.P,D7,1,K*%
%TO.N,GND*%
X126233000Y-35814000D03*
D12*
%TO.P,D7,2,A*%
%TO.N,Net-(D1-A)*%
X128773000Y-35814000D03*
%TD*%
D11*
%TO.P,D3,1,K*%
%TO.N,GND*%
X85598000Y-59182000D03*
D12*
%TO.P,D3,2,A*%
%TO.N,Net-(D1-A)*%
X88138000Y-59182000D03*
%TD*%
D11*
%TO.P,D6,1,K*%
%TO.N,GND*%
X114041000Y-30988000D03*
D12*
%TO.P,D6,2,A*%
%TO.N,Net-(D1-A)*%
X116581000Y-30988000D03*
%TD*%
D11*
%TO.P,D10,1,K*%
%TO.N,GND*%
X136901000Y-74676000D03*
D12*
%TO.P,D10,2,A*%
%TO.N,Net-(D1-A)*%
X139441000Y-74676000D03*
%TD*%
D11*
%TO.P,D9,1,K*%
%TO.N,GND*%
X142743000Y-59182000D03*
D12*
%TO.P,D9,2,A*%
%TO.N,Net-(D1-A)*%
X145283000Y-59182000D03*
%TD*%
D11*
%TO.P,D5,1,K*%
%TO.N,GND*%
X101849000Y-35814000D03*
D12*
%TO.P,D5,2,A*%
%TO.N,Net-(D1-A)*%
X104389000Y-35814000D03*
%TD*%
D11*
%TO.P,D8,1,K*%
%TO.N,GND*%
X136647000Y-45466000D03*
D12*
%TO.P,D8,2,A*%
%TO.N,Net-(D1-A)*%
X139187000Y-45466000D03*
%TD*%
D15*
%TO.N,Net-(D1-A)*%
X101605000Y-78745000D02*
X105405000Y-78745000D01*
X145283000Y-51562000D02*
X139187000Y-45466000D01*
X125984000Y-81534000D02*
X128265000Y-83815000D01*
X123947000Y-30988000D02*
X116581000Y-30988000D01*
X133345000Y-40386000D02*
X128773000Y-35814000D01*
X116581000Y-45720000D02*
X118867000Y-45720000D01*
X93980000Y-53340000D02*
X88138000Y-59182000D01*
X139441000Y-74676000D02*
X139441000Y-65024000D01*
X105405000Y-84074000D02*
X105405000Y-78745000D01*
X97282000Y-74422000D02*
X101605000Y-78745000D01*
X88138000Y-68580000D02*
X93980000Y-74422000D01*
X122677000Y-71887000D02*
X122677000Y-68834000D01*
X130043000Y-84074000D02*
X139441000Y-74676000D01*
X116581000Y-30988000D02*
X116581000Y-35560000D01*
X118867000Y-45720000D02*
X128265000Y-55118000D01*
X128265000Y-83815000D02*
X128265000Y-84074000D01*
X104389000Y-55118000D02*
X107183000Y-55118000D01*
X105405000Y-78745000D02*
X110231000Y-73919000D01*
X104389000Y-39629000D02*
X98552000Y-45466000D01*
X139441000Y-65024000D02*
X145283000Y-59182000D01*
X116840000Y-77724000D02*
X122677000Y-71887000D01*
X93980000Y-45466000D02*
X93980000Y-53340000D01*
X116327000Y-35814000D02*
X104389000Y-35814000D01*
X116840000Y-81534000D02*
X125984000Y-81534000D01*
X104389000Y-35814000D02*
X104389000Y-39629000D01*
X107183000Y-55118000D02*
X116581000Y-45720000D01*
X98552000Y-45466000D02*
X93980000Y-45466000D01*
X128265000Y-84074000D02*
X130043000Y-84074000D01*
X88138000Y-59182000D02*
X88138000Y-68580000D01*
X116581000Y-45720000D02*
X116581000Y-30988000D01*
X116840000Y-81534000D02*
X116840000Y-77724000D01*
X110231000Y-73919000D02*
X110231000Y-68580000D01*
X93980000Y-74422000D02*
X97282000Y-74422000D01*
X145283000Y-59182000D02*
X145283000Y-51562000D01*
X134107000Y-40386000D02*
X133345000Y-40386000D01*
X116581000Y-35560000D02*
X116327000Y-35814000D01*
X128773000Y-35814000D02*
X123947000Y-30988000D01*
X139187000Y-45466000D02*
X134107000Y-40386000D01*
%TD*%
%TA.AperFunction,Conductor*%
%TO.N,GND*%
G36*
X116137338Y-24635191D02*
G01*
X117263359Y-24672053D01*
X117267354Y-24672249D01*
X118391576Y-24745934D01*
X118395614Y-24746265D01*
X119516824Y-24856695D01*
X119520756Y-24857148D01*
X120637757Y-25004204D01*
X120641724Y-25004792D01*
X121753342Y-25188321D01*
X121757284Y-25189039D01*
X122862260Y-25408832D01*
X122866135Y-25409669D01*
X123798814Y-25627139D01*
X123963348Y-25665503D01*
X123967285Y-25666489D01*
X124104565Y-25703273D01*
X125055535Y-25958085D01*
X125059345Y-25959173D01*
X126137519Y-26286233D01*
X126141302Y-26287448D01*
X127208135Y-26649590D01*
X127211944Y-26650953D01*
X128266317Y-27047791D01*
X128270086Y-27049280D01*
X129310949Y-27480419D01*
X129314637Y-27482018D01*
X130340825Y-27946978D01*
X130344493Y-27948713D01*
X131354899Y-28446990D01*
X131358508Y-28448844D01*
X132352085Y-28979922D01*
X132355582Y-28981865D01*
X133331281Y-29545185D01*
X133334733Y-29547255D01*
X134031653Y-29980627D01*
X134291437Y-30142171D01*
X134294839Y-30144364D01*
X135231579Y-30770274D01*
X135234911Y-30772580D01*
X135452854Y-30928756D01*
X136150654Y-31428792D01*
X136153913Y-31431209D01*
X137047694Y-32117032D01*
X137050873Y-32119555D01*
X137102186Y-32161666D01*
X137921755Y-32834268D01*
X137924812Y-32836861D01*
X138771873Y-33579715D01*
X138774838Y-33582402D01*
X138826946Y-33631207D01*
X139597103Y-34352538D01*
X139600019Y-34355360D01*
X140396639Y-35151980D01*
X140399461Y-35154896D01*
X141169594Y-35977158D01*
X141172287Y-35980129D01*
X141914424Y-36826373D01*
X141915122Y-36827169D01*
X141917736Y-36830250D01*
X142204780Y-37180015D01*
X142632444Y-37701126D01*
X142634967Y-37704305D01*
X143320790Y-38598086D01*
X143323207Y-38601345D01*
X143979416Y-39517084D01*
X143981725Y-39520420D01*
X144607629Y-40457151D01*
X144609828Y-40460562D01*
X145204736Y-41417252D01*
X145206822Y-41420732D01*
X145770120Y-42396393D01*
X145772091Y-42399940D01*
X146303155Y-43393491D01*
X146305009Y-43397100D01*
X146803286Y-44407506D01*
X146805021Y-44411174D01*
X147269973Y-45437345D01*
X147271587Y-45441068D01*
X147702717Y-46481908D01*
X147704208Y-46485682D01*
X148101046Y-47540055D01*
X148102413Y-47543875D01*
X148464534Y-48610647D01*
X148465776Y-48614511D01*
X148792813Y-49692609D01*
X148793927Y-49696510D01*
X149085510Y-50784714D01*
X149086496Y-50788651D01*
X149342320Y-51885819D01*
X149343176Y-51889785D01*
X149562955Y-52994690D01*
X149563682Y-52998682D01*
X149747203Y-54110252D01*
X149747798Y-54114266D01*
X149894845Y-55231194D01*
X149895309Y-55235225D01*
X150005733Y-56356382D01*
X150006065Y-56360426D01*
X150079748Y-57484616D01*
X150079947Y-57488669D01*
X150116809Y-58614661D01*
X150116875Y-58618718D01*
X150116875Y-59745281D01*
X150116809Y-59749338D01*
X150079947Y-60875330D01*
X150079748Y-60879383D01*
X150006065Y-62003573D01*
X150005733Y-62007617D01*
X149895309Y-63128774D01*
X149894845Y-63132805D01*
X149747798Y-64249733D01*
X149747203Y-64253747D01*
X149563682Y-65365317D01*
X149562955Y-65369309D01*
X149343176Y-66474214D01*
X149342320Y-66478180D01*
X149086496Y-67575348D01*
X149085510Y-67579285D01*
X148793927Y-68667489D01*
X148792813Y-68671390D01*
X148465776Y-69749488D01*
X148464534Y-69753352D01*
X148102413Y-70820124D01*
X148101046Y-70823944D01*
X147704208Y-71878317D01*
X147702717Y-71882091D01*
X147271587Y-72922931D01*
X147269973Y-72926654D01*
X146805021Y-73952825D01*
X146803286Y-73956493D01*
X146305009Y-74966899D01*
X146303155Y-74970508D01*
X145772091Y-75964059D01*
X145770120Y-75967606D01*
X145206822Y-76943267D01*
X145204736Y-76946747D01*
X144609828Y-77903437D01*
X144607629Y-77906848D01*
X143981725Y-78843579D01*
X143979416Y-78846915D01*
X143323207Y-79762654D01*
X143320790Y-79765913D01*
X142634967Y-80659694D01*
X142632444Y-80662873D01*
X141917747Y-81533736D01*
X141915122Y-81536830D01*
X141172303Y-82383852D01*
X141169578Y-82386858D01*
X140399461Y-83209103D01*
X140396639Y-83212019D01*
X139600019Y-84008639D01*
X139597103Y-84011461D01*
X138774858Y-84781578D01*
X138771852Y-84784303D01*
X137924830Y-85527122D01*
X137921736Y-85529747D01*
X137050873Y-86244444D01*
X137047694Y-86246967D01*
X136153913Y-86932790D01*
X136150654Y-86935207D01*
X135234915Y-87591416D01*
X135231579Y-87593725D01*
X134294848Y-88219629D01*
X134291437Y-88221828D01*
X133334747Y-88816736D01*
X133331267Y-88818822D01*
X132355606Y-89382120D01*
X132352059Y-89384091D01*
X131358508Y-89915155D01*
X131354899Y-89917009D01*
X130344493Y-90415286D01*
X130340825Y-90417021D01*
X129314654Y-90881973D01*
X129310931Y-90883587D01*
X128270091Y-91314717D01*
X128266317Y-91316208D01*
X127211944Y-91713046D01*
X127208124Y-91714413D01*
X126141352Y-92076534D01*
X126137488Y-92077776D01*
X125059390Y-92404813D01*
X125055489Y-92405927D01*
X123967285Y-92697510D01*
X123963348Y-92698496D01*
X122866180Y-92954320D01*
X122862214Y-92955176D01*
X121757309Y-93174955D01*
X121753317Y-93175682D01*
X120641747Y-93359203D01*
X120637733Y-93359798D01*
X119520805Y-93506845D01*
X119516774Y-93507309D01*
X118395617Y-93617733D01*
X118391573Y-93618065D01*
X117267383Y-93691748D01*
X117263330Y-93691947D01*
X116137338Y-93728809D01*
X116133281Y-93728875D01*
X115006719Y-93728875D01*
X115002662Y-93728809D01*
X113876669Y-93691947D01*
X113872616Y-93691748D01*
X112748426Y-93618065D01*
X112744382Y-93617733D01*
X111623225Y-93507309D01*
X111619194Y-93506845D01*
X110502266Y-93359798D01*
X110498252Y-93359203D01*
X109386682Y-93175682D01*
X109382690Y-93174955D01*
X108277785Y-92955176D01*
X108273819Y-92954320D01*
X107176651Y-92698496D01*
X107172714Y-92697510D01*
X106084510Y-92405927D01*
X106080609Y-92404813D01*
X105002511Y-92077776D01*
X104998660Y-92076538D01*
X104628769Y-91950977D01*
X103931875Y-91714413D01*
X103928055Y-91713046D01*
X102873682Y-91316208D01*
X102869908Y-91314717D01*
X101829068Y-90883587D01*
X101825345Y-90881973D01*
X100799174Y-90417021D01*
X100795506Y-90415286D01*
X99785100Y-89917009D01*
X99781491Y-89915155D01*
X98787940Y-89384091D01*
X98784393Y-89382120D01*
X97808732Y-88818822D01*
X97805252Y-88816736D01*
X96848562Y-88221828D01*
X96845151Y-88219629D01*
X95908420Y-87593725D01*
X95905084Y-87591416D01*
X94989345Y-86935207D01*
X94986086Y-86932790D01*
X94092305Y-86246967D01*
X94089126Y-86244444D01*
X93218263Y-85529747D01*
X93215169Y-85527122D01*
X92368129Y-84784287D01*
X92365188Y-84781621D01*
X91876590Y-84324000D01*
X91542896Y-84011461D01*
X91539980Y-84008639D01*
X90743360Y-83212019D01*
X90740546Y-83209112D01*
X90740538Y-83209103D01*
X90739151Y-83207622D01*
X90739150Y-83207620D01*
X90739145Y-83207616D01*
X90728018Y-83195736D01*
X89970402Y-82386838D01*
X89967715Y-82383873D01*
X89224861Y-81536812D01*
X89222268Y-81533755D01*
X88640288Y-80824609D01*
X88507555Y-80662873D01*
X88505032Y-80659694D01*
X87819209Y-79765913D01*
X87816792Y-79762654D01*
X87160583Y-78846915D01*
X87158274Y-78843579D01*
X86532370Y-77906848D01*
X86530171Y-77903437D01*
X86182805Y-77344827D01*
X85935255Y-76946733D01*
X85933177Y-76943267D01*
X85369865Y-75967582D01*
X85367922Y-75964085D01*
X84836844Y-74970508D01*
X84834990Y-74966899D01*
X84691279Y-74675482D01*
X84433367Y-74152489D01*
X84336712Y-73956492D01*
X84334978Y-73952825D01*
X84330063Y-73941978D01*
X83870018Y-72926637D01*
X83868412Y-72922931D01*
X83847167Y-72871642D01*
X83437280Y-71882086D01*
X83435791Y-71878317D01*
X83038953Y-70823944D01*
X83037586Y-70820124D01*
X82675448Y-69753302D01*
X82674233Y-69749519D01*
X82347173Y-68671345D01*
X82346085Y-68667535D01*
X82101732Y-67755601D01*
X82054489Y-67579285D01*
X82053503Y-67575348D01*
X81985128Y-67282103D01*
X81797669Y-66478135D01*
X81796832Y-66474260D01*
X81577039Y-65369284D01*
X81576317Y-65365317D01*
X81574709Y-65355578D01*
X81392792Y-64253724D01*
X81392201Y-64249733D01*
X81245148Y-63132756D01*
X81244695Y-63128824D01*
X81134265Y-62007614D01*
X81133934Y-62003573D01*
X81060249Y-60879354D01*
X81060052Y-60875330D01*
X81057379Y-60793681D01*
X81023191Y-59749338D01*
X81023125Y-59745281D01*
X81023125Y-58618718D01*
X81023191Y-58614661D01*
X81023664Y-58600222D01*
X81035648Y-58234155D01*
X84198000Y-58234155D01*
X84198000Y-58932000D01*
X85222722Y-58932000D01*
X85178667Y-59008306D01*
X85148000Y-59122756D01*
X85148000Y-59241244D01*
X85178667Y-59355694D01*
X85222722Y-59432000D01*
X84198000Y-59432000D01*
X84198000Y-60129844D01*
X84204401Y-60189372D01*
X84204403Y-60189379D01*
X84254645Y-60324086D01*
X84254649Y-60324093D01*
X84340809Y-60439187D01*
X84340812Y-60439190D01*
X84455906Y-60525350D01*
X84455913Y-60525354D01*
X84590620Y-60575596D01*
X84590627Y-60575598D01*
X84650155Y-60581999D01*
X84650172Y-60582000D01*
X85348000Y-60582000D01*
X85348000Y-59557277D01*
X85424306Y-59601333D01*
X85538756Y-59632000D01*
X85657244Y-59632000D01*
X85771694Y-59601333D01*
X85848000Y-59557277D01*
X85848000Y-60582000D01*
X86545828Y-60582000D01*
X86545844Y-60581999D01*
X86605372Y-60575598D01*
X86605379Y-60575596D01*
X86740086Y-60525354D01*
X86740093Y-60525350D01*
X86855187Y-60439190D01*
X86855190Y-60439187D01*
X86941350Y-60324093D01*
X86941354Y-60324086D01*
X86971213Y-60244031D01*
X86989290Y-60219882D01*
X87005367Y-60194373D01*
X87010010Y-60192202D01*
X87013084Y-60188097D01*
X87041344Y-60177556D01*
X87068663Y-60164787D01*
X87073744Y-60165471D01*
X87078548Y-60163680D01*
X87108023Y-60170091D01*
X87137907Y-60174119D01*
X87143165Y-60177735D01*
X87146821Y-60178531D01*
X87167766Y-60192937D01*
X87171554Y-60196161D01*
X87225635Y-60250242D01*
X87290243Y-60297182D01*
X87293871Y-60300270D01*
X87310513Y-60325668D01*
X87329050Y-60349707D01*
X87330169Y-60355666D01*
X87332164Y-60358711D01*
X87332234Y-60366660D01*
X87337500Y-60394697D01*
X87337500Y-68658846D01*
X87368261Y-68813489D01*
X87368264Y-68813501D01*
X87428602Y-68959172D01*
X87428609Y-68959185D01*
X87516210Y-69090288D01*
X87516213Y-69090292D01*
X91236241Y-72810319D01*
X91269726Y-72871642D01*
X91264742Y-72941334D01*
X91222870Y-72997267D01*
X91157406Y-73021684D01*
X91148560Y-73022000D01*
X90492155Y-73022000D01*
X90432627Y-73028401D01*
X90432620Y-73028403D01*
X90297913Y-73078645D01*
X90297906Y-73078649D01*
X90182812Y-73164809D01*
X90182809Y-73164812D01*
X90096649Y-73279906D01*
X90096645Y-73279913D01*
X90046403Y-73414620D01*
X90046401Y-73414627D01*
X90040000Y-73474155D01*
X90040000Y-74172000D01*
X91064722Y-74172000D01*
X91020667Y-74248306D01*
X90990000Y-74362756D01*
X90990000Y-74481244D01*
X91020667Y-74595694D01*
X91064722Y-74672000D01*
X90040000Y-74672000D01*
X90040000Y-75369844D01*
X90046401Y-75429372D01*
X90046403Y-75429379D01*
X90096645Y-75564086D01*
X90096649Y-75564093D01*
X90182809Y-75679187D01*
X90182812Y-75679190D01*
X90297906Y-75765350D01*
X90297913Y-75765354D01*
X90432620Y-75815596D01*
X90432627Y-75815598D01*
X90492155Y-75821999D01*
X90492172Y-75822000D01*
X91190000Y-75822000D01*
X91190000Y-74797277D01*
X91266306Y-74841333D01*
X91380756Y-74872000D01*
X91499244Y-74872000D01*
X91613694Y-74841333D01*
X91690000Y-74797277D01*
X91690000Y-75822000D01*
X92387828Y-75822000D01*
X92387844Y-75821999D01*
X92447372Y-75815598D01*
X92447379Y-75815596D01*
X92582086Y-75765354D01*
X92582093Y-75765350D01*
X92697187Y-75679190D01*
X92697190Y-75679187D01*
X92783350Y-75564093D01*
X92783354Y-75564086D01*
X92813213Y-75484031D01*
X92855084Y-75428097D01*
X92920548Y-75403680D01*
X92988821Y-75418531D01*
X93017076Y-75439683D01*
X93067636Y-75490243D01*
X93067641Y-75490247D01*
X93223192Y-75603260D01*
X93245978Y-75619815D01*
X93362501Y-75679187D01*
X93442393Y-75719895D01*
X93442396Y-75719896D01*
X93517343Y-75744247D01*
X93652049Y-75788015D01*
X93869778Y-75822500D01*
X93869779Y-75822500D01*
X94090221Y-75822500D01*
X94090222Y-75822500D01*
X94307951Y-75788015D01*
X94517606Y-75719895D01*
X94714022Y-75619815D01*
X94892365Y-75490242D01*
X95048242Y-75334365D01*
X95048244Y-75334361D01*
X95048247Y-75334359D01*
X95092380Y-75273615D01*
X95147709Y-75230949D01*
X95192698Y-75222500D01*
X96899060Y-75222500D01*
X96966099Y-75242185D01*
X96986741Y-75258819D01*
X100983211Y-79255289D01*
X101094711Y-79366789D01*
X101094712Y-79366790D01*
X101225814Y-79454390D01*
X101225827Y-79454397D01*
X101371498Y-79514735D01*
X101371503Y-79514737D01*
X101371507Y-79514737D01*
X101371508Y-79514738D01*
X101526154Y-79545500D01*
X101526157Y-79545500D01*
X101526158Y-79545500D01*
X104480500Y-79545500D01*
X104547539Y-79565185D01*
X104593294Y-79617989D01*
X104604500Y-79669500D01*
X104604500Y-82861301D01*
X104604339Y-82861848D01*
X104604495Y-82862397D01*
X104594499Y-82895358D01*
X104584815Y-82928340D01*
X104584329Y-82928895D01*
X104584219Y-82929260D01*
X104581693Y-82931910D01*
X104560871Y-82955728D01*
X104557231Y-82958825D01*
X104492635Y-83005758D01*
X104438561Y-83059831D01*
X104434766Y-83063062D01*
X104407218Y-83075349D01*
X104380752Y-83089801D01*
X104375639Y-83089435D01*
X104370957Y-83091524D01*
X104341137Y-83086967D01*
X104311060Y-83084816D01*
X104306956Y-83081744D01*
X104301889Y-83080970D01*
X104279272Y-83061020D01*
X104255127Y-83042945D01*
X104251731Y-83036726D01*
X104249491Y-83034750D01*
X104248231Y-83030316D01*
X104238213Y-83011968D01*
X104208354Y-82931913D01*
X104208350Y-82931906D01*
X104122190Y-82816812D01*
X104122187Y-82816809D01*
X104007093Y-82730649D01*
X104007086Y-82730645D01*
X103872379Y-82680403D01*
X103872372Y-82680401D01*
X103812844Y-82674000D01*
X103115000Y-82674000D01*
X103115000Y-83698722D01*
X103038694Y-83654667D01*
X102924244Y-83624000D01*
X102805756Y-83624000D01*
X102691306Y-83654667D01*
X102615000Y-83698722D01*
X102615000Y-82674000D01*
X101917155Y-82674000D01*
X101857627Y-82680401D01*
X101857620Y-82680403D01*
X101722913Y-82730645D01*
X101722906Y-82730649D01*
X101607812Y-82816809D01*
X101607809Y-82816812D01*
X101521649Y-82931906D01*
X101521645Y-82931913D01*
X101471403Y-83066620D01*
X101471401Y-83066627D01*
X101465000Y-83126155D01*
X101465000Y-83824000D01*
X102489722Y-83824000D01*
X102445667Y-83900306D01*
X102415000Y-84014756D01*
X102415000Y-84133244D01*
X102445667Y-84247694D01*
X102489722Y-84324000D01*
X101465000Y-84324000D01*
X101465000Y-85021844D01*
X101471401Y-85081372D01*
X101471403Y-85081379D01*
X101521645Y-85216086D01*
X101521649Y-85216093D01*
X101607809Y-85331187D01*
X101607812Y-85331190D01*
X101722906Y-85417350D01*
X101722913Y-85417354D01*
X101857620Y-85467596D01*
X101857627Y-85467598D01*
X101917155Y-85473999D01*
X101917172Y-85474000D01*
X102615000Y-85474000D01*
X102615000Y-84449277D01*
X102691306Y-84493333D01*
X102805756Y-84524000D01*
X102924244Y-84524000D01*
X103038694Y-84493333D01*
X103115000Y-84449277D01*
X103115000Y-85474000D01*
X103812828Y-85474000D01*
X103812844Y-85473999D01*
X103872372Y-85467598D01*
X103872379Y-85467596D01*
X104007086Y-85417354D01*
X104007093Y-85417350D01*
X104122187Y-85331190D01*
X104122190Y-85331187D01*
X104208350Y-85216093D01*
X104208354Y-85216086D01*
X104238213Y-85136031D01*
X104280084Y-85080097D01*
X104345548Y-85055680D01*
X104413821Y-85070531D01*
X104442076Y-85091683D01*
X104492636Y-85142243D01*
X104492641Y-85142247D01*
X104648192Y-85255260D01*
X104670978Y-85271815D01*
X104787501Y-85331187D01*
X104867393Y-85371895D01*
X104867396Y-85371896D01*
X104972221Y-85405955D01*
X105077049Y-85440015D01*
X105294778Y-85474500D01*
X105294779Y-85474500D01*
X105515221Y-85474500D01*
X105515222Y-85474500D01*
X105732951Y-85440015D01*
X105942606Y-85371895D01*
X106139022Y-85271815D01*
X106317365Y-85142242D01*
X106413779Y-85045828D01*
X119271510Y-85045828D01*
X120724368Y-85045828D01*
X120724368Y-83592971D01*
X119271510Y-83592971D01*
X119271510Y-85045828D01*
X106413779Y-85045828D01*
X106473242Y-84986365D01*
X106602815Y-84808022D01*
X106702895Y-84611606D01*
X106747475Y-84474400D01*
X110381510Y-84474400D01*
X111834368Y-84474400D01*
X111834368Y-84164400D01*
X110381510Y-84164400D01*
X110381510Y-84474400D01*
X106747475Y-84474400D01*
X106771015Y-84401951D01*
X106805500Y-84184222D01*
X106805500Y-83963778D01*
X106771015Y-83746049D01*
X106741324Y-83654667D01*
X106717040Y-83579926D01*
X106702896Y-83536396D01*
X106702895Y-83536393D01*
X106602815Y-83339978D01*
X106498018Y-83195736D01*
X106498017Y-83195735D01*
X106473243Y-83161636D01*
X106317364Y-83005757D01*
X106256613Y-82961618D01*
X106213948Y-82906287D01*
X106205500Y-82861301D01*
X106205500Y-79127940D01*
X106225185Y-79060901D01*
X106241819Y-79040259D01*
X110852786Y-74429292D01*
X110852789Y-74429289D01*
X110940394Y-74298179D01*
X111000738Y-74152497D01*
X111031500Y-73997842D01*
X111031500Y-73840157D01*
X111031500Y-69792697D01*
X111051185Y-69725658D01*
X111082616Y-69692378D01*
X111143361Y-69648245D01*
X111143361Y-69648244D01*
X111143365Y-69648242D01*
X111299242Y-69492365D01*
X111428815Y-69314022D01*
X111528895Y-69117606D01*
X111539814Y-69084000D01*
X111568953Y-68994320D01*
X111568953Y-68994319D01*
X111597014Y-68907954D01*
X111597013Y-68907954D01*
X111597015Y-68907951D01*
X111631500Y-68690222D01*
X111631500Y-68469778D01*
X111597015Y-68252049D01*
X111562955Y-68147221D01*
X111528896Y-68042396D01*
X111528895Y-68042393D01*
X111476287Y-67939146D01*
X111476286Y-67939142D01*
X111428816Y-67845979D01*
X111428815Y-67845978D01*
X111299247Y-67667641D01*
X111299243Y-67667636D01*
X111143363Y-67511756D01*
X111143358Y-67511752D01*
X110965025Y-67382187D01*
X110965024Y-67382186D01*
X110965022Y-67382185D01*
X110902096Y-67350122D01*
X110768606Y-67282104D01*
X110768603Y-67282103D01*
X110558952Y-67213985D01*
X110450086Y-67196742D01*
X110341222Y-67179500D01*
X110120778Y-67179500D01*
X110048201Y-67190995D01*
X109903047Y-67213985D01*
X109693396Y-67282103D01*
X109693393Y-67282104D01*
X109496974Y-67382187D01*
X109318641Y-67511752D01*
X109318636Y-67511756D01*
X109268075Y-67562317D01*
X109206752Y-67595801D01*
X109137060Y-67590816D01*
X109081127Y-67548945D01*
X109064213Y-67517968D01*
X109034354Y-67437913D01*
X109034350Y-67437906D01*
X108948190Y-67322812D01*
X108948187Y-67322809D01*
X108833093Y-67236649D01*
X108833086Y-67236645D01*
X108698379Y-67186403D01*
X108698372Y-67186401D01*
X108638844Y-67180000D01*
X107941000Y-67180000D01*
X107941000Y-68204722D01*
X107864694Y-68160667D01*
X107750244Y-68130000D01*
X107631756Y-68130000D01*
X107517306Y-68160667D01*
X107441000Y-68204722D01*
X107441000Y-67180000D01*
X106743155Y-67180000D01*
X106683627Y-67186401D01*
X106683620Y-67186403D01*
X106548913Y-67236645D01*
X106548906Y-67236649D01*
X106433812Y-67322809D01*
X106433809Y-67322812D01*
X106347649Y-67437906D01*
X106347645Y-67437913D01*
X106297403Y-67572620D01*
X106297401Y-67572627D01*
X106291000Y-67632155D01*
X106291000Y-68330000D01*
X107315722Y-68330000D01*
X107271667Y-68406306D01*
X107241000Y-68520756D01*
X107241000Y-68639244D01*
X107271667Y-68753694D01*
X107315722Y-68830000D01*
X106291000Y-68830000D01*
X106291000Y-69527844D01*
X106297401Y-69587372D01*
X106297403Y-69587379D01*
X106347645Y-69722086D01*
X106347649Y-69722093D01*
X106433809Y-69837187D01*
X106433812Y-69837190D01*
X106548906Y-69923350D01*
X106548913Y-69923354D01*
X106683620Y-69973596D01*
X106683627Y-69973598D01*
X106743155Y-69979999D01*
X106743172Y-69980000D01*
X107441000Y-69980000D01*
X107441000Y-68955277D01*
X107517306Y-68999333D01*
X107631756Y-69030000D01*
X107750244Y-69030000D01*
X107864694Y-68999333D01*
X107941000Y-68955277D01*
X107941000Y-69980000D01*
X108638828Y-69980000D01*
X108638844Y-69979999D01*
X108698372Y-69973598D01*
X108698379Y-69973596D01*
X108833086Y-69923354D01*
X108833093Y-69923350D01*
X108948187Y-69837190D01*
X108948190Y-69837187D01*
X109034350Y-69722093D01*
X109034354Y-69722086D01*
X109064213Y-69642031D01*
X109082290Y-69617882D01*
X109098367Y-69592373D01*
X109103010Y-69590202D01*
X109106084Y-69586097D01*
X109134344Y-69575556D01*
X109161663Y-69562787D01*
X109166744Y-69563471D01*
X109171548Y-69561680D01*
X109201023Y-69568091D01*
X109230907Y-69572119D01*
X109236165Y-69575735D01*
X109239821Y-69576531D01*
X109260766Y-69590937D01*
X109264554Y-69594161D01*
X109318635Y-69648242D01*
X109383243Y-69695182D01*
X109386871Y-69698270D01*
X109403513Y-69723668D01*
X109422050Y-69747707D01*
X109423169Y-69753666D01*
X109425164Y-69756711D01*
X109425234Y-69764660D01*
X109430500Y-69792697D01*
X109430500Y-73536060D01*
X109410815Y-73603099D01*
X109394181Y-73623741D01*
X105109741Y-77908181D01*
X105048418Y-77941666D01*
X105022060Y-77944500D01*
X101987940Y-77944500D01*
X101920901Y-77924815D01*
X101900259Y-77908181D01*
X97792292Y-73800213D01*
X97792288Y-73800210D01*
X97661185Y-73712609D01*
X97661172Y-73712602D01*
X97515501Y-73652264D01*
X97515489Y-73652261D01*
X97360845Y-73621500D01*
X97360842Y-73621500D01*
X95192698Y-73621500D01*
X95125659Y-73601815D01*
X95092380Y-73570385D01*
X95048247Y-73509640D01*
X94892363Y-73353756D01*
X94892358Y-73353752D01*
X94714025Y-73224187D01*
X94714024Y-73224186D01*
X94714022Y-73224185D01*
X94651096Y-73192122D01*
X94517606Y-73124104D01*
X94517603Y-73124103D01*
X94307952Y-73055985D01*
X94164383Y-73033246D01*
X94090222Y-73021500D01*
X93869778Y-73021500D01*
X93869773Y-73021500D01*
X93795611Y-73033246D01*
X93726317Y-73024291D01*
X93688532Y-72998454D01*
X88974819Y-68284741D01*
X88941334Y-68223418D01*
X88938500Y-68197060D01*
X88938500Y-60394697D01*
X88958185Y-60327658D01*
X88989616Y-60294378D01*
X89050361Y-60250245D01*
X89050361Y-60250244D01*
X89050365Y-60250242D01*
X89206242Y-60094365D01*
X89335815Y-59916022D01*
X89435895Y-59719606D01*
X89504015Y-59509951D01*
X89538500Y-59292222D01*
X89538500Y-59071778D01*
X89526752Y-58997608D01*
X89535706Y-58928319D01*
X89561541Y-58890535D01*
X93784078Y-54668000D01*
X94372909Y-54079170D01*
X94601786Y-53850292D01*
X94601786Y-53850291D01*
X94601789Y-53850289D01*
X94689394Y-53719179D01*
X94749738Y-53573497D01*
X94780500Y-53418842D01*
X94780500Y-53261157D01*
X94780500Y-46678697D01*
X94800185Y-46611658D01*
X94831616Y-46578378D01*
X94892361Y-46534245D01*
X94892361Y-46534244D01*
X94892365Y-46534242D01*
X95048242Y-46378365D01*
X95048244Y-46378361D01*
X95048247Y-46378359D01*
X95092380Y-46317615D01*
X95147709Y-46274949D01*
X95192698Y-46266500D01*
X98630844Y-46266500D01*
X98630845Y-46266499D01*
X98785497Y-46235737D01*
X98931179Y-46175394D01*
X99062289Y-46087789D01*
X99758029Y-45392049D01*
X100468909Y-44681170D01*
X105010786Y-40139292D01*
X105010789Y-40139289D01*
X105098394Y-40008179D01*
X105158738Y-39862497D01*
X105189500Y-39707842D01*
X105189500Y-39550157D01*
X105189500Y-37026697D01*
X105209185Y-36959658D01*
X105240616Y-36926378D01*
X105301361Y-36882245D01*
X105301361Y-36882244D01*
X105301365Y-36882242D01*
X105457242Y-36726365D01*
X105457244Y-36726361D01*
X105457247Y-36726359D01*
X105501380Y-36665615D01*
X105556709Y-36622949D01*
X105601698Y-36614500D01*
X115656500Y-36614500D01*
X115723539Y-36634185D01*
X115769294Y-36686989D01*
X115780500Y-36738500D01*
X115780500Y-44507301D01*
X115780339Y-44507848D01*
X115780495Y-44508397D01*
X115770499Y-44541358D01*
X115760815Y-44574340D01*
X115760329Y-44574895D01*
X115760219Y-44575260D01*
X115757693Y-44577910D01*
X115736871Y-44601728D01*
X115733231Y-44604825D01*
X115668635Y-44651758D01*
X115614561Y-44705831D01*
X115610766Y-44709062D01*
X115583218Y-44721349D01*
X115556752Y-44735801D01*
X115551639Y-44735435D01*
X115546957Y-44737524D01*
X115517137Y-44732967D01*
X115487060Y-44730816D01*
X115482956Y-44727744D01*
X115477889Y-44726970D01*
X115455272Y-44707020D01*
X115431127Y-44688945D01*
X115427731Y-44682726D01*
X115425491Y-44680750D01*
X115424231Y-44676316D01*
X115414213Y-44657968D01*
X115384354Y-44577913D01*
X115384350Y-44577906D01*
X115298190Y-44462812D01*
X115298187Y-44462809D01*
X115183093Y-44376649D01*
X115183086Y-44376645D01*
X115048379Y-44326403D01*
X115048372Y-44326401D01*
X114988844Y-44320000D01*
X114291000Y-44320000D01*
X114291000Y-45344722D01*
X114214694Y-45300667D01*
X114100244Y-45270000D01*
X113981756Y-45270000D01*
X113867306Y-45300667D01*
X113791000Y-45344722D01*
X113791000Y-44320000D01*
X113093155Y-44320000D01*
X113033627Y-44326401D01*
X113033620Y-44326403D01*
X112898913Y-44376645D01*
X112898906Y-44376649D01*
X112783812Y-44462809D01*
X112783809Y-44462812D01*
X112697649Y-44577906D01*
X112697645Y-44577913D01*
X112647403Y-44712620D01*
X112647401Y-44712627D01*
X112641000Y-44772155D01*
X112641000Y-45470000D01*
X113665722Y-45470000D01*
X113621667Y-45546306D01*
X113591000Y-45660756D01*
X113591000Y-45779244D01*
X113621667Y-45893694D01*
X113665722Y-45970000D01*
X112641000Y-45970000D01*
X112641000Y-46667844D01*
X112647401Y-46727372D01*
X112647403Y-46727379D01*
X112697645Y-46862086D01*
X112697649Y-46862093D01*
X112783809Y-46977187D01*
X112783812Y-46977190D01*
X112898906Y-47063350D01*
X112898913Y-47063354D01*
X113033620Y-47113596D01*
X113033627Y-47113598D01*
X113093155Y-47119999D01*
X113093172Y-47120000D01*
X113749559Y-47120000D01*
X113816598Y-47139685D01*
X113862353Y-47192489D01*
X113872297Y-47261647D01*
X113843272Y-47325203D01*
X113837240Y-47331681D01*
X106887741Y-54281181D01*
X106826418Y-54314666D01*
X106800060Y-54317500D01*
X105601698Y-54317500D01*
X105534659Y-54297815D01*
X105501380Y-54266385D01*
X105457247Y-54205640D01*
X105301363Y-54049756D01*
X105301358Y-54049752D01*
X105123025Y-53920187D01*
X105123024Y-53920186D01*
X105123022Y-53920185D01*
X105060096Y-53888122D01*
X104926606Y-53820104D01*
X104926603Y-53820103D01*
X104716952Y-53751985D01*
X104573383Y-53729246D01*
X104499222Y-53717500D01*
X104278778Y-53717500D01*
X104206201Y-53728995D01*
X104061047Y-53751985D01*
X103851396Y-53820103D01*
X103851393Y-53820104D01*
X103654974Y-53920187D01*
X103476641Y-54049752D01*
X103476636Y-54049756D01*
X103426075Y-54100317D01*
X103364752Y-54133801D01*
X103295060Y-54128816D01*
X103239127Y-54086945D01*
X103222213Y-54055968D01*
X103192354Y-53975913D01*
X103192350Y-53975906D01*
X103106190Y-53860812D01*
X103106187Y-53860809D01*
X102991093Y-53774649D01*
X102991086Y-53774645D01*
X102856379Y-53724403D01*
X102856372Y-53724401D01*
X102796844Y-53718000D01*
X102099000Y-53718000D01*
X102099000Y-54742722D01*
X102022694Y-54698667D01*
X101908244Y-54668000D01*
X101789756Y-54668000D01*
X101675306Y-54698667D01*
X101599000Y-54742722D01*
X101599000Y-53718000D01*
X100901155Y-53718000D01*
X100841627Y-53724401D01*
X100841620Y-53724403D01*
X100706913Y-53774645D01*
X100706906Y-53774649D01*
X100591812Y-53860809D01*
X100591809Y-53860812D01*
X100505649Y-53975906D01*
X100505645Y-53975913D01*
X100455403Y-54110620D01*
X100455401Y-54110627D01*
X100449000Y-54170155D01*
X100449000Y-54868000D01*
X101473722Y-54868000D01*
X101429667Y-54944306D01*
X101399000Y-55058756D01*
X101399000Y-55177244D01*
X101429667Y-55291694D01*
X101473722Y-55368000D01*
X100449000Y-55368000D01*
X100449000Y-56065844D01*
X100455401Y-56125372D01*
X100455403Y-56125379D01*
X100505645Y-56260086D01*
X100505649Y-56260093D01*
X100591809Y-56375187D01*
X100591812Y-56375190D01*
X100706906Y-56461350D01*
X100706913Y-56461354D01*
X100841620Y-56511596D01*
X100841627Y-56511598D01*
X100901155Y-56517999D01*
X100901172Y-56518000D01*
X101599000Y-56518000D01*
X101599000Y-55493277D01*
X101675306Y-55537333D01*
X101789756Y-55568000D01*
X101908244Y-55568000D01*
X102022694Y-55537333D01*
X102099000Y-55493277D01*
X102099000Y-56518000D01*
X102796828Y-56518000D01*
X102796844Y-56517999D01*
X102856372Y-56511598D01*
X102856379Y-56511596D01*
X102991086Y-56461354D01*
X102991093Y-56461350D01*
X103106187Y-56375190D01*
X103106190Y-56375187D01*
X103192350Y-56260093D01*
X103192354Y-56260086D01*
X103222213Y-56180031D01*
X103264084Y-56124097D01*
X103329548Y-56099680D01*
X103397821Y-56114531D01*
X103426076Y-56135683D01*
X103476636Y-56186243D01*
X103476641Y-56186247D01*
X103600484Y-56276223D01*
X103654978Y-56315815D01*
X103771501Y-56375187D01*
X103851393Y-56415895D01*
X103851396Y-56415896D01*
X103956221Y-56449955D01*
X104061049Y-56484015D01*
X104278778Y-56518500D01*
X104278779Y-56518500D01*
X104499221Y-56518500D01*
X104499222Y-56518500D01*
X104716951Y-56484015D01*
X104926606Y-56415895D01*
X105123022Y-56315815D01*
X105301365Y-56186242D01*
X105457242Y-56030365D01*
X105457244Y-56030361D01*
X105457247Y-56030359D01*
X105501380Y-55969615D01*
X105556709Y-55926949D01*
X105601698Y-55918500D01*
X107261844Y-55918500D01*
X107261845Y-55918499D01*
X107416497Y-55887737D01*
X107562179Y-55827394D01*
X107693289Y-55739789D01*
X107895745Y-55537333D01*
X108204122Y-55228957D01*
X114822430Y-48610647D01*
X116289534Y-47143542D01*
X116350855Y-47110059D01*
X116396606Y-47108752D01*
X116470778Y-47120500D01*
X116470780Y-47120500D01*
X116691221Y-47120500D01*
X116691222Y-47120500D01*
X116908951Y-47086015D01*
X117118606Y-47017895D01*
X117315022Y-46917815D01*
X117493365Y-46788242D01*
X117649242Y-46632365D01*
X117649244Y-46632361D01*
X117649247Y-46632359D01*
X117693380Y-46571615D01*
X117748709Y-46528949D01*
X117793698Y-46520500D01*
X118484060Y-46520500D01*
X118551099Y-46540185D01*
X118571741Y-46556819D01*
X125521241Y-53506319D01*
X125554726Y-53567642D01*
X125549742Y-53637334D01*
X125507870Y-53693267D01*
X125442406Y-53717684D01*
X125433560Y-53718000D01*
X124777155Y-53718000D01*
X124717627Y-53724401D01*
X124717620Y-53724403D01*
X124582913Y-53774645D01*
X124582906Y-53774649D01*
X124467812Y-53860809D01*
X124467809Y-53860812D01*
X124381649Y-53975906D01*
X124381645Y-53975913D01*
X124331403Y-54110620D01*
X124331401Y-54110627D01*
X124325000Y-54170155D01*
X124325000Y-54868000D01*
X125349722Y-54868000D01*
X125305667Y-54944306D01*
X125275000Y-55058756D01*
X125275000Y-55177244D01*
X125305667Y-55291694D01*
X125349722Y-55368000D01*
X124325000Y-55368000D01*
X124325000Y-56065844D01*
X124331401Y-56125372D01*
X124331403Y-56125379D01*
X124381645Y-56260086D01*
X124381649Y-56260093D01*
X124467809Y-56375187D01*
X124467812Y-56375190D01*
X124582906Y-56461350D01*
X124582913Y-56461354D01*
X124717620Y-56511596D01*
X124717627Y-56511598D01*
X124777155Y-56517999D01*
X124777172Y-56518000D01*
X125475000Y-56518000D01*
X125475000Y-55493277D01*
X125551306Y-55537333D01*
X125665756Y-55568000D01*
X125784244Y-55568000D01*
X125898694Y-55537333D01*
X125975000Y-55493277D01*
X125975000Y-56518000D01*
X126672828Y-56518000D01*
X126672844Y-56517999D01*
X126732372Y-56511598D01*
X126732379Y-56511596D01*
X126867086Y-56461354D01*
X126867093Y-56461350D01*
X126982187Y-56375190D01*
X126982190Y-56375187D01*
X127068350Y-56260093D01*
X127068354Y-56260086D01*
X127098213Y-56180031D01*
X127140084Y-56124097D01*
X127205548Y-56099680D01*
X127273821Y-56114531D01*
X127302076Y-56135683D01*
X127352636Y-56186243D01*
X127352641Y-56186247D01*
X127476484Y-56276223D01*
X127530978Y-56315815D01*
X127647501Y-56375187D01*
X127727393Y-56415895D01*
X127727396Y-56415896D01*
X127832221Y-56449955D01*
X127937049Y-56484015D01*
X128154778Y-56518500D01*
X128154779Y-56518500D01*
X128375221Y-56518500D01*
X128375222Y-56518500D01*
X128592951Y-56484015D01*
X128802606Y-56415895D01*
X128999022Y-56315815D01*
X129177365Y-56186242D01*
X129333242Y-56030365D01*
X129462815Y-55852022D01*
X129562895Y-55655606D01*
X129631015Y-55445951D01*
X129665500Y-55228222D01*
X129665500Y-55007778D01*
X129631015Y-54790049D01*
X129596955Y-54685221D01*
X129562896Y-54580396D01*
X129562895Y-54580393D01*
X129528237Y-54512375D01*
X129462815Y-54383978D01*
X129412457Y-54314666D01*
X129333247Y-54205641D01*
X129333243Y-54205636D01*
X129177363Y-54049756D01*
X129177358Y-54049752D01*
X128999025Y-53920187D01*
X128999024Y-53920186D01*
X128999022Y-53920185D01*
X128936096Y-53888122D01*
X128802606Y-53820104D01*
X128802603Y-53820103D01*
X128592952Y-53751985D01*
X128449383Y-53729246D01*
X128375222Y-53717500D01*
X128154778Y-53717500D01*
X128154773Y-53717500D01*
X128080611Y-53729246D01*
X128011317Y-53720291D01*
X127973532Y-53694454D01*
X120031398Y-45752319D01*
X119377292Y-45098213D01*
X119377288Y-45098210D01*
X119246185Y-45010609D01*
X119246172Y-45010602D01*
X119100501Y-44950264D01*
X119100489Y-44950261D01*
X118945845Y-44919500D01*
X118945842Y-44919500D01*
X117793698Y-44919500D01*
X117726659Y-44899815D01*
X117693380Y-44868385D01*
X117649247Y-44807640D01*
X117493364Y-44651757D01*
X117432613Y-44607618D01*
X117389948Y-44552287D01*
X117381500Y-44507301D01*
X117381500Y-32200697D01*
X117401185Y-32133658D01*
X117432616Y-32100378D01*
X117493361Y-32056245D01*
X117493361Y-32056244D01*
X117493365Y-32056242D01*
X117649242Y-31900365D01*
X117649244Y-31900361D01*
X117649247Y-31900359D01*
X117693380Y-31839615D01*
X117748709Y-31796949D01*
X117793698Y-31788500D01*
X123564060Y-31788500D01*
X123631099Y-31808185D01*
X123651741Y-31824819D01*
X126029241Y-34202319D01*
X126062726Y-34263642D01*
X126057742Y-34333334D01*
X126015870Y-34389267D01*
X125950406Y-34413684D01*
X125941560Y-34414000D01*
X125285155Y-34414000D01*
X125225627Y-34420401D01*
X125225620Y-34420403D01*
X125090913Y-34470645D01*
X125090906Y-34470649D01*
X124975812Y-34556809D01*
X124975809Y-34556812D01*
X124889649Y-34671906D01*
X124889645Y-34671913D01*
X124839403Y-34806620D01*
X124839401Y-34806627D01*
X124833000Y-34866155D01*
X124833000Y-35564000D01*
X125857722Y-35564000D01*
X125813667Y-35640306D01*
X125783000Y-35754756D01*
X125783000Y-35873244D01*
X125813667Y-35987694D01*
X125857722Y-36064000D01*
X124833000Y-36064000D01*
X124833000Y-36761844D01*
X124839401Y-36821372D01*
X124839403Y-36821379D01*
X124889645Y-36956086D01*
X124889649Y-36956093D01*
X124975809Y-37071187D01*
X124975812Y-37071190D01*
X125090906Y-37157350D01*
X125090913Y-37157354D01*
X125225620Y-37207596D01*
X125225627Y-37207598D01*
X125285155Y-37213999D01*
X125285172Y-37214000D01*
X125983000Y-37214000D01*
X125983000Y-36189277D01*
X126059306Y-36233333D01*
X126173756Y-36264000D01*
X126292244Y-36264000D01*
X126406694Y-36233333D01*
X126483000Y-36189277D01*
X126483000Y-37214000D01*
X127180828Y-37214000D01*
X127180844Y-37213999D01*
X127240372Y-37207598D01*
X127240379Y-37207596D01*
X127375086Y-37157354D01*
X127375093Y-37157350D01*
X127490187Y-37071190D01*
X127490190Y-37071187D01*
X127576350Y-36956093D01*
X127576354Y-36956086D01*
X127606213Y-36876031D01*
X127648084Y-36820097D01*
X127713548Y-36795680D01*
X127781821Y-36810531D01*
X127810076Y-36831683D01*
X127860636Y-36882243D01*
X127860641Y-36882247D01*
X128009931Y-36990711D01*
X128038978Y-37011815D01*
X128155501Y-37071187D01*
X128235393Y-37111895D01*
X128235396Y-37111896D01*
X128340221Y-37145955D01*
X128445049Y-37180015D01*
X128662778Y-37214500D01*
X128662779Y-37214500D01*
X128883219Y-37214500D01*
X128883222Y-37214500D01*
X128957389Y-37202752D01*
X129026679Y-37211706D01*
X129064466Y-37237544D01*
X132723211Y-40896289D01*
X132834711Y-41007789D01*
X132965821Y-41095394D01*
X133068833Y-41138062D01*
X133111502Y-41155737D01*
X133266152Y-41186499D01*
X133266155Y-41186500D01*
X133266157Y-41186500D01*
X133266158Y-41186500D01*
X133724060Y-41186500D01*
X133791099Y-41206185D01*
X133811741Y-41222819D01*
X136443241Y-43854319D01*
X136476726Y-43915642D01*
X136471742Y-43985334D01*
X136429870Y-44041267D01*
X136364406Y-44065684D01*
X136355560Y-44066000D01*
X135699155Y-44066000D01*
X135639627Y-44072401D01*
X135639620Y-44072403D01*
X135504913Y-44122645D01*
X135504906Y-44122649D01*
X135389812Y-44208809D01*
X135389809Y-44208812D01*
X135303649Y-44323906D01*
X135303645Y-44323913D01*
X135253403Y-44458620D01*
X135253401Y-44458627D01*
X135247000Y-44518155D01*
X135247000Y-45216000D01*
X136271722Y-45216000D01*
X136227667Y-45292306D01*
X136197000Y-45406756D01*
X136197000Y-45525244D01*
X136227667Y-45639694D01*
X136271722Y-45716000D01*
X135247000Y-45716000D01*
X135247000Y-46413844D01*
X135253401Y-46473372D01*
X135253403Y-46473379D01*
X135303645Y-46608086D01*
X135303649Y-46608093D01*
X135389809Y-46723187D01*
X135389812Y-46723190D01*
X135504906Y-46809350D01*
X135504913Y-46809354D01*
X135639620Y-46859596D01*
X135639627Y-46859598D01*
X135699155Y-46865999D01*
X135699172Y-46866000D01*
X136397000Y-46866000D01*
X136397000Y-45841277D01*
X136473306Y-45885333D01*
X136587756Y-45916000D01*
X136706244Y-45916000D01*
X136820694Y-45885333D01*
X136897000Y-45841277D01*
X136897000Y-46866000D01*
X137594828Y-46866000D01*
X137594844Y-46865999D01*
X137654372Y-46859598D01*
X137654379Y-46859596D01*
X137789086Y-46809354D01*
X137789093Y-46809350D01*
X137904187Y-46723190D01*
X137904190Y-46723187D01*
X137990350Y-46608093D01*
X137990354Y-46608086D01*
X138020213Y-46528031D01*
X138062084Y-46472097D01*
X138127548Y-46447680D01*
X138195821Y-46462531D01*
X138224076Y-46483683D01*
X138274636Y-46534243D01*
X138274641Y-46534247D01*
X138423931Y-46642711D01*
X138452978Y-46663815D01*
X138569501Y-46723187D01*
X138649393Y-46763895D01*
X138649396Y-46763896D01*
X138724343Y-46788247D01*
X138859049Y-46832015D01*
X139076778Y-46866500D01*
X139076779Y-46866500D01*
X139297219Y-46866500D01*
X139297222Y-46866500D01*
X139371389Y-46854752D01*
X139440679Y-46863706D01*
X139478466Y-46889544D01*
X144446181Y-51857259D01*
X144479666Y-51918582D01*
X144482500Y-51944940D01*
X144482500Y-57969301D01*
X144482339Y-57969848D01*
X144482495Y-57970397D01*
X144472499Y-58003358D01*
X144462815Y-58036340D01*
X144462329Y-58036895D01*
X144462219Y-58037260D01*
X144459693Y-58039910D01*
X144438871Y-58063728D01*
X144435231Y-58066825D01*
X144370635Y-58113758D01*
X144316561Y-58167831D01*
X144312766Y-58171062D01*
X144285218Y-58183349D01*
X144258752Y-58197801D01*
X144253639Y-58197435D01*
X144248957Y-58199524D01*
X144219137Y-58194967D01*
X144189060Y-58192816D01*
X144184956Y-58189744D01*
X144179889Y-58188970D01*
X144157272Y-58169020D01*
X144133127Y-58150945D01*
X144129731Y-58144726D01*
X144127491Y-58142750D01*
X144126231Y-58138316D01*
X144116213Y-58119968D01*
X144086354Y-58039913D01*
X144086350Y-58039906D01*
X144000190Y-57924812D01*
X144000187Y-57924809D01*
X143885093Y-57838649D01*
X143885086Y-57838645D01*
X143750379Y-57788403D01*
X143750372Y-57788401D01*
X143690844Y-57782000D01*
X142993000Y-57782000D01*
X142993000Y-58806722D01*
X142916694Y-58762667D01*
X142802244Y-58732000D01*
X142683756Y-58732000D01*
X142569306Y-58762667D01*
X142493000Y-58806722D01*
X142493000Y-57782000D01*
X141795155Y-57782000D01*
X141735627Y-57788401D01*
X141735620Y-57788403D01*
X141600913Y-57838645D01*
X141600906Y-57838649D01*
X141485812Y-57924809D01*
X141485809Y-57924812D01*
X141399649Y-58039906D01*
X141399645Y-58039913D01*
X141349403Y-58174620D01*
X141349401Y-58174627D01*
X141343000Y-58234155D01*
X141343000Y-58932000D01*
X142367722Y-58932000D01*
X142323667Y-59008306D01*
X142293000Y-59122756D01*
X142293000Y-59241244D01*
X142323667Y-59355694D01*
X142367722Y-59432000D01*
X141343000Y-59432000D01*
X141343000Y-60129844D01*
X141349401Y-60189372D01*
X141349403Y-60189379D01*
X141399645Y-60324086D01*
X141399649Y-60324093D01*
X141485809Y-60439187D01*
X141485812Y-60439190D01*
X141600906Y-60525350D01*
X141600913Y-60525354D01*
X141735620Y-60575596D01*
X141735627Y-60575598D01*
X141795155Y-60581999D01*
X141795172Y-60582000D01*
X142451559Y-60582000D01*
X142518598Y-60601685D01*
X142564353Y-60654489D01*
X142574297Y-60723647D01*
X142545272Y-60787203D01*
X142539240Y-60793681D01*
X140204148Y-63128774D01*
X138930711Y-64402211D01*
X138874960Y-64457962D01*
X138819209Y-64513712D01*
X138731609Y-64644814D01*
X138731602Y-64644827D01*
X138671264Y-64790498D01*
X138671261Y-64790510D01*
X138640500Y-64945153D01*
X138640500Y-73463301D01*
X138640339Y-73463848D01*
X138640495Y-73464397D01*
X138630499Y-73497358D01*
X138620815Y-73530340D01*
X138620329Y-73530895D01*
X138620219Y-73531260D01*
X138617693Y-73533910D01*
X138596871Y-73557728D01*
X138593231Y-73560825D01*
X138528635Y-73607758D01*
X138474561Y-73661831D01*
X138470766Y-73665062D01*
X138443218Y-73677349D01*
X138416752Y-73691801D01*
X138411639Y-73691435D01*
X138406957Y-73693524D01*
X138377137Y-73688967D01*
X138347060Y-73686816D01*
X138342956Y-73683744D01*
X138337889Y-73682970D01*
X138315272Y-73663020D01*
X138291127Y-73644945D01*
X138287731Y-73638726D01*
X138285491Y-73636750D01*
X138284231Y-73632316D01*
X138274213Y-73613968D01*
X138244354Y-73533913D01*
X138244350Y-73533906D01*
X138158190Y-73418812D01*
X138158187Y-73418809D01*
X138043093Y-73332649D01*
X138043086Y-73332645D01*
X137908379Y-73282403D01*
X137908372Y-73282401D01*
X137848844Y-73276000D01*
X137151000Y-73276000D01*
X137151000Y-74300722D01*
X137074694Y-74256667D01*
X136960244Y-74226000D01*
X136841756Y-74226000D01*
X136727306Y-74256667D01*
X136651000Y-74300722D01*
X136651000Y-73276000D01*
X135953155Y-73276000D01*
X135893627Y-73282401D01*
X135893620Y-73282403D01*
X135758913Y-73332645D01*
X135758906Y-73332649D01*
X135643812Y-73418809D01*
X135643809Y-73418812D01*
X135557649Y-73533906D01*
X135557645Y-73533913D01*
X135507403Y-73668620D01*
X135507401Y-73668627D01*
X135501000Y-73728155D01*
X135501000Y-74426000D01*
X136525722Y-74426000D01*
X136481667Y-74502306D01*
X136451000Y-74616756D01*
X136451000Y-74735244D01*
X136481667Y-74849694D01*
X136525722Y-74926000D01*
X135501000Y-74926000D01*
X135501000Y-75623844D01*
X135507401Y-75683372D01*
X135507403Y-75683379D01*
X135557645Y-75818086D01*
X135557649Y-75818093D01*
X135643809Y-75933187D01*
X135643812Y-75933190D01*
X135758906Y-76019350D01*
X135758913Y-76019354D01*
X135893620Y-76069596D01*
X135893627Y-76069598D01*
X135953155Y-76075999D01*
X135953172Y-76076000D01*
X136609559Y-76076000D01*
X136676598Y-76095685D01*
X136722353Y-76148489D01*
X136732297Y-76217647D01*
X136703272Y-76281203D01*
X136697240Y-76287681D01*
X129747741Y-83237181D01*
X129720813Y-83251884D01*
X129694995Y-83268477D01*
X129688794Y-83269368D01*
X129686418Y-83270666D01*
X129660060Y-83273500D01*
X129477698Y-83273500D01*
X129410659Y-83253815D01*
X129377380Y-83222385D01*
X129333247Y-83161640D01*
X129177363Y-83005756D01*
X129177358Y-83005752D01*
X128999025Y-82876187D01*
X128999024Y-82876186D01*
X128999022Y-82876185D01*
X128936096Y-82844122D01*
X128802606Y-82776104D01*
X128802603Y-82776103D01*
X128592952Y-82707985D01*
X128429406Y-82682082D01*
X128375222Y-82673500D01*
X128375221Y-82673500D01*
X128306940Y-82673500D01*
X128239901Y-82653815D01*
X128219259Y-82637181D01*
X126494292Y-80912213D01*
X126494288Y-80912210D01*
X126363185Y-80824609D01*
X126363172Y-80824602D01*
X126217501Y-80764264D01*
X126217489Y-80764261D01*
X126062845Y-80733500D01*
X126062842Y-80733500D01*
X118312351Y-80733500D01*
X118245312Y-80713815D01*
X118199557Y-80661011D01*
X118189061Y-80622752D01*
X118184091Y-80576516D01*
X118133797Y-80441671D01*
X118133793Y-80441664D01*
X118047547Y-80326455D01*
X118047544Y-80326452D01*
X117932335Y-80240206D01*
X117932328Y-80240202D01*
X117797483Y-80189908D01*
X117751243Y-80184937D01*
X117686693Y-80158199D01*
X117646845Y-80100806D01*
X117640500Y-80061648D01*
X117640500Y-78106940D01*
X117660185Y-78039901D01*
X117676819Y-78019259D01*
X122058909Y-73637170D01*
X123298786Y-72397292D01*
X123298789Y-72397289D01*
X123386394Y-72266179D01*
X123446738Y-72120497D01*
X123477500Y-71965842D01*
X123477500Y-71808157D01*
X123477500Y-70046697D01*
X123497185Y-69979658D01*
X123528616Y-69946378D01*
X123560307Y-69923354D01*
X123589365Y-69902242D01*
X123745242Y-69746365D01*
X123874815Y-69568022D01*
X123974895Y-69371606D01*
X124043015Y-69161951D01*
X124077500Y-68944222D01*
X124077500Y-68723778D01*
X124043015Y-68506049D01*
X124008955Y-68401221D01*
X123974896Y-68296396D01*
X123974895Y-68296393D01*
X123924281Y-68197060D01*
X123874815Y-68099978D01*
X123858260Y-68077192D01*
X123745247Y-67921641D01*
X123745243Y-67921636D01*
X123589363Y-67765756D01*
X123589358Y-67765752D01*
X123411025Y-67636187D01*
X123411024Y-67636186D01*
X123411022Y-67636185D01*
X123331765Y-67595801D01*
X123214606Y-67536104D01*
X123214603Y-67536103D01*
X123004952Y-67467985D01*
X122896086Y-67450742D01*
X122787222Y-67433500D01*
X122566778Y-67433500D01*
X122494201Y-67444995D01*
X122349047Y-67467985D01*
X122139396Y-67536103D01*
X122139393Y-67536104D01*
X121942974Y-67636187D01*
X121764641Y-67765752D01*
X121764636Y-67765756D01*
X121714075Y-67816317D01*
X121652752Y-67849801D01*
X121583060Y-67844816D01*
X121527127Y-67802945D01*
X121510213Y-67771968D01*
X121480354Y-67691913D01*
X121480350Y-67691906D01*
X121394190Y-67576812D01*
X121394187Y-67576809D01*
X121279093Y-67490649D01*
X121279086Y-67490645D01*
X121144379Y-67440403D01*
X121144372Y-67440401D01*
X121084844Y-67434000D01*
X120387000Y-67434000D01*
X120387000Y-68458722D01*
X120310694Y-68414667D01*
X120196244Y-68384000D01*
X120077756Y-68384000D01*
X119963306Y-68414667D01*
X119887000Y-68458722D01*
X119887000Y-67434000D01*
X119189155Y-67434000D01*
X119129627Y-67440401D01*
X119129620Y-67440403D01*
X118994913Y-67490645D01*
X118994906Y-67490649D01*
X118879812Y-67576809D01*
X118879809Y-67576812D01*
X118793649Y-67691906D01*
X118793645Y-67691913D01*
X118743403Y-67826620D01*
X118743401Y-67826627D01*
X118737000Y-67886155D01*
X118737000Y-68584000D01*
X119761722Y-68584000D01*
X119717667Y-68660306D01*
X119687000Y-68774756D01*
X119687000Y-68893244D01*
X119717667Y-69007694D01*
X119761722Y-69084000D01*
X118737000Y-69084000D01*
X118737000Y-69781844D01*
X118743401Y-69841372D01*
X118743403Y-69841379D01*
X118793645Y-69976086D01*
X118793649Y-69976093D01*
X118879809Y-70091187D01*
X118879812Y-70091190D01*
X118994906Y-70177350D01*
X118994913Y-70177354D01*
X119129620Y-70227596D01*
X119129627Y-70227598D01*
X119189155Y-70233999D01*
X119189172Y-70234000D01*
X119887000Y-70234000D01*
X119887000Y-69209277D01*
X119963306Y-69253333D01*
X120077756Y-69284000D01*
X120196244Y-69284000D01*
X120310694Y-69253333D01*
X120387000Y-69209277D01*
X120387000Y-70234000D01*
X121084828Y-70234000D01*
X121084844Y-70233999D01*
X121144372Y-70227598D01*
X121144379Y-70227596D01*
X121279086Y-70177354D01*
X121279093Y-70177350D01*
X121394187Y-70091190D01*
X121394190Y-70091187D01*
X121480350Y-69976093D01*
X121480354Y-69976086D01*
X121510213Y-69896031D01*
X121528290Y-69871882D01*
X121544367Y-69846373D01*
X121549010Y-69844202D01*
X121552084Y-69840097D01*
X121580344Y-69829556D01*
X121607663Y-69816787D01*
X121612744Y-69817471D01*
X121617548Y-69815680D01*
X121647023Y-69822091D01*
X121676907Y-69826119D01*
X121682165Y-69829735D01*
X121685821Y-69830531D01*
X121706766Y-69844937D01*
X121710554Y-69848161D01*
X121764635Y-69902242D01*
X121829243Y-69949182D01*
X121832871Y-69952270D01*
X121849513Y-69977668D01*
X121868050Y-70001707D01*
X121869169Y-70007666D01*
X121871164Y-70010711D01*
X121871234Y-70018660D01*
X121876500Y-70046697D01*
X121876500Y-71504060D01*
X121856815Y-71571099D01*
X121840181Y-71591741D01*
X116329711Y-77102211D01*
X116273960Y-77157962D01*
X116218209Y-77213712D01*
X116130609Y-77344814D01*
X116130602Y-77344827D01*
X116070264Y-77490498D01*
X116070261Y-77490510D01*
X116039500Y-77645153D01*
X116039500Y-80061648D01*
X116019815Y-80128687D01*
X115967011Y-80174442D01*
X115928755Y-80184938D01*
X115882516Y-80189909D01*
X115747671Y-80240202D01*
X115747664Y-80240206D01*
X115632455Y-80326452D01*
X115632452Y-80326455D01*
X115546206Y-80441664D01*
X115546202Y-80441671D01*
X115495908Y-80576517D01*
X115489501Y-80636116D01*
X115489500Y-80636135D01*
X115489500Y-80646690D01*
X115469815Y-80713729D01*
X115453181Y-80734371D01*
X114782962Y-81404590D01*
X114765925Y-81341007D01*
X114700099Y-81226993D01*
X114607007Y-81133901D01*
X114492993Y-81068075D01*
X114429409Y-81051037D01*
X115061716Y-80418728D01*
X115007550Y-80379375D01*
X114818217Y-80282904D01*
X114616129Y-80217242D01*
X114406246Y-80184000D01*
X114193754Y-80184000D01*
X113983872Y-80217242D01*
X113983869Y-80217242D01*
X113781782Y-80282904D01*
X113592439Y-80379380D01*
X113538282Y-80418727D01*
X113538282Y-80418728D01*
X114170591Y-81051037D01*
X114107007Y-81068075D01*
X113992993Y-81133901D01*
X113899901Y-81226993D01*
X113834075Y-81341007D01*
X113817037Y-81404591D01*
X113184728Y-80772282D01*
X113184727Y-80772282D01*
X113145380Y-80826439D01*
X113048904Y-81015782D01*
X112983242Y-81217869D01*
X112983242Y-81217872D01*
X112950000Y-81427753D01*
X112950000Y-81640246D01*
X112983242Y-81850127D01*
X112983242Y-81850130D01*
X113048904Y-82052217D01*
X113145375Y-82241550D01*
X113184728Y-82295716D01*
X113817037Y-81663408D01*
X113834075Y-81726993D01*
X113899901Y-81841007D01*
X113992993Y-81934099D01*
X114107007Y-81999925D01*
X114170590Y-82016962D01*
X113538282Y-82649269D01*
X113538282Y-82649270D01*
X113592449Y-82688624D01*
X113781782Y-82785095D01*
X113983870Y-82850757D01*
X114193754Y-82884000D01*
X114406246Y-82884000D01*
X114616127Y-82850757D01*
X114616130Y-82850757D01*
X114818217Y-82785095D01*
X115007554Y-82688622D01*
X115061716Y-82649270D01*
X115061717Y-82649270D01*
X114429408Y-82016962D01*
X114492993Y-81999925D01*
X114607007Y-81934099D01*
X114700099Y-81841007D01*
X114765925Y-81726993D01*
X114782962Y-81663408D01*
X115453181Y-82333628D01*
X115486666Y-82394951D01*
X115489500Y-82421300D01*
X115489500Y-82431865D01*
X115489501Y-82431876D01*
X115495908Y-82491483D01*
X115546202Y-82626328D01*
X115546206Y-82626335D01*
X115632452Y-82741544D01*
X115632455Y-82741547D01*
X115747664Y-82827793D01*
X115747671Y-82827797D01*
X115882517Y-82878091D01*
X115882516Y-82878091D01*
X115889444Y-82878835D01*
X115942127Y-82884500D01*
X117737872Y-82884499D01*
X117797483Y-82878091D01*
X117932331Y-82827796D01*
X118047546Y-82741546D01*
X118133796Y-82626331D01*
X118184091Y-82491483D01*
X118189062Y-82445242D01*
X118215799Y-82380694D01*
X118273191Y-82340846D01*
X118312351Y-82334500D01*
X125601060Y-82334500D01*
X125668099Y-82354185D01*
X125688741Y-82370819D01*
X125938681Y-82620759D01*
X125972166Y-82682082D01*
X125975000Y-82708440D01*
X125975000Y-83698722D01*
X125898694Y-83654667D01*
X125784244Y-83624000D01*
X125665756Y-83624000D01*
X125551306Y-83654667D01*
X125475000Y-83698722D01*
X125475000Y-82674000D01*
X124777155Y-82674000D01*
X124717627Y-82680401D01*
X124717620Y-82680403D01*
X124582913Y-82730645D01*
X124582906Y-82730649D01*
X124467812Y-82816809D01*
X124467809Y-82816812D01*
X124381649Y-82931906D01*
X124381645Y-82931913D01*
X124331403Y-83066620D01*
X124331401Y-83066627D01*
X124325000Y-83126155D01*
X124325000Y-83824000D01*
X125349722Y-83824000D01*
X125305667Y-83900306D01*
X125275000Y-84014756D01*
X125275000Y-84133244D01*
X125305667Y-84247694D01*
X125349722Y-84324000D01*
X124325000Y-84324000D01*
X124325000Y-85021844D01*
X124331401Y-85081372D01*
X124331403Y-85081379D01*
X124381645Y-85216086D01*
X124381649Y-85216093D01*
X124467809Y-85331187D01*
X124467812Y-85331190D01*
X124582906Y-85417350D01*
X124582913Y-85417354D01*
X124717620Y-85467596D01*
X124717627Y-85467598D01*
X124777155Y-85473999D01*
X124777172Y-85474000D01*
X125475000Y-85474000D01*
X125475000Y-84449277D01*
X125551306Y-84493333D01*
X125665756Y-84524000D01*
X125784244Y-84524000D01*
X125898694Y-84493333D01*
X125975000Y-84449277D01*
X125975000Y-85474000D01*
X126672828Y-85474000D01*
X126672844Y-85473999D01*
X126732372Y-85467598D01*
X126732379Y-85467596D01*
X126867086Y-85417354D01*
X126867093Y-85417350D01*
X126982187Y-85331190D01*
X126982190Y-85331187D01*
X127068350Y-85216093D01*
X127068354Y-85216086D01*
X127098213Y-85136031D01*
X127140084Y-85080097D01*
X127205548Y-85055680D01*
X127273821Y-85070531D01*
X127302076Y-85091683D01*
X127352636Y-85142243D01*
X127352641Y-85142247D01*
X127508192Y-85255260D01*
X127530978Y-85271815D01*
X127647501Y-85331187D01*
X127727393Y-85371895D01*
X127727396Y-85371896D01*
X127832221Y-85405955D01*
X127937049Y-85440015D01*
X128154778Y-85474500D01*
X128154779Y-85474500D01*
X128375221Y-85474500D01*
X128375222Y-85474500D01*
X128592951Y-85440015D01*
X128802606Y-85371895D01*
X128999022Y-85271815D01*
X129177365Y-85142242D01*
X129333242Y-84986365D01*
X129333244Y-84986361D01*
X129333247Y-84986359D01*
X129377380Y-84925615D01*
X129432709Y-84882949D01*
X129477698Y-84874500D01*
X130121844Y-84874500D01*
X130121845Y-84874499D01*
X130276497Y-84843737D01*
X130389166Y-84797067D01*
X130422172Y-84783397D01*
X130422172Y-84783396D01*
X130422179Y-84783394D01*
X130553289Y-84695789D01*
X139149534Y-76099542D01*
X139210855Y-76066059D01*
X139256606Y-76064752D01*
X139330778Y-76076500D01*
X139330780Y-76076500D01*
X139551221Y-76076500D01*
X139551222Y-76076500D01*
X139768951Y-76042015D01*
X139978606Y-75973895D01*
X140175022Y-75873815D01*
X140353365Y-75744242D01*
X140509242Y-75588365D01*
X140638815Y-75410022D01*
X140738895Y-75213606D01*
X140807015Y-75003951D01*
X140841500Y-74786222D01*
X140841500Y-74565778D01*
X140807015Y-74348049D01*
X140772955Y-74243221D01*
X140738896Y-74138396D01*
X140738895Y-74138393D01*
X140699924Y-74061910D01*
X140638815Y-73941978D01*
X140564838Y-73840157D01*
X140509247Y-73763641D01*
X140509243Y-73763636D01*
X140353364Y-73607757D01*
X140292613Y-73563618D01*
X140249948Y-73508287D01*
X140241500Y-73463301D01*
X140241500Y-65406939D01*
X140261185Y-65339900D01*
X140277814Y-65319263D01*
X144991534Y-60605542D01*
X145052855Y-60572059D01*
X145098606Y-60570752D01*
X145172778Y-60582500D01*
X145172780Y-60582500D01*
X145393221Y-60582500D01*
X145393222Y-60582500D01*
X145610951Y-60548015D01*
X145820606Y-60479895D01*
X146017022Y-60379815D01*
X146195365Y-60250242D01*
X146351242Y-60094365D01*
X146480815Y-59916022D01*
X146580895Y-59719606D01*
X146649015Y-59509951D01*
X146683500Y-59292222D01*
X146683500Y-59071778D01*
X146649015Y-58854049D01*
X146614955Y-58749221D01*
X146580896Y-58644396D01*
X146580895Y-58644393D01*
X146546237Y-58576375D01*
X146480815Y-58447978D01*
X146464260Y-58425192D01*
X146351247Y-58269641D01*
X146351243Y-58269636D01*
X146195364Y-58113757D01*
X146134613Y-58069618D01*
X146091948Y-58014287D01*
X146083500Y-57969301D01*
X146083500Y-51483155D01*
X146083499Y-51483153D01*
X146052738Y-51328510D01*
X146052737Y-51328503D01*
X146052735Y-51328498D01*
X145992397Y-51182827D01*
X145992390Y-51182814D01*
X145904790Y-51051712D01*
X145904789Y-51051711D01*
X145793289Y-50940211D01*
X140610544Y-45757466D01*
X140577059Y-45696143D01*
X140575752Y-45650392D01*
X140587500Y-45576222D01*
X140587500Y-45355778D01*
X140553015Y-45138049D01*
X140518955Y-45033221D01*
X140484896Y-44928396D01*
X140484895Y-44928393D01*
X140423367Y-44807640D01*
X140384815Y-44731978D01*
X140347596Y-44680750D01*
X140255247Y-44553641D01*
X140255243Y-44553636D01*
X140099363Y-44397756D01*
X140099358Y-44397752D01*
X139921025Y-44268187D01*
X139921024Y-44268186D01*
X139921022Y-44268185D01*
X139858096Y-44236122D01*
X139724606Y-44168104D01*
X139724603Y-44168103D01*
X139514952Y-44099985D01*
X139371383Y-44077246D01*
X139297222Y-44065500D01*
X139076778Y-44065500D01*
X139076773Y-44065500D01*
X139002611Y-44077246D01*
X138933317Y-44068291D01*
X138895532Y-44042454D01*
X134617292Y-39764213D01*
X134617288Y-39764210D01*
X134486185Y-39676609D01*
X134486172Y-39676602D01*
X134340501Y-39616264D01*
X134340489Y-39616261D01*
X134185845Y-39585500D01*
X134185842Y-39585500D01*
X133727940Y-39585500D01*
X133660901Y-39565815D01*
X133640259Y-39549181D01*
X130196544Y-36105466D01*
X130163059Y-36044143D01*
X130161752Y-35998392D01*
X130173500Y-35924222D01*
X130173500Y-35703778D01*
X130139015Y-35486049D01*
X130104955Y-35381221D01*
X130070896Y-35276396D01*
X130070895Y-35276393D01*
X130008988Y-35154896D01*
X129970815Y-35079978D01*
X129914375Y-35002294D01*
X129841247Y-34901641D01*
X129841243Y-34901636D01*
X129685363Y-34745756D01*
X129685358Y-34745752D01*
X129507025Y-34616187D01*
X129507024Y-34616186D01*
X129507022Y-34616185D01*
X129444096Y-34584122D01*
X129310606Y-34516104D01*
X129310603Y-34516103D01*
X129100952Y-34447985D01*
X128957383Y-34425246D01*
X128883222Y-34413500D01*
X128662778Y-34413500D01*
X128662773Y-34413500D01*
X128588611Y-34425246D01*
X128519317Y-34416291D01*
X128481532Y-34390454D01*
X124457292Y-30366213D01*
X124457288Y-30366210D01*
X124326185Y-30278609D01*
X124326172Y-30278602D01*
X124180501Y-30218264D01*
X124180489Y-30218261D01*
X124025845Y-30187500D01*
X124025842Y-30187500D01*
X117793698Y-30187500D01*
X117726659Y-30167815D01*
X117693380Y-30136385D01*
X117649247Y-30075640D01*
X117493363Y-29919756D01*
X117493358Y-29919752D01*
X117315025Y-29790187D01*
X117315024Y-29790186D01*
X117315022Y-29790185D01*
X117252096Y-29758122D01*
X117118606Y-29690104D01*
X117118603Y-29690103D01*
X116908952Y-29621985D01*
X116800086Y-29604742D01*
X116691222Y-29587500D01*
X116470778Y-29587500D01*
X116398201Y-29598995D01*
X116253047Y-29621985D01*
X116043396Y-29690103D01*
X116043393Y-29690104D01*
X115846974Y-29790187D01*
X115668641Y-29919752D01*
X115668636Y-29919756D01*
X115618075Y-29970317D01*
X115556752Y-30003801D01*
X115487060Y-29998816D01*
X115431127Y-29956945D01*
X115414213Y-29925968D01*
X115384354Y-29845913D01*
X115384350Y-29845906D01*
X115298190Y-29730812D01*
X115298187Y-29730809D01*
X115183093Y-29644649D01*
X115183086Y-29644645D01*
X115048379Y-29594403D01*
X115048372Y-29594401D01*
X114988844Y-29588000D01*
X114291000Y-29588000D01*
X114291000Y-30612722D01*
X114214694Y-30568667D01*
X114100244Y-30538000D01*
X113981756Y-30538000D01*
X113867306Y-30568667D01*
X113791000Y-30612722D01*
X113791000Y-29588000D01*
X113093155Y-29588000D01*
X113033627Y-29594401D01*
X113033620Y-29594403D01*
X112898913Y-29644645D01*
X112898906Y-29644649D01*
X112783812Y-29730809D01*
X112783809Y-29730812D01*
X112697649Y-29845906D01*
X112697645Y-29845913D01*
X112647403Y-29980620D01*
X112647401Y-29980627D01*
X112641000Y-30040155D01*
X112641000Y-30738000D01*
X113665722Y-30738000D01*
X113621667Y-30814306D01*
X113591000Y-30928756D01*
X113591000Y-31047244D01*
X113621667Y-31161694D01*
X113665722Y-31238000D01*
X112641000Y-31238000D01*
X112641000Y-31935844D01*
X112647401Y-31995372D01*
X112647403Y-31995379D01*
X112697645Y-32130086D01*
X112697649Y-32130093D01*
X112783809Y-32245187D01*
X112783812Y-32245190D01*
X112898906Y-32331350D01*
X112898913Y-32331354D01*
X113033620Y-32381596D01*
X113033627Y-32381598D01*
X113093155Y-32387999D01*
X113093172Y-32388000D01*
X113791000Y-32388000D01*
X113791000Y-31363277D01*
X113867306Y-31407333D01*
X113981756Y-31438000D01*
X114100244Y-31438000D01*
X114214694Y-31407333D01*
X114291000Y-31363277D01*
X114291000Y-32388000D01*
X114988828Y-32388000D01*
X114988844Y-32387999D01*
X115048372Y-32381598D01*
X115048379Y-32381596D01*
X115183086Y-32331354D01*
X115183093Y-32331350D01*
X115298187Y-32245190D01*
X115298190Y-32245187D01*
X115384350Y-32130093D01*
X115384354Y-32130086D01*
X115414213Y-32050031D01*
X115432290Y-32025882D01*
X115448367Y-32000373D01*
X115453010Y-31998202D01*
X115456084Y-31994097D01*
X115484344Y-31983556D01*
X115511663Y-31970787D01*
X115516744Y-31971471D01*
X115521548Y-31969680D01*
X115551023Y-31976091D01*
X115580907Y-31980119D01*
X115586165Y-31983735D01*
X115589821Y-31984531D01*
X115610766Y-31998937D01*
X115614554Y-32002161D01*
X115668635Y-32056242D01*
X115733243Y-32103182D01*
X115736871Y-32106270D01*
X115753513Y-32131668D01*
X115772050Y-32155707D01*
X115773169Y-32161666D01*
X115775164Y-32164711D01*
X115775234Y-32172660D01*
X115780500Y-32200697D01*
X115780500Y-34889500D01*
X115760815Y-34956539D01*
X115708011Y-35002294D01*
X115656500Y-35013500D01*
X105601698Y-35013500D01*
X105534659Y-34993815D01*
X105501380Y-34962385D01*
X105457247Y-34901640D01*
X105301363Y-34745756D01*
X105301358Y-34745752D01*
X105123025Y-34616187D01*
X105123024Y-34616186D01*
X105123022Y-34616185D01*
X105060096Y-34584122D01*
X104926606Y-34516104D01*
X104926603Y-34516103D01*
X104716952Y-34447985D01*
X104573383Y-34425246D01*
X104499222Y-34413500D01*
X104278778Y-34413500D01*
X104206201Y-34424995D01*
X104061047Y-34447985D01*
X103851396Y-34516103D01*
X103851393Y-34516104D01*
X103654974Y-34616187D01*
X103476641Y-34745752D01*
X103476636Y-34745756D01*
X103426075Y-34796317D01*
X103364752Y-34829801D01*
X103295060Y-34824816D01*
X103239127Y-34782945D01*
X103222213Y-34751968D01*
X103192354Y-34671913D01*
X103192350Y-34671906D01*
X103106190Y-34556812D01*
X103106187Y-34556809D01*
X102991093Y-34470649D01*
X102991086Y-34470645D01*
X102856379Y-34420403D01*
X102856372Y-34420401D01*
X102796844Y-34414000D01*
X102099000Y-34414000D01*
X102099000Y-35438722D01*
X102022694Y-35394667D01*
X101908244Y-35364000D01*
X101789756Y-35364000D01*
X101675306Y-35394667D01*
X101599000Y-35438722D01*
X101599000Y-34414000D01*
X100901155Y-34414000D01*
X100841627Y-34420401D01*
X100841620Y-34420403D01*
X100706913Y-34470645D01*
X100706906Y-34470649D01*
X100591812Y-34556809D01*
X100591809Y-34556812D01*
X100505649Y-34671906D01*
X100505645Y-34671913D01*
X100455403Y-34806620D01*
X100455401Y-34806627D01*
X100449000Y-34866155D01*
X100449000Y-35564000D01*
X101473722Y-35564000D01*
X101429667Y-35640306D01*
X101399000Y-35754756D01*
X101399000Y-35873244D01*
X101429667Y-35987694D01*
X101473722Y-36064000D01*
X100449000Y-36064000D01*
X100449000Y-36761844D01*
X100455401Y-36821372D01*
X100455403Y-36821379D01*
X100505645Y-36956086D01*
X100505649Y-36956093D01*
X100591809Y-37071187D01*
X100591812Y-37071190D01*
X100706906Y-37157350D01*
X100706913Y-37157354D01*
X100841620Y-37207596D01*
X100841627Y-37207598D01*
X100901155Y-37213999D01*
X100901172Y-37214000D01*
X101599000Y-37214000D01*
X101599000Y-36189277D01*
X101675306Y-36233333D01*
X101789756Y-36264000D01*
X101908244Y-36264000D01*
X102022694Y-36233333D01*
X102099000Y-36189277D01*
X102099000Y-37214000D01*
X102796828Y-37214000D01*
X102796844Y-37213999D01*
X102856372Y-37207598D01*
X102856379Y-37207596D01*
X102991086Y-37157354D01*
X102991093Y-37157350D01*
X103106187Y-37071190D01*
X103106190Y-37071187D01*
X103192350Y-36956093D01*
X103192354Y-36956086D01*
X103222213Y-36876031D01*
X103240290Y-36851882D01*
X103256367Y-36826373D01*
X103261010Y-36824202D01*
X103264084Y-36820097D01*
X103292344Y-36809556D01*
X103319663Y-36796787D01*
X103324744Y-36797471D01*
X103329548Y-36795680D01*
X103359023Y-36802091D01*
X103388907Y-36806119D01*
X103394165Y-36809735D01*
X103397821Y-36810531D01*
X103418766Y-36824937D01*
X103422554Y-36828161D01*
X103476635Y-36882242D01*
X103541243Y-36929182D01*
X103544871Y-36932270D01*
X103561513Y-36957668D01*
X103580050Y-36981707D01*
X103581169Y-36987666D01*
X103583164Y-36990711D01*
X103583234Y-36998660D01*
X103588500Y-37026697D01*
X103588500Y-39246060D01*
X103568815Y-39313099D01*
X103552181Y-39333741D01*
X98256741Y-44629181D01*
X98195418Y-44662666D01*
X98169060Y-44665500D01*
X95192698Y-44665500D01*
X95125659Y-44645815D01*
X95092380Y-44614385D01*
X95048247Y-44553640D01*
X94892363Y-44397756D01*
X94892358Y-44397752D01*
X94714025Y-44268187D01*
X94714024Y-44268186D01*
X94714022Y-44268185D01*
X94651096Y-44236122D01*
X94517606Y-44168104D01*
X94517603Y-44168103D01*
X94307952Y-44099985D01*
X94164383Y-44077246D01*
X94090222Y-44065500D01*
X93869778Y-44065500D01*
X93797201Y-44076995D01*
X93652047Y-44099985D01*
X93442396Y-44168103D01*
X93442393Y-44168104D01*
X93245974Y-44268187D01*
X93067641Y-44397752D01*
X93067636Y-44397756D01*
X93017075Y-44448317D01*
X92955752Y-44481801D01*
X92886060Y-44476816D01*
X92830127Y-44434945D01*
X92813213Y-44403968D01*
X92783354Y-44323913D01*
X92783350Y-44323906D01*
X92697190Y-44208812D01*
X92697187Y-44208809D01*
X92582093Y-44122649D01*
X92582086Y-44122645D01*
X92447379Y-44072403D01*
X92447372Y-44072401D01*
X92387844Y-44066000D01*
X91690000Y-44066000D01*
X91690000Y-45090722D01*
X91613694Y-45046667D01*
X91499244Y-45016000D01*
X91380756Y-45016000D01*
X91266306Y-45046667D01*
X91190000Y-45090722D01*
X91190000Y-44066000D01*
X90492155Y-44066000D01*
X90432627Y-44072401D01*
X90432620Y-44072403D01*
X90297913Y-44122645D01*
X90297906Y-44122649D01*
X90182812Y-44208809D01*
X90182809Y-44208812D01*
X90096649Y-44323906D01*
X90096645Y-44323913D01*
X90046403Y-44458620D01*
X90046401Y-44458627D01*
X90040000Y-44518155D01*
X90040000Y-45216000D01*
X91064722Y-45216000D01*
X91020667Y-45292306D01*
X90990000Y-45406756D01*
X90990000Y-45525244D01*
X91020667Y-45639694D01*
X91064722Y-45716000D01*
X90040000Y-45716000D01*
X90040000Y-46413844D01*
X90046401Y-46473372D01*
X90046403Y-46473379D01*
X90096645Y-46608086D01*
X90096649Y-46608093D01*
X90182809Y-46723187D01*
X90182812Y-46723190D01*
X90297906Y-46809350D01*
X90297913Y-46809354D01*
X90432620Y-46859596D01*
X90432627Y-46859598D01*
X90492155Y-46865999D01*
X90492172Y-46866000D01*
X91190000Y-46866000D01*
X91190000Y-45841277D01*
X91266306Y-45885333D01*
X91380756Y-45916000D01*
X91499244Y-45916000D01*
X91613694Y-45885333D01*
X91690000Y-45841277D01*
X91690000Y-46866000D01*
X92387828Y-46866000D01*
X92387844Y-46865999D01*
X92447372Y-46859598D01*
X92447379Y-46859596D01*
X92582086Y-46809354D01*
X92582093Y-46809350D01*
X92697187Y-46723190D01*
X92697190Y-46723187D01*
X92783350Y-46608093D01*
X92783354Y-46608086D01*
X92813213Y-46528031D01*
X92831290Y-46503882D01*
X92847367Y-46478373D01*
X92852010Y-46476202D01*
X92855084Y-46472097D01*
X92883344Y-46461556D01*
X92910663Y-46448787D01*
X92915744Y-46449471D01*
X92920548Y-46447680D01*
X92950023Y-46454091D01*
X92979907Y-46458119D01*
X92985165Y-46461735D01*
X92988821Y-46462531D01*
X93009766Y-46476937D01*
X93013554Y-46480161D01*
X93067635Y-46534242D01*
X93132243Y-46581182D01*
X93135871Y-46584270D01*
X93152513Y-46609668D01*
X93171050Y-46633707D01*
X93172169Y-46639666D01*
X93174164Y-46642711D01*
X93174234Y-46650660D01*
X93179500Y-46678697D01*
X93179500Y-52957059D01*
X93159815Y-53024098D01*
X93143181Y-53044740D01*
X88429466Y-57758454D01*
X88368143Y-57791939D01*
X88322387Y-57793246D01*
X88248227Y-57781500D01*
X88248222Y-57781500D01*
X88027778Y-57781500D01*
X87961869Y-57791939D01*
X87810047Y-57815985D01*
X87600396Y-57884103D01*
X87600393Y-57884104D01*
X87403974Y-57984187D01*
X87225641Y-58113752D01*
X87225636Y-58113756D01*
X87175075Y-58164317D01*
X87113752Y-58197801D01*
X87044060Y-58192816D01*
X86988127Y-58150945D01*
X86971213Y-58119968D01*
X86941354Y-58039913D01*
X86941350Y-58039906D01*
X86855190Y-57924812D01*
X86855187Y-57924809D01*
X86740093Y-57838649D01*
X86740086Y-57838645D01*
X86605379Y-57788403D01*
X86605372Y-57788401D01*
X86545844Y-57782000D01*
X85848000Y-57782000D01*
X85848000Y-58806722D01*
X85771694Y-58762667D01*
X85657244Y-58732000D01*
X85538756Y-58732000D01*
X85424306Y-58762667D01*
X85348000Y-58806722D01*
X85348000Y-57782000D01*
X84650155Y-57782000D01*
X84590627Y-57788401D01*
X84590620Y-57788403D01*
X84455913Y-57838645D01*
X84455906Y-57838649D01*
X84340812Y-57924809D01*
X84340809Y-57924812D01*
X84254649Y-58039906D01*
X84254645Y-58039913D01*
X84204403Y-58174620D01*
X84204401Y-58174627D01*
X84198000Y-58234155D01*
X81035648Y-58234155D01*
X81060053Y-57488637D01*
X81060249Y-57484648D01*
X81133934Y-56360418D01*
X81134266Y-56356382D01*
X81244696Y-55235168D01*
X81245147Y-55231250D01*
X81392205Y-54114233D01*
X81392791Y-54110284D01*
X81576323Y-52998646D01*
X81577037Y-52994726D01*
X81796835Y-51889726D01*
X81797666Y-51885877D01*
X82053504Y-50788645D01*
X82054489Y-50784714D01*
X82119446Y-50542291D01*
X82346089Y-49696448D01*
X82347168Y-49692670D01*
X82674238Y-48614462D01*
X82675442Y-48610715D01*
X83037596Y-47543845D01*
X83038953Y-47540055D01*
X83435801Y-46485655D01*
X83437271Y-46481934D01*
X83868429Y-45441028D01*
X83870008Y-45437384D01*
X84334989Y-44411149D01*
X84336713Y-44407506D01*
X84341521Y-44397758D01*
X84835000Y-43397078D01*
X84836844Y-43393491D01*
X85081512Y-42935750D01*
X85367936Y-42399888D01*
X85369850Y-42396443D01*
X85933201Y-41420690D01*
X85935238Y-41417292D01*
X86530194Y-40460525D01*
X86532345Y-40457188D01*
X87158296Y-39520387D01*
X87160560Y-39517116D01*
X87816810Y-38601319D01*
X87819190Y-38598110D01*
X88505050Y-37704282D01*
X88507536Y-37701149D01*
X89222293Y-36830214D01*
X89224835Y-36827217D01*
X89967742Y-35980095D01*
X89970347Y-35977221D01*
X90740567Y-35154865D01*
X90743329Y-35152011D01*
X91540011Y-34355329D01*
X91542865Y-34352567D01*
X92365192Y-33582374D01*
X92368096Y-33579742D01*
X93215217Y-32836835D01*
X93218214Y-32834293D01*
X94089149Y-32119536D01*
X94092282Y-32117050D01*
X94986110Y-31431190D01*
X94989319Y-31428810D01*
X95905116Y-30772560D01*
X95908387Y-30770296D01*
X96845188Y-30144345D01*
X96848525Y-30142194D01*
X97805292Y-29547238D01*
X97808690Y-29545201D01*
X98784443Y-28981850D01*
X98787888Y-28979936D01*
X99781512Y-28448832D01*
X99785078Y-28447000D01*
X100795530Y-27948701D01*
X100799149Y-27946989D01*
X101825384Y-27482008D01*
X101829028Y-27480429D01*
X102869934Y-27049271D01*
X102873655Y-27047801D01*
X103928067Y-26650948D01*
X103931845Y-26649596D01*
X104998715Y-26287442D01*
X105002462Y-26286238D01*
X106080670Y-25959168D01*
X106084448Y-25958089D01*
X107172720Y-25666487D01*
X107176651Y-25665503D01*
X108273877Y-25409666D01*
X108277726Y-25408835D01*
X109382726Y-25189037D01*
X109386646Y-25188323D01*
X110498284Y-25004791D01*
X110502233Y-25004205D01*
X111619250Y-24857147D01*
X111623168Y-24856696D01*
X112744390Y-24746265D01*
X112748418Y-24745934D01*
X113872648Y-24672249D01*
X113876637Y-24672053D01*
X115002662Y-24635191D01*
X115006719Y-24635125D01*
X116133281Y-24635125D01*
X116137338Y-24635191D01*
G37*
%TD.AperFunction*%
%TD*%
M02*
