M48
; DRILL file {KiCad 9.0.2} date 2026-01-09T09:23:59+0100
; FORMAT={-:-/ absolute / metric / decimal}
; #@! TF.CreationDate,2026-01-09T09:23:59+01:00
; #@! TF.GenerationSoftware,Kicad,Pcbnew,9.0.2
; #@! TF.FileFunction,Plated,1,2,PTH
FMAT,2
METRIC
; #@! TA.AperFunction,Plated,PTH,ComponentDrill
T1C0.900
; #@! TA.AperFunction,Plated,PTH,ComponentDrill
T2C1.000
%
G90
G05
T1
X85.598Y-59.182
X88.138Y-59.182
X91.44Y-45.466
X91.44Y-74.422
X93.98Y-45.466
X93.98Y-74.422
X101.849Y-35.814
X101.849Y-55.118
X102.865Y-84.074
X104.389Y-35.814
X104.389Y-55.118
X105.405Y-84.074
X107.691Y-68.58
X110.231Y-68.58
X114.041Y-30.988
X114.041Y-45.72
X116.581Y-30.988
X116.581Y-45.72
X120.137Y-68.834
X122.677Y-68.834
X125.725Y-55.118
X125.725Y-84.074
X126.233Y-35.814
X128.265Y-55.118
X128.265Y-84.074
X128.773Y-35.814
X136.647Y-45.466
X136.901Y-74.676
X139.187Y-45.466
X139.441Y-74.676
X142.743Y-59.182
X145.283Y-59.182
T2
X114.3Y-81.534
X116.84Y-81.534
M30
