M48
; DRILL file {KiCad 9.0.2} date 2025-10-03T08:34:13+0200
; FORMAT={-:-/ absolute / metric / decimal}
; #@! TF.CreationDate,2025-10-03T08:34:13+02:00
; #@! TF.GenerationSoftware,Kicad,Pcbnew,9.0.2
; #@! TF.FileFunction,Plated,1,2,PTH
FMAT,2
METRIC
; #@! TA.AperFunction,Plated,PTH,ComponentDrill
T1C0.800
; #@! TA.AperFunction,Plated,PTH,ComponentDrill
T2C0.900
; #@! TA.AperFunction,Plated,PTH,ComponentDrill
T3C1.000
%
G90
G05
T1
X69.088Y-57.404
X69.088Y-67.564
T2
X76.708Y-55.377
X76.708Y-57.917
X83.566Y-67.569
X83.566Y-70.109
X90.17Y-55.377
X90.17Y-57.917
X96.774Y-67.569
X96.774Y-70.109
X103.632Y-55.377
X103.632Y-57.917
X110.49Y-67.569
X110.49Y-70.109
X117.094Y-55.377
X117.094Y-57.917
X123.952Y-67.569
X123.952Y-70.109
X130.556Y-55.377
X130.556Y-57.917
X137.414Y-67.569
X137.414Y-70.109
X144.018Y-55.372
X144.018Y-57.912
X150.876Y-67.569
X150.876Y-70.109
X157.48Y-55.377
X157.48Y-57.917
X164.338Y-67.569
X164.338Y-70.109
X170.942Y-55.372
X170.942Y-57.912
X177.8Y-67.569
X177.8Y-70.109
T3
X62.992Y-61.209
X62.992Y-63.749
M30
