%TF.GenerationSoftware,KiCad,Pcbnew,9.0.2*%
%TF.CreationDate,2025-10-03T08:34:23+02:00*%
%TF.ProjectId,led_print,6c65645f-7072-4696-9e74-2e6b69636164,rev?*%
%TF.SameCoordinates,Original*%
%TF.FileFunction,Copper,L1,Top*%
%TF.FilePolarity,Positive*%
%FSLAX46Y46*%
G04 Gerber Fmt 4.6, Leading zero omitted, Abs format (unit mm)*
G04 Created by KiCad (PCBNEW 9.0.2) date 2025-10-03 08:34:23*
%MOMM*%
%LPD*%
G01*
G04 APERTURE LIST*
%ADD10C,0.300000*%
%TA.AperFunction,ComponentPad*%
%ADD11R,1.800000X1.800000*%
%TD*%
%TA.AperFunction,ComponentPad*%
%ADD12C,1.800000*%
%TD*%
%TA.AperFunction,ComponentPad*%
%ADD13C,1.600000*%
%TD*%
%TA.AperFunction,ComponentPad*%
%ADD14R,1.700000X1.700000*%
%TD*%
%TA.AperFunction,ComponentPad*%
%ADD15C,1.700000*%
%TD*%
%TA.AperFunction,Conductor*%
%ADD16C,0.600000*%
%TD*%
G04 APERTURE END LIST*
D10*
G36*
X86593153Y-65392613D02*
G01*
X84822725Y-65392613D01*
X84822725Y-64478136D01*
X84989392Y-64478136D01*
X84989392Y-64536664D01*
X85011790Y-64590736D01*
X85053174Y-64632120D01*
X85107246Y-64654518D01*
X85136510Y-64657400D01*
X85557939Y-64657400D01*
X85557939Y-65078828D01*
X85560821Y-65108092D01*
X85583219Y-65162164D01*
X85624603Y-65203548D01*
X85678675Y-65225946D01*
X85737203Y-65225946D01*
X85791275Y-65203548D01*
X85832659Y-65162164D01*
X85855057Y-65108092D01*
X85857939Y-65078828D01*
X85857939Y-64657400D01*
X86279368Y-64657400D01*
X86308632Y-64654518D01*
X86362704Y-64632120D01*
X86404088Y-64590736D01*
X86426486Y-64536664D01*
X86426486Y-64478136D01*
X86404088Y-64424064D01*
X86362704Y-64382680D01*
X86308632Y-64360282D01*
X86279368Y-64357400D01*
X85857939Y-64357400D01*
X85857939Y-63935971D01*
X85855057Y-63906707D01*
X85832659Y-63852635D01*
X85791275Y-63811251D01*
X85737203Y-63788853D01*
X85678675Y-63788853D01*
X85624603Y-63811251D01*
X85583219Y-63852635D01*
X85560821Y-63906707D01*
X85557939Y-63935971D01*
X85557939Y-64357400D01*
X85136510Y-64357400D01*
X85107246Y-64360282D01*
X85053174Y-64382680D01*
X85011790Y-64424064D01*
X84989392Y-64478136D01*
X84822725Y-64478136D01*
X84822725Y-63622186D01*
X86593153Y-63622186D01*
X86593153Y-65392613D01*
G37*
G36*
X86593153Y-73206067D02*
G01*
X84822725Y-73206067D01*
X84822725Y-72860136D01*
X84989392Y-72860136D01*
X84989392Y-72918664D01*
X85011790Y-72972736D01*
X85053174Y-73014120D01*
X85107246Y-73036518D01*
X85136510Y-73039400D01*
X86279368Y-73039400D01*
X86308632Y-73036518D01*
X86362704Y-73014120D01*
X86404088Y-72972736D01*
X86426486Y-72918664D01*
X86426486Y-72860136D01*
X86404088Y-72806064D01*
X86362704Y-72764680D01*
X86308632Y-72742282D01*
X86279368Y-72739400D01*
X85136510Y-72739400D01*
X85107246Y-72742282D01*
X85053174Y-72764680D01*
X85011790Y-72806064D01*
X84989392Y-72860136D01*
X84822725Y-72860136D01*
X84822725Y-72572733D01*
X86593153Y-72572733D01*
X86593153Y-73206067D01*
G37*
G36*
X79735153Y-61014067D02*
G01*
X77964725Y-61014067D01*
X77964725Y-60668136D01*
X78131392Y-60668136D01*
X78131392Y-60726664D01*
X78153790Y-60780736D01*
X78195174Y-60822120D01*
X78249246Y-60844518D01*
X78278510Y-60847400D01*
X79421368Y-60847400D01*
X79450632Y-60844518D01*
X79504704Y-60822120D01*
X79546088Y-60780736D01*
X79568486Y-60726664D01*
X79568486Y-60668136D01*
X79546088Y-60614064D01*
X79504704Y-60572680D01*
X79450632Y-60550282D01*
X79421368Y-60547400D01*
X78278510Y-60547400D01*
X78249246Y-60550282D01*
X78195174Y-60572680D01*
X78153790Y-60614064D01*
X78131392Y-60668136D01*
X77964725Y-60668136D01*
X77964725Y-60380733D01*
X79735153Y-60380733D01*
X79735153Y-61014067D01*
G37*
G36*
X79735153Y-53200613D02*
G01*
X77964725Y-53200613D01*
X77964725Y-52286136D01*
X78131392Y-52286136D01*
X78131392Y-52344664D01*
X78153790Y-52398736D01*
X78195174Y-52440120D01*
X78249246Y-52462518D01*
X78278510Y-52465400D01*
X78699939Y-52465400D01*
X78699939Y-52886828D01*
X78702821Y-52916092D01*
X78725219Y-52970164D01*
X78766603Y-53011548D01*
X78820675Y-53033946D01*
X78879203Y-53033946D01*
X78933275Y-53011548D01*
X78974659Y-52970164D01*
X78997057Y-52916092D01*
X78999939Y-52886828D01*
X78999939Y-52465400D01*
X79421368Y-52465400D01*
X79450632Y-52462518D01*
X79504704Y-52440120D01*
X79546088Y-52398736D01*
X79568486Y-52344664D01*
X79568486Y-52286136D01*
X79546088Y-52232064D01*
X79504704Y-52190680D01*
X79450632Y-52168282D01*
X79421368Y-52165400D01*
X78999939Y-52165400D01*
X78999939Y-51743971D01*
X78997057Y-51714707D01*
X78974659Y-51660635D01*
X78933275Y-51619251D01*
X78879203Y-51596853D01*
X78820675Y-51596853D01*
X78766603Y-51619251D01*
X78725219Y-51660635D01*
X78702821Y-51714707D01*
X78699939Y-51743971D01*
X78699939Y-52165400D01*
X78278510Y-52165400D01*
X78249246Y-52168282D01*
X78195174Y-52190680D01*
X78153790Y-52232064D01*
X78131392Y-52286136D01*
X77964725Y-52286136D01*
X77964725Y-51430186D01*
X79735153Y-51430186D01*
X79735153Y-53200613D01*
G37*
D11*
%TO.P,D7,1,K*%
%TO.N,GND*%
X117094000Y-57917000D03*
D12*
%TO.P,D7,2,A*%
%TO.N,Net-(D1-A)*%
X117094000Y-55377000D03*
%TD*%
D11*
%TO.P,D1,1,K*%
%TO.N,GND*%
X76708000Y-57917000D03*
D12*
%TO.P,D1,2,A*%
%TO.N,Net-(D1-A)*%
X76708000Y-55377000D03*
%TD*%
D11*
%TO.P,D15,1,K*%
%TO.N,GND*%
X170942000Y-57912000D03*
D12*
%TO.P,D15,2,A*%
%TO.N,Net-(D1-A)*%
X170942000Y-55372000D03*
%TD*%
D11*
%TO.P,D2,1,K*%
%TO.N,GND*%
X177800000Y-70109000D03*
D12*
%TO.P,D2,2,A*%
%TO.N,Net-(D1-A)*%
X177800000Y-67569000D03*
%TD*%
D13*
%TO.P,R1,1*%
%TO.N,Net-(D1-A)*%
X69088000Y-57404000D03*
%TO.P,R1,2*%
%TO.N,GND*%
X69088000Y-67564000D03*
%TD*%
D14*
%TO.P,J1,1,Pin_1*%
%TO.N,Net-(D1-A)*%
X62992000Y-61209000D03*
D15*
%TO.P,J1,2,Pin_2*%
%TO.N,GND*%
X62992000Y-63749000D03*
%TD*%
D11*
%TO.P,D14,1,K*%
%TO.N,GND*%
X96774000Y-70109000D03*
D12*
%TO.P,D14,2,A*%
%TO.N,Net-(D1-A)*%
X96774000Y-67569000D03*
%TD*%
D11*
%TO.P,D12,1,K*%
%TO.N,GND*%
X110490000Y-70109000D03*
D12*
%TO.P,D12,2,A*%
%TO.N,Net-(D1-A)*%
X110490000Y-67569000D03*
%TD*%
D11*
%TO.P,D4,1,K*%
%TO.N,GND*%
X164338000Y-70109000D03*
D12*
%TO.P,D4,2,A*%
%TO.N,Net-(D1-A)*%
X164338000Y-67569000D03*
%TD*%
D11*
%TO.P,D3,1,K*%
%TO.N,GND*%
X90170000Y-57917000D03*
D12*
%TO.P,D3,2,A*%
%TO.N,Net-(D1-A)*%
X90170000Y-55377000D03*
%TD*%
D11*
%TO.P,D16,1,K*%
%TO.N,GND*%
X83566000Y-70109000D03*
D12*
%TO.P,D16,2,A*%
%TO.N,Net-(D1-A)*%
X83566000Y-67569000D03*
%TD*%
D11*
%TO.P,D8,1,K*%
%TO.N,GND*%
X137414000Y-70109000D03*
D12*
%TO.P,D8,2,A*%
%TO.N,Net-(D1-A)*%
X137414000Y-67569000D03*
%TD*%
D11*
%TO.P,D6,1,K*%
%TO.N,GND*%
X150876000Y-70109000D03*
D12*
%TO.P,D6,2,A*%
%TO.N,Net-(D1-A)*%
X150876000Y-67569000D03*
%TD*%
D11*
%TO.P,D10,1,K*%
%TO.N,GND*%
X123952000Y-70109000D03*
D12*
%TO.P,D10,2,A*%
%TO.N,Net-(D1-A)*%
X123952000Y-67569000D03*
%TD*%
D11*
%TO.P,D13,1,K*%
%TO.N,GND*%
X157480000Y-57917000D03*
D12*
%TO.P,D13,2,A*%
%TO.N,Net-(D1-A)*%
X157480000Y-55377000D03*
%TD*%
D11*
%TO.P,D9,1,K*%
%TO.N,GND*%
X130556000Y-57917000D03*
D12*
%TO.P,D9,2,A*%
%TO.N,Net-(D1-A)*%
X130556000Y-55377000D03*
%TD*%
D11*
%TO.P,D11,1,K*%
%TO.N,GND*%
X144018000Y-57912000D03*
D12*
%TO.P,D11,2,A*%
%TO.N,Net-(D1-A)*%
X144018000Y-55372000D03*
%TD*%
D11*
%TO.P,D5,1,K*%
%TO.N,GND*%
X103632000Y-57917000D03*
D12*
%TO.P,D5,2,A*%
%TO.N,Net-(D1-A)*%
X103632000Y-55377000D03*
%TD*%
D16*
%TO.N,Net-(D1-A)*%
X71115000Y-55377000D02*
X69088000Y-57404000D01*
X76708000Y-55377000D02*
X71115000Y-55377000D01*
X65283000Y-61209000D02*
X62992000Y-61209000D01*
X69088000Y-57404000D02*
X65283000Y-61209000D01*
X144018000Y-55372000D02*
X144023000Y-55377000D01*
X117094000Y-55377000D02*
X130556000Y-55377000D01*
X144013000Y-55377000D02*
X144018000Y-55372000D01*
X150876000Y-67569000D02*
X164338000Y-67569000D01*
X110490000Y-67569000D02*
X123952000Y-67569000D01*
X90170000Y-55377000D02*
X103632000Y-55377000D01*
X83566000Y-67569000D02*
X96774000Y-67569000D01*
X96774000Y-67569000D02*
X110490000Y-67569000D01*
X170937000Y-55377000D02*
X170942000Y-55372000D01*
X157480000Y-55377000D02*
X170937000Y-55377000D01*
X130556000Y-55377000D02*
X144013000Y-55377000D01*
X164338000Y-67569000D02*
X177800000Y-67569000D01*
X150876000Y-67569000D02*
X137414000Y-67569000D01*
X123952000Y-67569000D02*
X137414000Y-67569000D01*
X173736000Y-55372000D02*
X177800000Y-59436000D01*
X103632000Y-55377000D02*
X117094000Y-55377000D01*
X76708000Y-55377000D02*
X90170000Y-55377000D01*
X170942000Y-55372000D02*
X173736000Y-55372000D01*
X177800000Y-59436000D02*
X177800000Y-67569000D01*
X144023000Y-55377000D02*
X157480000Y-55377000D01*
%TD*%
%TA.AperFunction,Conductor*%
%TO.N,GND*%
G36*
X182169736Y-50284726D02*
G01*
X182459796Y-50302271D01*
X182474659Y-50304076D01*
X182756798Y-50355780D01*
X182771335Y-50359363D01*
X183045172Y-50444695D01*
X183059163Y-50450000D01*
X183320743Y-50567727D01*
X183333989Y-50574680D01*
X183579465Y-50723075D01*
X183591776Y-50731573D01*
X183817573Y-50908473D01*
X183828781Y-50918403D01*
X184031596Y-51121218D01*
X184041526Y-51132426D01*
X184161481Y-51285538D01*
X184218422Y-51358217D01*
X184226928Y-51370540D01*
X184375316Y-51616004D01*
X184382275Y-51629263D01*
X184499997Y-51890831D01*
X184505306Y-51904832D01*
X184590635Y-52178663D01*
X184594219Y-52193201D01*
X184645923Y-52475340D01*
X184647728Y-52490205D01*
X184665274Y-52780263D01*
X184665500Y-52787750D01*
X184665500Y-72434249D01*
X184665274Y-72441736D01*
X184647728Y-72731794D01*
X184645923Y-72746659D01*
X184594219Y-73028798D01*
X184590635Y-73043336D01*
X184505306Y-73317167D01*
X184499997Y-73331168D01*
X184382275Y-73592736D01*
X184375316Y-73605995D01*
X184226928Y-73851459D01*
X184218422Y-73863782D01*
X184041526Y-74089573D01*
X184031596Y-74100781D01*
X183828781Y-74303596D01*
X183817573Y-74313526D01*
X183591782Y-74490422D01*
X183579459Y-74498928D01*
X183333995Y-74647316D01*
X183320736Y-74654275D01*
X183059168Y-74771997D01*
X183045167Y-74777306D01*
X182771336Y-74862635D01*
X182756798Y-74866219D01*
X182474659Y-74917923D01*
X182459794Y-74919728D01*
X182169736Y-74937274D01*
X182162249Y-74937500D01*
X63201751Y-74937500D01*
X63194264Y-74937274D01*
X62904205Y-74919728D01*
X62889340Y-74917923D01*
X62607201Y-74866219D01*
X62592663Y-74862635D01*
X62318832Y-74777306D01*
X62304831Y-74771997D01*
X62043263Y-74654275D01*
X62030004Y-74647316D01*
X61784540Y-74498928D01*
X61772217Y-74490422D01*
X61546426Y-74313526D01*
X61535218Y-74303596D01*
X61332403Y-74100781D01*
X61322473Y-74089573D01*
X61145573Y-73863776D01*
X61137075Y-73851465D01*
X60988680Y-73605989D01*
X60981727Y-73592743D01*
X60864000Y-73331163D01*
X60858693Y-73317167D01*
X60773696Y-73044400D01*
X84981510Y-73044400D01*
X86434368Y-73044400D01*
X86434368Y-72734400D01*
X84981510Y-72734400D01*
X84981510Y-73044400D01*
X60773696Y-73044400D01*
X60773364Y-73043336D01*
X60769780Y-73028798D01*
X60718076Y-72746659D01*
X60716271Y-72731793D01*
X60713775Y-72690524D01*
X60698726Y-72441736D01*
X60698500Y-72434249D01*
X60698500Y-67461682D01*
X67788000Y-67461682D01*
X67788000Y-67666317D01*
X67820009Y-67868417D01*
X67883244Y-68063031D01*
X67976141Y-68245350D01*
X67976147Y-68245359D01*
X68008523Y-68289921D01*
X68008524Y-68289922D01*
X68688000Y-67610446D01*
X68688000Y-67616661D01*
X68715259Y-67718394D01*
X68767920Y-67809606D01*
X68842394Y-67884080D01*
X68933606Y-67936741D01*
X69035339Y-67964000D01*
X69041553Y-67964000D01*
X68362076Y-68643474D01*
X68406650Y-68675859D01*
X68588968Y-68768755D01*
X68783582Y-68831990D01*
X68985683Y-68864000D01*
X69190317Y-68864000D01*
X69392417Y-68831990D01*
X69587031Y-68768755D01*
X69769349Y-68675859D01*
X69813921Y-68643474D01*
X69134447Y-67964000D01*
X69140661Y-67964000D01*
X69242394Y-67936741D01*
X69333606Y-67884080D01*
X69408080Y-67809606D01*
X69460741Y-67718394D01*
X69488000Y-67616661D01*
X69488000Y-67610447D01*
X70167474Y-68289921D01*
X70199859Y-68245349D01*
X70292755Y-68063031D01*
X70355990Y-67868417D01*
X70388000Y-67666317D01*
X70388000Y-67461682D01*
X70355990Y-67259582D01*
X70292755Y-67064968D01*
X70199859Y-66882650D01*
X70167474Y-66838077D01*
X70167474Y-66838076D01*
X69488000Y-67517551D01*
X69488000Y-67511339D01*
X69460741Y-67409606D01*
X69408080Y-67318394D01*
X69333606Y-67243920D01*
X69242394Y-67191259D01*
X69140661Y-67164000D01*
X69134446Y-67164000D01*
X69813922Y-66484524D01*
X69813921Y-66484523D01*
X69769359Y-66452147D01*
X69769350Y-66452141D01*
X69587031Y-66359244D01*
X69392417Y-66296009D01*
X69190317Y-66264000D01*
X68985683Y-66264000D01*
X68783582Y-66296009D01*
X68588968Y-66359244D01*
X68406644Y-66452143D01*
X68362077Y-66484523D01*
X68362077Y-66484524D01*
X69041554Y-67164000D01*
X69035339Y-67164000D01*
X68933606Y-67191259D01*
X68842394Y-67243920D01*
X68767920Y-67318394D01*
X68715259Y-67409606D01*
X68688000Y-67511339D01*
X68688000Y-67517553D01*
X68008524Y-66838077D01*
X68008523Y-66838077D01*
X67976143Y-66882644D01*
X67883244Y-67064968D01*
X67820009Y-67259582D01*
X67788000Y-67461682D01*
X60698500Y-67461682D01*
X60698500Y-65233828D01*
X84981510Y-65233828D01*
X86434368Y-65233828D01*
X86434368Y-63780971D01*
X84981510Y-63780971D01*
X84981510Y-65233828D01*
X60698500Y-65233828D01*
X60698500Y-60311135D01*
X61641500Y-60311135D01*
X61641500Y-62106870D01*
X61641501Y-62106876D01*
X61647908Y-62166483D01*
X61698202Y-62301328D01*
X61698206Y-62301335D01*
X61784452Y-62416544D01*
X61784455Y-62416547D01*
X61899664Y-62502793D01*
X61899671Y-62502797D01*
X61944618Y-62519561D01*
X62034517Y-62553091D01*
X62094127Y-62559500D01*
X62104685Y-62559499D01*
X62171723Y-62579179D01*
X62192372Y-62595818D01*
X62862591Y-63266037D01*
X62799007Y-63283075D01*
X62684993Y-63348901D01*
X62591901Y-63441993D01*
X62526075Y-63556007D01*
X62509037Y-63619591D01*
X61876728Y-62987282D01*
X61876727Y-62987282D01*
X61837380Y-63041439D01*
X61740904Y-63230782D01*
X61675242Y-63432869D01*
X61675242Y-63432872D01*
X61642000Y-63642753D01*
X61642000Y-63855246D01*
X61675242Y-64065127D01*
X61675242Y-64065130D01*
X61740904Y-64267217D01*
X61837375Y-64456550D01*
X61876728Y-64510716D01*
X62509037Y-63878408D01*
X62526075Y-63941993D01*
X62591901Y-64056007D01*
X62684993Y-64149099D01*
X62799007Y-64214925D01*
X62862590Y-64231962D01*
X62230282Y-64864269D01*
X62230282Y-64864270D01*
X62284449Y-64903624D01*
X62473782Y-65000095D01*
X62675870Y-65065757D01*
X62885754Y-65099000D01*
X63098246Y-65099000D01*
X63308127Y-65065757D01*
X63308130Y-65065757D01*
X63510217Y-65000095D01*
X63699554Y-64903622D01*
X63753716Y-64864270D01*
X63753717Y-64864270D01*
X63121408Y-64231962D01*
X63184993Y-64214925D01*
X63299007Y-64149099D01*
X63392099Y-64056007D01*
X63457925Y-63941993D01*
X63474962Y-63878408D01*
X64107270Y-64510717D01*
X64107270Y-64510716D01*
X64146622Y-64456554D01*
X64243095Y-64267217D01*
X64308757Y-64065130D01*
X64308757Y-64065127D01*
X64342000Y-63855246D01*
X64342000Y-63642753D01*
X64308757Y-63432872D01*
X64308757Y-63432869D01*
X64243095Y-63230782D01*
X64146624Y-63041449D01*
X64107270Y-62987282D01*
X64107269Y-62987282D01*
X63474962Y-63619590D01*
X63457925Y-63556007D01*
X63392099Y-63441993D01*
X63299007Y-63348901D01*
X63184993Y-63283075D01*
X63121409Y-63266037D01*
X63791627Y-62595818D01*
X63852950Y-62562333D01*
X63879307Y-62559499D01*
X63889872Y-62559499D01*
X63949483Y-62553091D01*
X64084331Y-62502796D01*
X64199546Y-62416546D01*
X64285796Y-62301331D01*
X64336091Y-62166483D01*
X64341062Y-62120242D01*
X64367799Y-62055694D01*
X64425191Y-62015846D01*
X64464351Y-62009500D01*
X65361844Y-62009500D01*
X65361845Y-62009499D01*
X65516497Y-61978737D01*
X65662179Y-61918394D01*
X65793289Y-61830789D01*
X66771678Y-60852400D01*
X78123510Y-60852400D01*
X79576368Y-60852400D01*
X79576368Y-60542400D01*
X78123510Y-60542400D01*
X78123510Y-60852400D01*
X66771678Y-60852400D01*
X67372561Y-60251517D01*
X68454890Y-59169187D01*
X68883978Y-58740098D01*
X68945299Y-58706615D01*
X68981404Y-58704165D01*
X68985643Y-58704499D01*
X68985648Y-58704500D01*
X68985653Y-58704500D01*
X69190351Y-58704500D01*
X69190352Y-58704500D01*
X69392534Y-58672477D01*
X69587219Y-58609220D01*
X69769610Y-58516287D01*
X69862590Y-58448732D01*
X69935213Y-58395971D01*
X69935215Y-58395968D01*
X69935219Y-58395966D01*
X70079966Y-58251219D01*
X70079968Y-58251215D01*
X70079971Y-58251213D01*
X70200286Y-58085611D01*
X70213672Y-58059342D01*
X70293218Y-57903223D01*
X70293218Y-57903222D01*
X70293220Y-57903219D01*
X70356477Y-57708534D01*
X70388500Y-57506352D01*
X70388500Y-57301648D01*
X70388499Y-57301644D01*
X70388165Y-57297404D01*
X70402519Y-57229024D01*
X70424096Y-57199980D01*
X71410259Y-56213819D01*
X71471582Y-56180334D01*
X71497940Y-56177500D01*
X75495302Y-56177500D01*
X75495849Y-56177660D01*
X75496398Y-56177505D01*
X75529359Y-56187500D01*
X75562341Y-56197185D01*
X75562896Y-56197670D01*
X75563261Y-56197781D01*
X75565910Y-56200305D01*
X75589729Y-56221129D01*
X75592823Y-56224764D01*
X75639758Y-56289365D01*
X75693837Y-56343444D01*
X75697062Y-56347233D01*
X75709347Y-56374777D01*
X75723801Y-56401246D01*
X75723435Y-56406360D01*
X75725524Y-56411043D01*
X75720968Y-56440856D01*
X75718817Y-56470938D01*
X75715744Y-56475042D01*
X75714970Y-56480110D01*
X75695018Y-56502728D01*
X75676945Y-56526871D01*
X75670727Y-56530265D01*
X75668750Y-56532508D01*
X75664313Y-56533768D01*
X75645969Y-56543785D01*
X75565918Y-56573643D01*
X75565906Y-56573649D01*
X75450812Y-56659809D01*
X75450809Y-56659812D01*
X75364649Y-56774906D01*
X75364645Y-56774913D01*
X75314403Y-56909620D01*
X75314401Y-56909627D01*
X75308000Y-56969155D01*
X75308000Y-57667000D01*
X76332722Y-57667000D01*
X76288667Y-57743306D01*
X76258000Y-57857756D01*
X76258000Y-57976244D01*
X76288667Y-58090694D01*
X76332722Y-58167000D01*
X75308000Y-58167000D01*
X75308000Y-58864844D01*
X75314401Y-58924372D01*
X75314403Y-58924379D01*
X75364645Y-59059086D01*
X75364649Y-59059093D01*
X75450809Y-59174187D01*
X75450812Y-59174190D01*
X75565906Y-59260350D01*
X75565913Y-59260354D01*
X75700620Y-59310596D01*
X75700627Y-59310598D01*
X75760155Y-59316999D01*
X75760172Y-59317000D01*
X76458000Y-59317000D01*
X76458000Y-58292277D01*
X76534306Y-58336333D01*
X76648756Y-58367000D01*
X76767244Y-58367000D01*
X76881694Y-58336333D01*
X76958000Y-58292277D01*
X76958000Y-59317000D01*
X77655828Y-59317000D01*
X77655844Y-59316999D01*
X77715372Y-59310598D01*
X77715379Y-59310596D01*
X77850086Y-59260354D01*
X77850093Y-59260350D01*
X77965187Y-59174190D01*
X77965190Y-59174187D01*
X78051350Y-59059093D01*
X78051354Y-59059086D01*
X78101596Y-58924379D01*
X78101598Y-58924372D01*
X78107999Y-58864844D01*
X78108000Y-58864827D01*
X78108000Y-58167000D01*
X77083278Y-58167000D01*
X77127333Y-58090694D01*
X77158000Y-57976244D01*
X77158000Y-57857756D01*
X77127333Y-57743306D01*
X77083278Y-57667000D01*
X78108000Y-57667000D01*
X78108000Y-56969172D01*
X78107999Y-56969155D01*
X78101598Y-56909627D01*
X78101596Y-56909620D01*
X78051354Y-56774913D01*
X78051350Y-56774906D01*
X77965190Y-56659812D01*
X77965187Y-56659809D01*
X77850093Y-56573649D01*
X77850087Y-56573646D01*
X77770030Y-56543786D01*
X77745882Y-56525709D01*
X77720372Y-56509631D01*
X77718201Y-56504986D01*
X77714097Y-56501914D01*
X77703558Y-56473658D01*
X77690787Y-56446335D01*
X77691471Y-56441253D01*
X77689680Y-56436450D01*
X77696090Y-56406979D01*
X77700119Y-56377091D01*
X77703737Y-56371830D01*
X77704532Y-56368177D01*
X77718937Y-56347232D01*
X77722150Y-56343456D01*
X77776242Y-56289365D01*
X77823181Y-56224757D01*
X77826271Y-56221128D01*
X77851670Y-56204486D01*
X77875709Y-56185949D01*
X77881670Y-56184829D01*
X77884713Y-56182836D01*
X77892658Y-56182765D01*
X77920698Y-56177500D01*
X88957302Y-56177500D01*
X89024341Y-56197185D01*
X89057620Y-56228615D01*
X89101752Y-56289359D01*
X89152316Y-56339923D01*
X89185801Y-56401246D01*
X89180817Y-56470938D01*
X89138945Y-56526871D01*
X89107969Y-56543785D01*
X89027918Y-56573643D01*
X89027906Y-56573649D01*
X88912812Y-56659809D01*
X88912809Y-56659812D01*
X88826649Y-56774906D01*
X88826645Y-56774913D01*
X88776403Y-56909620D01*
X88776401Y-56909627D01*
X88770000Y-56969155D01*
X88770000Y-57667000D01*
X89794722Y-57667000D01*
X89750667Y-57743306D01*
X89720000Y-57857756D01*
X89720000Y-57976244D01*
X89750667Y-58090694D01*
X89794722Y-58167000D01*
X88770000Y-58167000D01*
X88770000Y-58864844D01*
X88776401Y-58924372D01*
X88776403Y-58924379D01*
X88826645Y-59059086D01*
X88826649Y-59059093D01*
X88912809Y-59174187D01*
X88912812Y-59174190D01*
X89027906Y-59260350D01*
X89027913Y-59260354D01*
X89162620Y-59310596D01*
X89162627Y-59310598D01*
X89222155Y-59316999D01*
X89222172Y-59317000D01*
X89920000Y-59317000D01*
X89920000Y-58292277D01*
X89996306Y-58336333D01*
X90110756Y-58367000D01*
X90229244Y-58367000D01*
X90343694Y-58336333D01*
X90420000Y-58292277D01*
X90420000Y-59317000D01*
X91117828Y-59317000D01*
X91117844Y-59316999D01*
X91177372Y-59310598D01*
X91177379Y-59310596D01*
X91312086Y-59260354D01*
X91312093Y-59260350D01*
X91427187Y-59174190D01*
X91427190Y-59174187D01*
X91513350Y-59059093D01*
X91513354Y-59059086D01*
X91563596Y-58924379D01*
X91563598Y-58924372D01*
X91569999Y-58864844D01*
X91570000Y-58864827D01*
X91570000Y-58167000D01*
X90545278Y-58167000D01*
X90589333Y-58090694D01*
X90620000Y-57976244D01*
X90620000Y-57857756D01*
X90589333Y-57743306D01*
X90545278Y-57667000D01*
X91570000Y-57667000D01*
X91570000Y-56969172D01*
X91569999Y-56969155D01*
X91563598Y-56909627D01*
X91563596Y-56909620D01*
X91513354Y-56774913D01*
X91513350Y-56774906D01*
X91427190Y-56659812D01*
X91427187Y-56659809D01*
X91312093Y-56573649D01*
X91312087Y-56573646D01*
X91232030Y-56543786D01*
X91207882Y-56525709D01*
X91182372Y-56509631D01*
X91180201Y-56504986D01*
X91176097Y-56501914D01*
X91165558Y-56473658D01*
X91152787Y-56446335D01*
X91153471Y-56441253D01*
X91151680Y-56436450D01*
X91158090Y-56406979D01*
X91162119Y-56377091D01*
X91165737Y-56371830D01*
X91166532Y-56368177D01*
X91180937Y-56347232D01*
X91184150Y-56343456D01*
X91238242Y-56289365D01*
X91285181Y-56224757D01*
X91288271Y-56221128D01*
X91313670Y-56204486D01*
X91337709Y-56185949D01*
X91343670Y-56184829D01*
X91346713Y-56182836D01*
X91354658Y-56182765D01*
X91382698Y-56177500D01*
X102419302Y-56177500D01*
X102486341Y-56197185D01*
X102519620Y-56228615D01*
X102563752Y-56289359D01*
X102614316Y-56339923D01*
X102647801Y-56401246D01*
X102642817Y-56470938D01*
X102600945Y-56526871D01*
X102569969Y-56543785D01*
X102489918Y-56573643D01*
X102489906Y-56573649D01*
X102374812Y-56659809D01*
X102374809Y-56659812D01*
X102288649Y-56774906D01*
X102288645Y-56774913D01*
X102238403Y-56909620D01*
X102238401Y-56909627D01*
X102232000Y-56969155D01*
X102232000Y-57667000D01*
X103256722Y-57667000D01*
X103212667Y-57743306D01*
X103182000Y-57857756D01*
X103182000Y-57976244D01*
X103212667Y-58090694D01*
X103256722Y-58167000D01*
X102232000Y-58167000D01*
X102232000Y-58864844D01*
X102238401Y-58924372D01*
X102238403Y-58924379D01*
X102288645Y-59059086D01*
X102288649Y-59059093D01*
X102374809Y-59174187D01*
X102374812Y-59174190D01*
X102489906Y-59260350D01*
X102489913Y-59260354D01*
X102624620Y-59310596D01*
X102624627Y-59310598D01*
X102684155Y-59316999D01*
X102684172Y-59317000D01*
X103382000Y-59317000D01*
X103382000Y-58292277D01*
X103458306Y-58336333D01*
X103572756Y-58367000D01*
X103691244Y-58367000D01*
X103805694Y-58336333D01*
X103882000Y-58292277D01*
X103882000Y-59317000D01*
X104579828Y-59317000D01*
X104579844Y-59316999D01*
X104639372Y-59310598D01*
X104639379Y-59310596D01*
X104774086Y-59260354D01*
X104774093Y-59260350D01*
X104889187Y-59174190D01*
X104889190Y-59174187D01*
X104975350Y-59059093D01*
X104975354Y-59059086D01*
X105025596Y-58924379D01*
X105025598Y-58924372D01*
X105031999Y-58864844D01*
X105032000Y-58864827D01*
X105032000Y-58167000D01*
X104007278Y-58167000D01*
X104051333Y-58090694D01*
X104082000Y-57976244D01*
X104082000Y-57857756D01*
X104051333Y-57743306D01*
X104007278Y-57667000D01*
X105032000Y-57667000D01*
X105032000Y-56969172D01*
X105031999Y-56969155D01*
X105025598Y-56909627D01*
X105025596Y-56909620D01*
X104975354Y-56774913D01*
X104975350Y-56774906D01*
X104889190Y-56659812D01*
X104889187Y-56659809D01*
X104774093Y-56573649D01*
X104774087Y-56573646D01*
X104694030Y-56543786D01*
X104669882Y-56525709D01*
X104644372Y-56509631D01*
X104642201Y-56504986D01*
X104638097Y-56501914D01*
X104627558Y-56473658D01*
X104614787Y-56446335D01*
X104615471Y-56441253D01*
X104613680Y-56436450D01*
X104620090Y-56406979D01*
X104624119Y-56377091D01*
X104627737Y-56371830D01*
X104628532Y-56368177D01*
X104642937Y-56347232D01*
X104646150Y-56343456D01*
X104700242Y-56289365D01*
X104747181Y-56224757D01*
X104750271Y-56221128D01*
X104775670Y-56204486D01*
X104799709Y-56185949D01*
X104805670Y-56184829D01*
X104808713Y-56182836D01*
X104816658Y-56182765D01*
X104844698Y-56177500D01*
X115881302Y-56177500D01*
X115948341Y-56197185D01*
X115981620Y-56228615D01*
X116025752Y-56289359D01*
X116076316Y-56339923D01*
X116109801Y-56401246D01*
X116104817Y-56470938D01*
X116062945Y-56526871D01*
X116031969Y-56543785D01*
X115951918Y-56573643D01*
X115951906Y-56573649D01*
X115836812Y-56659809D01*
X115836809Y-56659812D01*
X115750649Y-56774906D01*
X115750645Y-56774913D01*
X115700403Y-56909620D01*
X115700401Y-56909627D01*
X115694000Y-56969155D01*
X115694000Y-57667000D01*
X116718722Y-57667000D01*
X116674667Y-57743306D01*
X116644000Y-57857756D01*
X116644000Y-57976244D01*
X116674667Y-58090694D01*
X116718722Y-58167000D01*
X115694000Y-58167000D01*
X115694000Y-58864844D01*
X115700401Y-58924372D01*
X115700403Y-58924379D01*
X115750645Y-59059086D01*
X115750649Y-59059093D01*
X115836809Y-59174187D01*
X115836812Y-59174190D01*
X115951906Y-59260350D01*
X115951913Y-59260354D01*
X116086620Y-59310596D01*
X116086627Y-59310598D01*
X116146155Y-59316999D01*
X116146172Y-59317000D01*
X116844000Y-59317000D01*
X116844000Y-58292277D01*
X116920306Y-58336333D01*
X117034756Y-58367000D01*
X117153244Y-58367000D01*
X117267694Y-58336333D01*
X117344000Y-58292277D01*
X117344000Y-59317000D01*
X118041828Y-59317000D01*
X118041844Y-59316999D01*
X118101372Y-59310598D01*
X118101379Y-59310596D01*
X118236086Y-59260354D01*
X118236093Y-59260350D01*
X118351187Y-59174190D01*
X118351190Y-59174187D01*
X118437350Y-59059093D01*
X118437354Y-59059086D01*
X118487596Y-58924379D01*
X118487598Y-58924372D01*
X118493999Y-58864844D01*
X118494000Y-58864827D01*
X118494000Y-58167000D01*
X117469278Y-58167000D01*
X117513333Y-58090694D01*
X117544000Y-57976244D01*
X117544000Y-57857756D01*
X117513333Y-57743306D01*
X117469278Y-57667000D01*
X118494000Y-57667000D01*
X118494000Y-56969172D01*
X118493999Y-56969155D01*
X118487598Y-56909627D01*
X118487596Y-56909620D01*
X118437354Y-56774913D01*
X118437350Y-56774906D01*
X118351190Y-56659812D01*
X118351187Y-56659809D01*
X118236093Y-56573649D01*
X118236087Y-56573646D01*
X118156030Y-56543786D01*
X118131882Y-56525709D01*
X118106372Y-56509631D01*
X118104201Y-56504986D01*
X118100097Y-56501914D01*
X118089558Y-56473658D01*
X118076787Y-56446335D01*
X118077471Y-56441253D01*
X118075680Y-56436450D01*
X118082090Y-56406979D01*
X118086119Y-56377091D01*
X118089737Y-56371830D01*
X118090532Y-56368177D01*
X118104937Y-56347232D01*
X118108150Y-56343456D01*
X118162242Y-56289365D01*
X118209181Y-56224757D01*
X118212271Y-56221128D01*
X118237670Y-56204486D01*
X118261709Y-56185949D01*
X118267670Y-56184829D01*
X118270713Y-56182836D01*
X118278658Y-56182765D01*
X118306698Y-56177500D01*
X129343302Y-56177500D01*
X129410341Y-56197185D01*
X129443620Y-56228615D01*
X129487752Y-56289359D01*
X129538316Y-56339923D01*
X129571801Y-56401246D01*
X129566817Y-56470938D01*
X129524945Y-56526871D01*
X129493969Y-56543785D01*
X129413918Y-56573643D01*
X129413906Y-56573649D01*
X129298812Y-56659809D01*
X129298809Y-56659812D01*
X129212649Y-56774906D01*
X129212645Y-56774913D01*
X129162403Y-56909620D01*
X129162401Y-56909627D01*
X129156000Y-56969155D01*
X129156000Y-57667000D01*
X130180722Y-57667000D01*
X130136667Y-57743306D01*
X130106000Y-57857756D01*
X130106000Y-57976244D01*
X130136667Y-58090694D01*
X130180722Y-58167000D01*
X129156000Y-58167000D01*
X129156000Y-58864844D01*
X129162401Y-58924372D01*
X129162403Y-58924379D01*
X129212645Y-59059086D01*
X129212649Y-59059093D01*
X129298809Y-59174187D01*
X129298812Y-59174190D01*
X129413906Y-59260350D01*
X129413913Y-59260354D01*
X129548620Y-59310596D01*
X129548627Y-59310598D01*
X129608155Y-59316999D01*
X129608172Y-59317000D01*
X130306000Y-59317000D01*
X130306000Y-58292277D01*
X130382306Y-58336333D01*
X130496756Y-58367000D01*
X130615244Y-58367000D01*
X130729694Y-58336333D01*
X130806000Y-58292277D01*
X130806000Y-59317000D01*
X131503828Y-59317000D01*
X131503844Y-59316999D01*
X131563372Y-59310598D01*
X131563379Y-59310596D01*
X131698086Y-59260354D01*
X131698093Y-59260350D01*
X131813187Y-59174190D01*
X131813190Y-59174187D01*
X131899350Y-59059093D01*
X131899354Y-59059086D01*
X131949596Y-58924379D01*
X131949598Y-58924372D01*
X131955999Y-58864844D01*
X131956000Y-58864827D01*
X131956000Y-58167000D01*
X130931278Y-58167000D01*
X130975333Y-58090694D01*
X131006000Y-57976244D01*
X131006000Y-57857756D01*
X130975333Y-57743306D01*
X130931278Y-57667000D01*
X131956000Y-57667000D01*
X131956000Y-56969172D01*
X131955999Y-56969155D01*
X131949598Y-56909627D01*
X131949596Y-56909620D01*
X131899354Y-56774913D01*
X131899350Y-56774906D01*
X131813190Y-56659812D01*
X131813187Y-56659809D01*
X131698093Y-56573649D01*
X131698087Y-56573646D01*
X131618030Y-56543786D01*
X131593882Y-56525709D01*
X131568372Y-56509631D01*
X131566201Y-56504986D01*
X131562097Y-56501914D01*
X131551558Y-56473658D01*
X131538787Y-56446335D01*
X131539471Y-56441253D01*
X131537680Y-56436450D01*
X131544090Y-56406979D01*
X131548119Y-56377091D01*
X131551737Y-56371830D01*
X131552532Y-56368177D01*
X131566937Y-56347232D01*
X131570150Y-56343456D01*
X131624242Y-56289365D01*
X131671181Y-56224757D01*
X131674271Y-56221128D01*
X131699670Y-56204486D01*
X131723709Y-56185949D01*
X131729670Y-56184829D01*
X131732713Y-56182836D01*
X131740658Y-56182765D01*
X131768698Y-56177500D01*
X142808935Y-56177500D01*
X142875974Y-56197185D01*
X142909251Y-56228612D01*
X142949758Y-56284365D01*
X142949760Y-56284367D01*
X143000316Y-56334923D01*
X143033801Y-56396246D01*
X143028817Y-56465938D01*
X142986945Y-56521871D01*
X142955969Y-56538785D01*
X142875918Y-56568643D01*
X142875906Y-56568649D01*
X142760812Y-56654809D01*
X142760809Y-56654812D01*
X142674649Y-56769906D01*
X142674645Y-56769913D01*
X142624403Y-56904620D01*
X142624401Y-56904627D01*
X142618000Y-56964155D01*
X142618000Y-57662000D01*
X143642722Y-57662000D01*
X143598667Y-57738306D01*
X143568000Y-57852756D01*
X143568000Y-57971244D01*
X143598667Y-58085694D01*
X143642722Y-58162000D01*
X142618000Y-58162000D01*
X142618000Y-58859844D01*
X142624401Y-58919372D01*
X142624403Y-58919379D01*
X142674645Y-59054086D01*
X142674649Y-59054093D01*
X142760809Y-59169187D01*
X142760812Y-59169190D01*
X142875906Y-59255350D01*
X142875913Y-59255354D01*
X143010620Y-59305596D01*
X143010627Y-59305598D01*
X143070155Y-59311999D01*
X143070172Y-59312000D01*
X143768000Y-59312000D01*
X143768000Y-58287277D01*
X143844306Y-58331333D01*
X143958756Y-58362000D01*
X144077244Y-58362000D01*
X144191694Y-58331333D01*
X144268000Y-58287277D01*
X144268000Y-59312000D01*
X144965828Y-59312000D01*
X144965844Y-59311999D01*
X145025372Y-59305598D01*
X145025379Y-59305596D01*
X145160086Y-59255354D01*
X145160093Y-59255350D01*
X145275187Y-59169190D01*
X145275190Y-59169187D01*
X145361350Y-59054093D01*
X145361354Y-59054086D01*
X145411596Y-58919379D01*
X145411598Y-58919372D01*
X145417999Y-58859844D01*
X145418000Y-58859827D01*
X145418000Y-58162000D01*
X144393278Y-58162000D01*
X144437333Y-58085694D01*
X144468000Y-57971244D01*
X144468000Y-57852756D01*
X144437333Y-57738306D01*
X144393278Y-57662000D01*
X145418000Y-57662000D01*
X145418000Y-56964172D01*
X145417999Y-56964155D01*
X145411598Y-56904627D01*
X145411596Y-56904620D01*
X145361354Y-56769913D01*
X145361350Y-56769906D01*
X145275190Y-56654812D01*
X145275187Y-56654809D01*
X145160093Y-56568649D01*
X145160087Y-56568646D01*
X145080030Y-56538786D01*
X145055743Y-56520605D01*
X145030128Y-56504354D01*
X145028049Y-56499873D01*
X145024097Y-56496914D01*
X145013496Y-56468492D01*
X145000732Y-56440970D01*
X145001406Y-56436077D01*
X144999680Y-56431450D01*
X145006129Y-56401804D01*
X145010270Y-56371754D01*
X145013769Y-56366682D01*
X145014532Y-56363177D01*
X145029177Y-56341952D01*
X145032287Y-56338319D01*
X145086242Y-56284365D01*
X145129656Y-56224610D01*
X145132878Y-56220848D01*
X145158169Y-56204384D01*
X145182077Y-56185949D01*
X145188278Y-56184784D01*
X145191434Y-56182730D01*
X145199468Y-56182682D01*
X145227065Y-56177500D01*
X156267302Y-56177500D01*
X156334341Y-56197185D01*
X156367620Y-56228615D01*
X156411752Y-56289359D01*
X156462316Y-56339923D01*
X156495801Y-56401246D01*
X156490817Y-56470938D01*
X156448945Y-56526871D01*
X156417969Y-56543785D01*
X156337918Y-56573643D01*
X156337906Y-56573649D01*
X156222812Y-56659809D01*
X156222809Y-56659812D01*
X156136649Y-56774906D01*
X156136645Y-56774913D01*
X156086403Y-56909620D01*
X156086401Y-56909627D01*
X156080000Y-56969155D01*
X156080000Y-57667000D01*
X157104722Y-57667000D01*
X157060667Y-57743306D01*
X157030000Y-57857756D01*
X157030000Y-57976244D01*
X157060667Y-58090694D01*
X157104722Y-58167000D01*
X156080000Y-58167000D01*
X156080000Y-58864844D01*
X156086401Y-58924372D01*
X156086403Y-58924379D01*
X156136645Y-59059086D01*
X156136649Y-59059093D01*
X156222809Y-59174187D01*
X156222812Y-59174190D01*
X156337906Y-59260350D01*
X156337913Y-59260354D01*
X156472620Y-59310596D01*
X156472627Y-59310598D01*
X156532155Y-59316999D01*
X156532172Y-59317000D01*
X157230000Y-59317000D01*
X157230000Y-58292277D01*
X157306306Y-58336333D01*
X157420756Y-58367000D01*
X157539244Y-58367000D01*
X157653694Y-58336333D01*
X157730000Y-58292277D01*
X157730000Y-59317000D01*
X158427828Y-59317000D01*
X158427844Y-59316999D01*
X158487372Y-59310598D01*
X158487379Y-59310596D01*
X158622086Y-59260354D01*
X158622093Y-59260350D01*
X158737187Y-59174190D01*
X158737190Y-59174187D01*
X158823350Y-59059093D01*
X158823354Y-59059086D01*
X158873596Y-58924379D01*
X158873598Y-58924372D01*
X158879999Y-58864844D01*
X158880000Y-58864827D01*
X158880000Y-58167000D01*
X157855278Y-58167000D01*
X157899333Y-58090694D01*
X157930000Y-57976244D01*
X157930000Y-57857756D01*
X157899333Y-57743306D01*
X157855278Y-57667000D01*
X158880000Y-57667000D01*
X158880000Y-56969172D01*
X158879999Y-56969155D01*
X158873598Y-56909627D01*
X158873596Y-56909620D01*
X158823354Y-56774913D01*
X158823350Y-56774906D01*
X158737190Y-56659812D01*
X158737187Y-56659809D01*
X158622093Y-56573649D01*
X158622087Y-56573646D01*
X158542030Y-56543786D01*
X158517882Y-56525709D01*
X158492372Y-56509631D01*
X158490201Y-56504986D01*
X158486097Y-56501914D01*
X158475558Y-56473658D01*
X158462787Y-56446335D01*
X158463471Y-56441253D01*
X158461680Y-56436450D01*
X158468090Y-56406979D01*
X158472119Y-56377091D01*
X158475737Y-56371830D01*
X158476532Y-56368177D01*
X158490937Y-56347232D01*
X158494150Y-56343456D01*
X158548242Y-56289365D01*
X158595181Y-56224757D01*
X158598271Y-56221128D01*
X158623670Y-56204486D01*
X158647709Y-56185949D01*
X158653670Y-56184829D01*
X158656713Y-56182836D01*
X158664658Y-56182765D01*
X158692698Y-56177500D01*
X169732935Y-56177500D01*
X169799974Y-56197185D01*
X169833251Y-56228612D01*
X169873758Y-56284365D01*
X169873760Y-56284367D01*
X169924316Y-56334923D01*
X169957801Y-56396246D01*
X169952817Y-56465938D01*
X169910945Y-56521871D01*
X169879969Y-56538785D01*
X169799918Y-56568643D01*
X169799906Y-56568649D01*
X169684812Y-56654809D01*
X169684809Y-56654812D01*
X169598649Y-56769906D01*
X169598645Y-56769913D01*
X169548403Y-56904620D01*
X169548401Y-56904627D01*
X169542000Y-56964155D01*
X169542000Y-57662000D01*
X170566722Y-57662000D01*
X170522667Y-57738306D01*
X170492000Y-57852756D01*
X170492000Y-57971244D01*
X170522667Y-58085694D01*
X170566722Y-58162000D01*
X169542000Y-58162000D01*
X169542000Y-58859844D01*
X169548401Y-58919372D01*
X169548403Y-58919379D01*
X169598645Y-59054086D01*
X169598649Y-59054093D01*
X169684809Y-59169187D01*
X169684812Y-59169190D01*
X169799906Y-59255350D01*
X169799913Y-59255354D01*
X169934620Y-59305596D01*
X169934627Y-59305598D01*
X169994155Y-59311999D01*
X169994172Y-59312000D01*
X170692000Y-59312000D01*
X170692000Y-58287277D01*
X170768306Y-58331333D01*
X170882756Y-58362000D01*
X171001244Y-58362000D01*
X171115694Y-58331333D01*
X171192000Y-58287277D01*
X171192000Y-59312000D01*
X171889828Y-59312000D01*
X171889844Y-59311999D01*
X171949372Y-59305598D01*
X171949379Y-59305596D01*
X172084086Y-59255354D01*
X172084093Y-59255350D01*
X172199187Y-59169190D01*
X172199190Y-59169187D01*
X172285350Y-59054093D01*
X172285354Y-59054086D01*
X172335596Y-58919379D01*
X172335598Y-58919372D01*
X172341999Y-58859844D01*
X172342000Y-58859827D01*
X172342000Y-58162000D01*
X171317278Y-58162000D01*
X171361333Y-58085694D01*
X171392000Y-57971244D01*
X171392000Y-57852756D01*
X171361333Y-57738306D01*
X171317278Y-57662000D01*
X172342000Y-57662000D01*
X172342000Y-56964172D01*
X172341999Y-56964155D01*
X172335598Y-56904627D01*
X172335596Y-56904620D01*
X172285354Y-56769913D01*
X172285350Y-56769906D01*
X172199190Y-56654812D01*
X172199187Y-56654809D01*
X172084093Y-56568649D01*
X172084087Y-56568646D01*
X172004030Y-56538786D01*
X171979882Y-56520709D01*
X171954372Y-56504631D01*
X171952201Y-56499986D01*
X171948097Y-56496914D01*
X171937558Y-56468658D01*
X171924787Y-56441335D01*
X171925471Y-56436253D01*
X171923680Y-56431450D01*
X171930090Y-56401979D01*
X171934119Y-56372091D01*
X171937737Y-56366830D01*
X171938532Y-56363177D01*
X171952937Y-56342232D01*
X171956150Y-56338456D01*
X172010242Y-56284365D01*
X172057181Y-56219757D01*
X172060271Y-56216128D01*
X172085670Y-56199486D01*
X172109709Y-56180949D01*
X172115670Y-56179829D01*
X172118713Y-56177836D01*
X172126658Y-56177765D01*
X172154698Y-56172500D01*
X173353060Y-56172500D01*
X173420099Y-56192185D01*
X173440741Y-56208819D01*
X176963181Y-59731259D01*
X176996666Y-59792582D01*
X176999500Y-59818940D01*
X176999500Y-66356301D01*
X176979815Y-66423340D01*
X176948387Y-66456618D01*
X176887635Y-66500757D01*
X176731752Y-66656640D01*
X176687620Y-66717385D01*
X176632291Y-66760051D01*
X176587302Y-66768500D01*
X165550698Y-66768500D01*
X165483659Y-66748815D01*
X165450380Y-66717385D01*
X165406247Y-66656640D01*
X165250363Y-66500756D01*
X165250358Y-66500752D01*
X165072025Y-66371187D01*
X165072024Y-66371186D01*
X165072022Y-66371185D01*
X165009096Y-66339122D01*
X164875606Y-66271104D01*
X164875603Y-66271103D01*
X164665952Y-66202985D01*
X164557086Y-66185742D01*
X164448222Y-66168500D01*
X164227778Y-66168500D01*
X164155201Y-66179995D01*
X164010047Y-66202985D01*
X163800396Y-66271103D01*
X163800393Y-66271104D01*
X163603974Y-66371187D01*
X163425641Y-66500752D01*
X163425636Y-66500756D01*
X163269752Y-66656640D01*
X163225620Y-66717385D01*
X163170291Y-66760051D01*
X163125302Y-66768500D01*
X152088698Y-66768500D01*
X152021659Y-66748815D01*
X151988380Y-66717385D01*
X151944247Y-66656640D01*
X151788363Y-66500756D01*
X151788358Y-66500752D01*
X151610025Y-66371187D01*
X151610024Y-66371186D01*
X151610022Y-66371185D01*
X151547096Y-66339122D01*
X151413606Y-66271104D01*
X151413603Y-66271103D01*
X151203952Y-66202985D01*
X151095086Y-66185742D01*
X150986222Y-66168500D01*
X150765778Y-66168500D01*
X150693201Y-66179995D01*
X150548047Y-66202985D01*
X150338396Y-66271103D01*
X150338393Y-66271104D01*
X150141974Y-66371187D01*
X149963641Y-66500752D01*
X149963636Y-66500756D01*
X149807752Y-66656640D01*
X149763620Y-66717385D01*
X149708291Y-66760051D01*
X149663302Y-66768500D01*
X138626698Y-66768500D01*
X138559659Y-66748815D01*
X138526380Y-66717385D01*
X138482247Y-66656640D01*
X138326363Y-66500756D01*
X138326358Y-66500752D01*
X138148025Y-66371187D01*
X138148024Y-66371186D01*
X138148022Y-66371185D01*
X138085096Y-66339122D01*
X137951606Y-66271104D01*
X137951603Y-66271103D01*
X137741952Y-66202985D01*
X137633086Y-66185742D01*
X137524222Y-66168500D01*
X137303778Y-66168500D01*
X137231201Y-66179995D01*
X137086047Y-66202985D01*
X136876396Y-66271103D01*
X136876393Y-66271104D01*
X136679974Y-66371187D01*
X136501641Y-66500752D01*
X136501636Y-66500756D01*
X136345752Y-66656640D01*
X136301620Y-66717385D01*
X136246291Y-66760051D01*
X136201302Y-66768500D01*
X125164698Y-66768500D01*
X125097659Y-66748815D01*
X125064380Y-66717385D01*
X125020247Y-66656640D01*
X124864363Y-66500756D01*
X124864358Y-66500752D01*
X124686025Y-66371187D01*
X124686024Y-66371186D01*
X124686022Y-66371185D01*
X124623096Y-66339122D01*
X124489606Y-66271104D01*
X124489603Y-66271103D01*
X124279952Y-66202985D01*
X124171086Y-66185742D01*
X124062222Y-66168500D01*
X123841778Y-66168500D01*
X123769201Y-66179995D01*
X123624047Y-66202985D01*
X123414396Y-66271103D01*
X123414393Y-66271104D01*
X123217974Y-66371187D01*
X123039641Y-66500752D01*
X123039636Y-66500756D01*
X122883752Y-66656640D01*
X122839620Y-66717385D01*
X122784291Y-66760051D01*
X122739302Y-66768500D01*
X111702698Y-66768500D01*
X111635659Y-66748815D01*
X111602380Y-66717385D01*
X111558247Y-66656640D01*
X111402363Y-66500756D01*
X111402358Y-66500752D01*
X111224025Y-66371187D01*
X111224024Y-66371186D01*
X111224022Y-66371185D01*
X111161096Y-66339122D01*
X111027606Y-66271104D01*
X111027603Y-66271103D01*
X110817952Y-66202985D01*
X110709086Y-66185742D01*
X110600222Y-66168500D01*
X110379778Y-66168500D01*
X110307201Y-66179995D01*
X110162047Y-66202985D01*
X109952396Y-66271103D01*
X109952393Y-66271104D01*
X109755974Y-66371187D01*
X109577641Y-66500752D01*
X109577636Y-66500756D01*
X109421752Y-66656640D01*
X109377620Y-66717385D01*
X109322291Y-66760051D01*
X109277302Y-66768500D01*
X97986698Y-66768500D01*
X97919659Y-66748815D01*
X97886380Y-66717385D01*
X97842247Y-66656640D01*
X97686363Y-66500756D01*
X97686358Y-66500752D01*
X97508025Y-66371187D01*
X97508024Y-66371186D01*
X97508022Y-66371185D01*
X97445096Y-66339122D01*
X97311606Y-66271104D01*
X97311603Y-66271103D01*
X97101952Y-66202985D01*
X96993086Y-66185742D01*
X96884222Y-66168500D01*
X96663778Y-66168500D01*
X96591201Y-66179995D01*
X96446047Y-66202985D01*
X96236396Y-66271103D01*
X96236393Y-66271104D01*
X96039974Y-66371187D01*
X95861641Y-66500752D01*
X95861636Y-66500756D01*
X95705752Y-66656640D01*
X95661620Y-66717385D01*
X95606291Y-66760051D01*
X95561302Y-66768500D01*
X84778698Y-66768500D01*
X84711659Y-66748815D01*
X84678380Y-66717385D01*
X84634247Y-66656640D01*
X84478363Y-66500756D01*
X84478358Y-66500752D01*
X84300025Y-66371187D01*
X84300024Y-66371186D01*
X84300022Y-66371185D01*
X84237096Y-66339122D01*
X84103606Y-66271104D01*
X84103603Y-66271103D01*
X83893952Y-66202985D01*
X83785086Y-66185742D01*
X83676222Y-66168500D01*
X83455778Y-66168500D01*
X83383201Y-66179995D01*
X83238047Y-66202985D01*
X83028396Y-66271103D01*
X83028393Y-66271104D01*
X82831974Y-66371187D01*
X82653641Y-66500752D01*
X82653636Y-66500756D01*
X82497756Y-66656636D01*
X82497752Y-66656641D01*
X82368187Y-66834974D01*
X82268104Y-67031393D01*
X82268103Y-67031396D01*
X82199985Y-67241047D01*
X82165500Y-67458778D01*
X82165500Y-67679221D01*
X82199985Y-67896952D01*
X82268103Y-68106603D01*
X82268104Y-68106606D01*
X82336122Y-68240096D01*
X82361510Y-68289922D01*
X82368187Y-68303025D01*
X82497752Y-68481358D01*
X82497756Y-68481363D01*
X82548316Y-68531923D01*
X82581801Y-68593246D01*
X82576817Y-68662938D01*
X82534945Y-68718871D01*
X82503969Y-68735785D01*
X82423918Y-68765643D01*
X82423906Y-68765649D01*
X82308812Y-68851809D01*
X82308809Y-68851812D01*
X82222649Y-68966906D01*
X82222645Y-68966913D01*
X82172403Y-69101620D01*
X82172401Y-69101627D01*
X82166000Y-69161155D01*
X82166000Y-69859000D01*
X83190722Y-69859000D01*
X83146667Y-69935306D01*
X83116000Y-70049756D01*
X83116000Y-70168244D01*
X83146667Y-70282694D01*
X83190722Y-70359000D01*
X82166000Y-70359000D01*
X82166000Y-71056844D01*
X82172401Y-71116372D01*
X82172403Y-71116379D01*
X82222645Y-71251086D01*
X82222649Y-71251093D01*
X82308809Y-71366187D01*
X82308812Y-71366190D01*
X82423906Y-71452350D01*
X82423913Y-71452354D01*
X82558620Y-71502596D01*
X82558627Y-71502598D01*
X82618155Y-71508999D01*
X82618172Y-71509000D01*
X83316000Y-71509000D01*
X83316000Y-70484277D01*
X83392306Y-70528333D01*
X83506756Y-70559000D01*
X83625244Y-70559000D01*
X83739694Y-70528333D01*
X83816000Y-70484277D01*
X83816000Y-71509000D01*
X84513828Y-71509000D01*
X84513844Y-71508999D01*
X84573372Y-71502598D01*
X84573379Y-71502596D01*
X84708086Y-71452354D01*
X84708093Y-71452350D01*
X84823187Y-71366190D01*
X84823190Y-71366187D01*
X84909350Y-71251093D01*
X84909354Y-71251086D01*
X84959596Y-71116379D01*
X84959598Y-71116372D01*
X84965999Y-71056844D01*
X84966000Y-71056827D01*
X84966000Y-70359000D01*
X83941278Y-70359000D01*
X83985333Y-70282694D01*
X84016000Y-70168244D01*
X84016000Y-70049756D01*
X83985333Y-69935306D01*
X83941278Y-69859000D01*
X84966000Y-69859000D01*
X84966000Y-69161172D01*
X84965999Y-69161155D01*
X84959598Y-69101627D01*
X84959596Y-69101620D01*
X84909354Y-68966913D01*
X84909350Y-68966906D01*
X84823190Y-68851812D01*
X84823187Y-68851809D01*
X84708093Y-68765649D01*
X84708087Y-68765646D01*
X84628030Y-68735786D01*
X84603882Y-68717709D01*
X84578372Y-68701631D01*
X84576201Y-68696986D01*
X84572097Y-68693914D01*
X84561558Y-68665658D01*
X84548787Y-68638335D01*
X84549471Y-68633253D01*
X84547680Y-68628450D01*
X84554090Y-68598979D01*
X84558119Y-68569091D01*
X84561737Y-68563830D01*
X84562532Y-68560177D01*
X84576937Y-68539232D01*
X84580150Y-68535456D01*
X84634242Y-68481365D01*
X84681181Y-68416757D01*
X84684271Y-68413128D01*
X84709670Y-68396486D01*
X84733709Y-68377949D01*
X84739670Y-68376829D01*
X84742713Y-68374836D01*
X84750658Y-68374765D01*
X84778698Y-68369500D01*
X95561302Y-68369500D01*
X95628341Y-68389185D01*
X95661620Y-68420615D01*
X95705752Y-68481359D01*
X95756316Y-68531923D01*
X95789801Y-68593246D01*
X95784817Y-68662938D01*
X95742945Y-68718871D01*
X95711969Y-68735785D01*
X95631918Y-68765643D01*
X95631906Y-68765649D01*
X95516812Y-68851809D01*
X95516809Y-68851812D01*
X95430649Y-68966906D01*
X95430645Y-68966913D01*
X95380403Y-69101620D01*
X95380401Y-69101627D01*
X95374000Y-69161155D01*
X95374000Y-69859000D01*
X96398722Y-69859000D01*
X96354667Y-69935306D01*
X96324000Y-70049756D01*
X96324000Y-70168244D01*
X96354667Y-70282694D01*
X96398722Y-70359000D01*
X95374000Y-70359000D01*
X95374000Y-71056844D01*
X95380401Y-71116372D01*
X95380403Y-71116379D01*
X95430645Y-71251086D01*
X95430649Y-71251093D01*
X95516809Y-71366187D01*
X95516812Y-71366190D01*
X95631906Y-71452350D01*
X95631913Y-71452354D01*
X95766620Y-71502596D01*
X95766627Y-71502598D01*
X95826155Y-71508999D01*
X95826172Y-71509000D01*
X96524000Y-71509000D01*
X96524000Y-70484277D01*
X96600306Y-70528333D01*
X96714756Y-70559000D01*
X96833244Y-70559000D01*
X96947694Y-70528333D01*
X97024000Y-70484277D01*
X97024000Y-71509000D01*
X97721828Y-71509000D01*
X97721844Y-71508999D01*
X97781372Y-71502598D01*
X97781379Y-71502596D01*
X97916086Y-71452354D01*
X97916093Y-71452350D01*
X98031187Y-71366190D01*
X98031190Y-71366187D01*
X98117350Y-71251093D01*
X98117354Y-71251086D01*
X98167596Y-71116379D01*
X98167598Y-71116372D01*
X98173999Y-71056844D01*
X98174000Y-71056827D01*
X98174000Y-70359000D01*
X97149278Y-70359000D01*
X97193333Y-70282694D01*
X97224000Y-70168244D01*
X97224000Y-70049756D01*
X97193333Y-69935306D01*
X97149278Y-69859000D01*
X98174000Y-69859000D01*
X98174000Y-69161172D01*
X98173999Y-69161155D01*
X98167598Y-69101627D01*
X98167596Y-69101620D01*
X98117354Y-68966913D01*
X98117350Y-68966906D01*
X98031190Y-68851812D01*
X98031187Y-68851809D01*
X97916093Y-68765649D01*
X97916087Y-68765646D01*
X97836030Y-68735786D01*
X97811882Y-68717709D01*
X97786372Y-68701631D01*
X97784201Y-68696986D01*
X97780097Y-68693914D01*
X97769558Y-68665658D01*
X97756787Y-68638335D01*
X97757471Y-68633253D01*
X97755680Y-68628450D01*
X97762090Y-68598979D01*
X97766119Y-68569091D01*
X97769737Y-68563830D01*
X97770532Y-68560177D01*
X97784937Y-68539232D01*
X97788150Y-68535456D01*
X97842242Y-68481365D01*
X97889181Y-68416757D01*
X97892271Y-68413128D01*
X97917670Y-68396486D01*
X97941709Y-68377949D01*
X97947670Y-68376829D01*
X97950713Y-68374836D01*
X97958658Y-68374765D01*
X97986698Y-68369500D01*
X109277302Y-68369500D01*
X109344341Y-68389185D01*
X109377620Y-68420615D01*
X109421752Y-68481359D01*
X109472316Y-68531923D01*
X109505801Y-68593246D01*
X109500817Y-68662938D01*
X109458945Y-68718871D01*
X109427969Y-68735785D01*
X109347918Y-68765643D01*
X109347906Y-68765649D01*
X109232812Y-68851809D01*
X109232809Y-68851812D01*
X109146649Y-68966906D01*
X109146645Y-68966913D01*
X109096403Y-69101620D01*
X109096401Y-69101627D01*
X109090000Y-69161155D01*
X109090000Y-69859000D01*
X110114722Y-69859000D01*
X110070667Y-69935306D01*
X110040000Y-70049756D01*
X110040000Y-70168244D01*
X110070667Y-70282694D01*
X110114722Y-70359000D01*
X109090000Y-70359000D01*
X109090000Y-71056844D01*
X109096401Y-71116372D01*
X109096403Y-71116379D01*
X109146645Y-71251086D01*
X109146649Y-71251093D01*
X109232809Y-71366187D01*
X109232812Y-71366190D01*
X109347906Y-71452350D01*
X109347913Y-71452354D01*
X109482620Y-71502596D01*
X109482627Y-71502598D01*
X109542155Y-71508999D01*
X109542172Y-71509000D01*
X110240000Y-71509000D01*
X110240000Y-70484277D01*
X110316306Y-70528333D01*
X110430756Y-70559000D01*
X110549244Y-70559000D01*
X110663694Y-70528333D01*
X110740000Y-70484277D01*
X110740000Y-71509000D01*
X111437828Y-71509000D01*
X111437844Y-71508999D01*
X111497372Y-71502598D01*
X111497379Y-71502596D01*
X111632086Y-71452354D01*
X111632093Y-71452350D01*
X111747187Y-71366190D01*
X111747190Y-71366187D01*
X111833350Y-71251093D01*
X111833354Y-71251086D01*
X111883596Y-71116379D01*
X111883598Y-71116372D01*
X111889999Y-71056844D01*
X111890000Y-71056827D01*
X111890000Y-70359000D01*
X110865278Y-70359000D01*
X110909333Y-70282694D01*
X110940000Y-70168244D01*
X110940000Y-70049756D01*
X110909333Y-69935306D01*
X110865278Y-69859000D01*
X111890000Y-69859000D01*
X111890000Y-69161172D01*
X111889999Y-69161155D01*
X111883598Y-69101627D01*
X111883596Y-69101620D01*
X111833354Y-68966913D01*
X111833350Y-68966906D01*
X111747190Y-68851812D01*
X111747187Y-68851809D01*
X111632093Y-68765649D01*
X111632087Y-68765646D01*
X111552030Y-68735786D01*
X111527882Y-68717709D01*
X111502372Y-68701631D01*
X111500201Y-68696986D01*
X111496097Y-68693914D01*
X111485558Y-68665658D01*
X111472787Y-68638335D01*
X111473471Y-68633253D01*
X111471680Y-68628450D01*
X111478090Y-68598979D01*
X111482119Y-68569091D01*
X111485737Y-68563830D01*
X111486532Y-68560177D01*
X111500937Y-68539232D01*
X111504150Y-68535456D01*
X111558242Y-68481365D01*
X111605181Y-68416757D01*
X111608271Y-68413128D01*
X111633670Y-68396486D01*
X111657709Y-68377949D01*
X111663670Y-68376829D01*
X111666713Y-68374836D01*
X111674658Y-68374765D01*
X111702698Y-68369500D01*
X122739302Y-68369500D01*
X122806341Y-68389185D01*
X122839620Y-68420615D01*
X122883752Y-68481359D01*
X122934316Y-68531923D01*
X122967801Y-68593246D01*
X122962817Y-68662938D01*
X122920945Y-68718871D01*
X122889969Y-68735785D01*
X122809918Y-68765643D01*
X122809906Y-68765649D01*
X122694812Y-68851809D01*
X122694809Y-68851812D01*
X122608649Y-68966906D01*
X122608645Y-68966913D01*
X122558403Y-69101620D01*
X122558401Y-69101627D01*
X122552000Y-69161155D01*
X122552000Y-69859000D01*
X123576722Y-69859000D01*
X123532667Y-69935306D01*
X123502000Y-70049756D01*
X123502000Y-70168244D01*
X123532667Y-70282694D01*
X123576722Y-70359000D01*
X122552000Y-70359000D01*
X122552000Y-71056844D01*
X122558401Y-71116372D01*
X122558403Y-71116379D01*
X122608645Y-71251086D01*
X122608649Y-71251093D01*
X122694809Y-71366187D01*
X122694812Y-71366190D01*
X122809906Y-71452350D01*
X122809913Y-71452354D01*
X122944620Y-71502596D01*
X122944627Y-71502598D01*
X123004155Y-71508999D01*
X123004172Y-71509000D01*
X123702000Y-71509000D01*
X123702000Y-70484277D01*
X123778306Y-70528333D01*
X123892756Y-70559000D01*
X124011244Y-70559000D01*
X124125694Y-70528333D01*
X124202000Y-70484277D01*
X124202000Y-71509000D01*
X124899828Y-71509000D01*
X124899844Y-71508999D01*
X124959372Y-71502598D01*
X124959379Y-71502596D01*
X125094086Y-71452354D01*
X125094093Y-71452350D01*
X125209187Y-71366190D01*
X125209190Y-71366187D01*
X125295350Y-71251093D01*
X125295354Y-71251086D01*
X125345596Y-71116379D01*
X125345598Y-71116372D01*
X125351999Y-71056844D01*
X125352000Y-71056827D01*
X125352000Y-70359000D01*
X124327278Y-70359000D01*
X124371333Y-70282694D01*
X124402000Y-70168244D01*
X124402000Y-70049756D01*
X124371333Y-69935306D01*
X124327278Y-69859000D01*
X125352000Y-69859000D01*
X125352000Y-69161172D01*
X125351999Y-69161155D01*
X125345598Y-69101627D01*
X125345596Y-69101620D01*
X125295354Y-68966913D01*
X125295350Y-68966906D01*
X125209190Y-68851812D01*
X125209187Y-68851809D01*
X125094093Y-68765649D01*
X125094087Y-68765646D01*
X125014030Y-68735786D01*
X124989882Y-68717709D01*
X124964372Y-68701631D01*
X124962201Y-68696986D01*
X124958097Y-68693914D01*
X124947558Y-68665658D01*
X124934787Y-68638335D01*
X124935471Y-68633253D01*
X124933680Y-68628450D01*
X124940090Y-68598979D01*
X124944119Y-68569091D01*
X124947737Y-68563830D01*
X124948532Y-68560177D01*
X124962937Y-68539232D01*
X124966150Y-68535456D01*
X125020242Y-68481365D01*
X125067181Y-68416757D01*
X125070271Y-68413128D01*
X125095670Y-68396486D01*
X125119709Y-68377949D01*
X125125670Y-68376829D01*
X125128713Y-68374836D01*
X125136658Y-68374765D01*
X125164698Y-68369500D01*
X136201302Y-68369500D01*
X136268341Y-68389185D01*
X136301620Y-68420615D01*
X136345752Y-68481359D01*
X136396316Y-68531923D01*
X136429801Y-68593246D01*
X136424817Y-68662938D01*
X136382945Y-68718871D01*
X136351969Y-68735785D01*
X136271918Y-68765643D01*
X136271906Y-68765649D01*
X136156812Y-68851809D01*
X136156809Y-68851812D01*
X136070649Y-68966906D01*
X136070645Y-68966913D01*
X136020403Y-69101620D01*
X136020401Y-69101627D01*
X136014000Y-69161155D01*
X136014000Y-69859000D01*
X137038722Y-69859000D01*
X136994667Y-69935306D01*
X136964000Y-70049756D01*
X136964000Y-70168244D01*
X136994667Y-70282694D01*
X137038722Y-70359000D01*
X136014000Y-70359000D01*
X136014000Y-71056844D01*
X136020401Y-71116372D01*
X136020403Y-71116379D01*
X136070645Y-71251086D01*
X136070649Y-71251093D01*
X136156809Y-71366187D01*
X136156812Y-71366190D01*
X136271906Y-71452350D01*
X136271913Y-71452354D01*
X136406620Y-71502596D01*
X136406627Y-71502598D01*
X136466155Y-71508999D01*
X136466172Y-71509000D01*
X137164000Y-71509000D01*
X137164000Y-70484277D01*
X137240306Y-70528333D01*
X137354756Y-70559000D01*
X137473244Y-70559000D01*
X137587694Y-70528333D01*
X137664000Y-70484277D01*
X137664000Y-71509000D01*
X138361828Y-71509000D01*
X138361844Y-71508999D01*
X138421372Y-71502598D01*
X138421379Y-71502596D01*
X138556086Y-71452354D01*
X138556093Y-71452350D01*
X138671187Y-71366190D01*
X138671190Y-71366187D01*
X138757350Y-71251093D01*
X138757354Y-71251086D01*
X138807596Y-71116379D01*
X138807598Y-71116372D01*
X138813999Y-71056844D01*
X138814000Y-71056827D01*
X138814000Y-70359000D01*
X137789278Y-70359000D01*
X137833333Y-70282694D01*
X137864000Y-70168244D01*
X137864000Y-70049756D01*
X137833333Y-69935306D01*
X137789278Y-69859000D01*
X138814000Y-69859000D01*
X138814000Y-69161172D01*
X138813999Y-69161155D01*
X138807598Y-69101627D01*
X138807596Y-69101620D01*
X138757354Y-68966913D01*
X138757350Y-68966906D01*
X138671190Y-68851812D01*
X138671187Y-68851809D01*
X138556093Y-68765649D01*
X138556087Y-68765646D01*
X138476030Y-68735786D01*
X138451882Y-68717709D01*
X138426372Y-68701631D01*
X138424201Y-68696986D01*
X138420097Y-68693914D01*
X138409558Y-68665658D01*
X138396787Y-68638335D01*
X138397471Y-68633253D01*
X138395680Y-68628450D01*
X138402090Y-68598979D01*
X138406119Y-68569091D01*
X138409737Y-68563830D01*
X138410532Y-68560177D01*
X138424937Y-68539232D01*
X138428150Y-68535456D01*
X138482242Y-68481365D01*
X138529181Y-68416757D01*
X138532271Y-68413128D01*
X138557670Y-68396486D01*
X138581709Y-68377949D01*
X138587670Y-68376829D01*
X138590713Y-68374836D01*
X138598658Y-68374765D01*
X138626698Y-68369500D01*
X149663302Y-68369500D01*
X149730341Y-68389185D01*
X149763620Y-68420615D01*
X149807752Y-68481359D01*
X149858316Y-68531923D01*
X149891801Y-68593246D01*
X149886817Y-68662938D01*
X149844945Y-68718871D01*
X149813969Y-68735785D01*
X149733918Y-68765643D01*
X149733906Y-68765649D01*
X149618812Y-68851809D01*
X149618809Y-68851812D01*
X149532649Y-68966906D01*
X149532645Y-68966913D01*
X149482403Y-69101620D01*
X149482401Y-69101627D01*
X149476000Y-69161155D01*
X149476000Y-69859000D01*
X150500722Y-69859000D01*
X150456667Y-69935306D01*
X150426000Y-70049756D01*
X150426000Y-70168244D01*
X150456667Y-70282694D01*
X150500722Y-70359000D01*
X149476000Y-70359000D01*
X149476000Y-71056844D01*
X149482401Y-71116372D01*
X149482403Y-71116379D01*
X149532645Y-71251086D01*
X149532649Y-71251093D01*
X149618809Y-71366187D01*
X149618812Y-71366190D01*
X149733906Y-71452350D01*
X149733913Y-71452354D01*
X149868620Y-71502596D01*
X149868627Y-71502598D01*
X149928155Y-71508999D01*
X149928172Y-71509000D01*
X150626000Y-71509000D01*
X150626000Y-70484277D01*
X150702306Y-70528333D01*
X150816756Y-70559000D01*
X150935244Y-70559000D01*
X151049694Y-70528333D01*
X151126000Y-70484277D01*
X151126000Y-71509000D01*
X151823828Y-71509000D01*
X151823844Y-71508999D01*
X151883372Y-71502598D01*
X151883379Y-71502596D01*
X152018086Y-71452354D01*
X152018093Y-71452350D01*
X152133187Y-71366190D01*
X152133190Y-71366187D01*
X152219350Y-71251093D01*
X152219354Y-71251086D01*
X152269596Y-71116379D01*
X152269598Y-71116372D01*
X152275999Y-71056844D01*
X152276000Y-71056827D01*
X152276000Y-70359000D01*
X151251278Y-70359000D01*
X151295333Y-70282694D01*
X151326000Y-70168244D01*
X151326000Y-70049756D01*
X151295333Y-69935306D01*
X151251278Y-69859000D01*
X152276000Y-69859000D01*
X152276000Y-69161172D01*
X152275999Y-69161155D01*
X152269598Y-69101627D01*
X152269596Y-69101620D01*
X152219354Y-68966913D01*
X152219350Y-68966906D01*
X152133190Y-68851812D01*
X152133187Y-68851809D01*
X152018093Y-68765649D01*
X152018087Y-68765646D01*
X151938030Y-68735786D01*
X151913882Y-68717709D01*
X151888372Y-68701631D01*
X151886201Y-68696986D01*
X151882097Y-68693914D01*
X151871558Y-68665658D01*
X151858787Y-68638335D01*
X151859471Y-68633253D01*
X151857680Y-68628450D01*
X151864090Y-68598979D01*
X151868119Y-68569091D01*
X151871737Y-68563830D01*
X151872532Y-68560177D01*
X151886937Y-68539232D01*
X151890150Y-68535456D01*
X151944242Y-68481365D01*
X151991181Y-68416757D01*
X151994271Y-68413128D01*
X152019670Y-68396486D01*
X152043709Y-68377949D01*
X152049670Y-68376829D01*
X152052713Y-68374836D01*
X152060658Y-68374765D01*
X152088698Y-68369500D01*
X163125302Y-68369500D01*
X163192341Y-68389185D01*
X163225620Y-68420615D01*
X163269752Y-68481359D01*
X163320316Y-68531923D01*
X163353801Y-68593246D01*
X163348817Y-68662938D01*
X163306945Y-68718871D01*
X163275969Y-68735785D01*
X163195918Y-68765643D01*
X163195906Y-68765649D01*
X163080812Y-68851809D01*
X163080809Y-68851812D01*
X162994649Y-68966906D01*
X162994645Y-68966913D01*
X162944403Y-69101620D01*
X162944401Y-69101627D01*
X162938000Y-69161155D01*
X162938000Y-69859000D01*
X163962722Y-69859000D01*
X163918667Y-69935306D01*
X163888000Y-70049756D01*
X163888000Y-70168244D01*
X163918667Y-70282694D01*
X163962722Y-70359000D01*
X162938000Y-70359000D01*
X162938000Y-71056844D01*
X162944401Y-71116372D01*
X162944403Y-71116379D01*
X162994645Y-71251086D01*
X162994649Y-71251093D01*
X163080809Y-71366187D01*
X163080812Y-71366190D01*
X163195906Y-71452350D01*
X163195913Y-71452354D01*
X163330620Y-71502596D01*
X163330627Y-71502598D01*
X163390155Y-71508999D01*
X163390172Y-71509000D01*
X164088000Y-71509000D01*
X164088000Y-70484277D01*
X164164306Y-70528333D01*
X164278756Y-70559000D01*
X164397244Y-70559000D01*
X164511694Y-70528333D01*
X164588000Y-70484277D01*
X164588000Y-71509000D01*
X165285828Y-71509000D01*
X165285844Y-71508999D01*
X165345372Y-71502598D01*
X165345379Y-71502596D01*
X165480086Y-71452354D01*
X165480093Y-71452350D01*
X165595187Y-71366190D01*
X165595190Y-71366187D01*
X165681350Y-71251093D01*
X165681354Y-71251086D01*
X165731596Y-71116379D01*
X165731598Y-71116372D01*
X165737999Y-71056844D01*
X165738000Y-71056827D01*
X165738000Y-70359000D01*
X164713278Y-70359000D01*
X164757333Y-70282694D01*
X164788000Y-70168244D01*
X164788000Y-70049756D01*
X164757333Y-69935306D01*
X164713278Y-69859000D01*
X165738000Y-69859000D01*
X165738000Y-69161172D01*
X165737999Y-69161155D01*
X165731598Y-69101627D01*
X165731596Y-69101620D01*
X165681354Y-68966913D01*
X165681350Y-68966906D01*
X165595190Y-68851812D01*
X165595187Y-68851809D01*
X165480093Y-68765649D01*
X165480087Y-68765646D01*
X165400030Y-68735786D01*
X165375882Y-68717709D01*
X165350372Y-68701631D01*
X165348201Y-68696986D01*
X165344097Y-68693914D01*
X165333558Y-68665658D01*
X165320787Y-68638335D01*
X165321471Y-68633253D01*
X165319680Y-68628450D01*
X165326090Y-68598979D01*
X165330119Y-68569091D01*
X165333737Y-68563830D01*
X165334532Y-68560177D01*
X165348937Y-68539232D01*
X165352150Y-68535456D01*
X165406242Y-68481365D01*
X165453181Y-68416757D01*
X165456271Y-68413128D01*
X165481670Y-68396486D01*
X165505709Y-68377949D01*
X165511670Y-68376829D01*
X165514713Y-68374836D01*
X165522658Y-68374765D01*
X165550698Y-68369500D01*
X176587302Y-68369500D01*
X176654341Y-68389185D01*
X176687620Y-68420615D01*
X176731752Y-68481359D01*
X176782316Y-68531923D01*
X176815801Y-68593246D01*
X176810817Y-68662938D01*
X176768945Y-68718871D01*
X176737969Y-68735785D01*
X176657918Y-68765643D01*
X176657906Y-68765649D01*
X176542812Y-68851809D01*
X176542809Y-68851812D01*
X176456649Y-68966906D01*
X176456645Y-68966913D01*
X176406403Y-69101620D01*
X176406401Y-69101627D01*
X176400000Y-69161155D01*
X176400000Y-69859000D01*
X177424722Y-69859000D01*
X177380667Y-69935306D01*
X177350000Y-70049756D01*
X177350000Y-70168244D01*
X177380667Y-70282694D01*
X177424722Y-70359000D01*
X176400000Y-70359000D01*
X176400000Y-71056844D01*
X176406401Y-71116372D01*
X176406403Y-71116379D01*
X176456645Y-71251086D01*
X176456649Y-71251093D01*
X176542809Y-71366187D01*
X176542812Y-71366190D01*
X176657906Y-71452350D01*
X176657913Y-71452354D01*
X176792620Y-71502596D01*
X176792627Y-71502598D01*
X176852155Y-71508999D01*
X176852172Y-71509000D01*
X177550000Y-71509000D01*
X177550000Y-70484277D01*
X177626306Y-70528333D01*
X177740756Y-70559000D01*
X177859244Y-70559000D01*
X177973694Y-70528333D01*
X178050000Y-70484277D01*
X178050000Y-71509000D01*
X178747828Y-71509000D01*
X178747844Y-71508999D01*
X178807372Y-71502598D01*
X178807379Y-71502596D01*
X178942086Y-71452354D01*
X178942093Y-71452350D01*
X179057187Y-71366190D01*
X179057190Y-71366187D01*
X179143350Y-71251093D01*
X179143354Y-71251086D01*
X179193596Y-71116379D01*
X179193598Y-71116372D01*
X179199999Y-71056844D01*
X179200000Y-71056827D01*
X179200000Y-70359000D01*
X178175278Y-70359000D01*
X178219333Y-70282694D01*
X178250000Y-70168244D01*
X178250000Y-70049756D01*
X178219333Y-69935306D01*
X178175278Y-69859000D01*
X179200000Y-69859000D01*
X179200000Y-69161172D01*
X179199999Y-69161155D01*
X179193598Y-69101627D01*
X179193596Y-69101620D01*
X179143354Y-68966913D01*
X179143350Y-68966906D01*
X179057190Y-68851812D01*
X179057187Y-68851809D01*
X178942093Y-68765649D01*
X178942087Y-68765646D01*
X178862030Y-68735786D01*
X178806097Y-68693914D01*
X178781680Y-68628450D01*
X178796532Y-68560177D01*
X178817681Y-68531925D01*
X178868242Y-68481365D01*
X178997815Y-68303022D01*
X179097895Y-68106606D01*
X179166015Y-67896951D01*
X179200500Y-67679222D01*
X179200500Y-67458778D01*
X179166015Y-67241049D01*
X179097895Y-67031394D01*
X179097895Y-67031393D01*
X179022102Y-66882644D01*
X178997815Y-66834978D01*
X178943378Y-66760051D01*
X178868247Y-66656641D01*
X178868243Y-66656636D01*
X178712364Y-66500757D01*
X178651613Y-66456618D01*
X178608948Y-66401287D01*
X178600500Y-66356301D01*
X178600500Y-59357155D01*
X178600499Y-59357153D01*
X178591517Y-59311999D01*
X178569737Y-59202503D01*
X178569735Y-59202498D01*
X178509397Y-59056827D01*
X178509390Y-59056814D01*
X178421790Y-58925712D01*
X178415450Y-58919372D01*
X178310289Y-58814211D01*
X176400698Y-56904620D01*
X174246292Y-54750213D01*
X174246288Y-54750210D01*
X174115185Y-54662609D01*
X174115172Y-54662602D01*
X173969501Y-54602264D01*
X173969489Y-54602261D01*
X173814845Y-54571500D01*
X173814842Y-54571500D01*
X172154698Y-54571500D01*
X172087659Y-54551815D01*
X172054380Y-54520385D01*
X172010247Y-54459640D01*
X171854363Y-54303756D01*
X171854358Y-54303752D01*
X171676025Y-54174187D01*
X171676024Y-54174186D01*
X171676022Y-54174185D01*
X171613096Y-54142122D01*
X171479606Y-54074104D01*
X171479603Y-54074103D01*
X171269952Y-54005985D01*
X171161086Y-53988742D01*
X171052222Y-53971500D01*
X170831778Y-53971500D01*
X170759201Y-53982995D01*
X170614047Y-54005985D01*
X170404396Y-54074103D01*
X170404393Y-54074104D01*
X170207974Y-54174187D01*
X170029641Y-54303752D01*
X170029636Y-54303756D01*
X169873754Y-54459638D01*
X169825989Y-54525384D01*
X169770659Y-54568051D01*
X169725670Y-54576500D01*
X158692698Y-54576500D01*
X158625659Y-54556815D01*
X158592380Y-54525385D01*
X158548247Y-54464640D01*
X158392363Y-54308756D01*
X158392358Y-54308752D01*
X158214025Y-54179187D01*
X158214024Y-54179186D01*
X158214022Y-54179185D01*
X158151096Y-54147122D01*
X158017606Y-54079104D01*
X158017603Y-54079103D01*
X157807952Y-54010985D01*
X157699086Y-53993742D01*
X157590222Y-53976500D01*
X157369778Y-53976500D01*
X157297201Y-53987995D01*
X157152047Y-54010985D01*
X156942396Y-54079103D01*
X156942393Y-54079104D01*
X156745974Y-54179187D01*
X156567641Y-54308752D01*
X156567636Y-54308756D01*
X156411752Y-54464640D01*
X156367620Y-54525385D01*
X156312291Y-54568051D01*
X156267302Y-54576500D01*
X145234330Y-54576500D01*
X145167291Y-54556815D01*
X145134011Y-54525384D01*
X145086245Y-54459638D01*
X144930363Y-54303756D01*
X144930358Y-54303752D01*
X144752025Y-54174187D01*
X144752024Y-54174186D01*
X144752022Y-54174185D01*
X144689096Y-54142122D01*
X144555606Y-54074104D01*
X144555603Y-54074103D01*
X144345952Y-54005985D01*
X144237086Y-53988742D01*
X144128222Y-53971500D01*
X143907778Y-53971500D01*
X143835201Y-53982995D01*
X143690047Y-54005985D01*
X143480396Y-54074103D01*
X143480393Y-54074104D01*
X143283974Y-54174187D01*
X143105641Y-54303752D01*
X143105636Y-54303756D01*
X142949754Y-54459638D01*
X142901989Y-54525384D01*
X142846659Y-54568051D01*
X142801670Y-54576500D01*
X131768698Y-54576500D01*
X131701659Y-54556815D01*
X131668380Y-54525385D01*
X131624247Y-54464640D01*
X131468363Y-54308756D01*
X131468358Y-54308752D01*
X131290025Y-54179187D01*
X131290024Y-54179186D01*
X131290022Y-54179185D01*
X131227096Y-54147122D01*
X131093606Y-54079104D01*
X131093603Y-54079103D01*
X130883952Y-54010985D01*
X130775086Y-53993742D01*
X130666222Y-53976500D01*
X130445778Y-53976500D01*
X130373201Y-53987995D01*
X130228047Y-54010985D01*
X130018396Y-54079103D01*
X130018393Y-54079104D01*
X129821974Y-54179187D01*
X129643641Y-54308752D01*
X129643636Y-54308756D01*
X129487752Y-54464640D01*
X129443620Y-54525385D01*
X129388291Y-54568051D01*
X129343302Y-54576500D01*
X118306698Y-54576500D01*
X118239659Y-54556815D01*
X118206380Y-54525385D01*
X118162247Y-54464640D01*
X118006363Y-54308756D01*
X118006358Y-54308752D01*
X117828025Y-54179187D01*
X117828024Y-54179186D01*
X117828022Y-54179185D01*
X117765096Y-54147122D01*
X117631606Y-54079104D01*
X117631603Y-54079103D01*
X117421952Y-54010985D01*
X117313086Y-53993742D01*
X117204222Y-53976500D01*
X116983778Y-53976500D01*
X116911201Y-53987995D01*
X116766047Y-54010985D01*
X116556396Y-54079103D01*
X116556393Y-54079104D01*
X116359974Y-54179187D01*
X116181641Y-54308752D01*
X116181636Y-54308756D01*
X116025752Y-54464640D01*
X115981620Y-54525385D01*
X115926291Y-54568051D01*
X115881302Y-54576500D01*
X104844698Y-54576500D01*
X104777659Y-54556815D01*
X104744380Y-54525385D01*
X104700247Y-54464640D01*
X104544363Y-54308756D01*
X104544358Y-54308752D01*
X104366025Y-54179187D01*
X104366024Y-54179186D01*
X104366022Y-54179185D01*
X104303096Y-54147122D01*
X104169606Y-54079104D01*
X104169603Y-54079103D01*
X103959952Y-54010985D01*
X103851086Y-53993742D01*
X103742222Y-53976500D01*
X103521778Y-53976500D01*
X103449201Y-53987995D01*
X103304047Y-54010985D01*
X103094396Y-54079103D01*
X103094393Y-54079104D01*
X102897974Y-54179187D01*
X102719641Y-54308752D01*
X102719636Y-54308756D01*
X102563752Y-54464640D01*
X102519620Y-54525385D01*
X102464291Y-54568051D01*
X102419302Y-54576500D01*
X91382698Y-54576500D01*
X91315659Y-54556815D01*
X91282380Y-54525385D01*
X91238247Y-54464640D01*
X91082363Y-54308756D01*
X91082358Y-54308752D01*
X90904025Y-54179187D01*
X90904024Y-54179186D01*
X90904022Y-54179185D01*
X90841096Y-54147122D01*
X90707606Y-54079104D01*
X90707603Y-54079103D01*
X90497952Y-54010985D01*
X90389086Y-53993742D01*
X90280222Y-53976500D01*
X90059778Y-53976500D01*
X89987201Y-53987995D01*
X89842047Y-54010985D01*
X89632396Y-54079103D01*
X89632393Y-54079104D01*
X89435974Y-54179187D01*
X89257641Y-54308752D01*
X89257636Y-54308756D01*
X89101752Y-54464640D01*
X89057620Y-54525385D01*
X89002291Y-54568051D01*
X88957302Y-54576500D01*
X77920698Y-54576500D01*
X77853659Y-54556815D01*
X77820380Y-54525385D01*
X77776247Y-54464640D01*
X77620363Y-54308756D01*
X77620358Y-54308752D01*
X77442025Y-54179187D01*
X77442024Y-54179186D01*
X77442022Y-54179185D01*
X77379096Y-54147122D01*
X77245606Y-54079104D01*
X77245603Y-54079103D01*
X77035952Y-54010985D01*
X76927086Y-53993742D01*
X76818222Y-53976500D01*
X76597778Y-53976500D01*
X76525201Y-53987995D01*
X76380047Y-54010985D01*
X76170396Y-54079103D01*
X76170393Y-54079104D01*
X75973974Y-54179187D01*
X75795641Y-54308752D01*
X75795636Y-54308756D01*
X75639752Y-54464640D01*
X75595620Y-54525385D01*
X75540291Y-54568051D01*
X75495302Y-54576500D01*
X71036155Y-54576500D01*
X70881510Y-54607261D01*
X70881498Y-54607264D01*
X70735827Y-54667602D01*
X70735814Y-54667609D01*
X70604711Y-54755210D01*
X70604707Y-54755213D01*
X69292022Y-56067898D01*
X69230699Y-56101383D01*
X69194619Y-56103835D01*
X69190359Y-56103500D01*
X69190352Y-56103500D01*
X68985648Y-56103500D01*
X68961329Y-56107351D01*
X68783465Y-56135522D01*
X68588776Y-56198781D01*
X68406386Y-56291715D01*
X68240786Y-56412028D01*
X68096028Y-56556786D01*
X67975715Y-56722386D01*
X67882781Y-56904776D01*
X67819522Y-57099465D01*
X67787500Y-57301648D01*
X67787500Y-57506359D01*
X67787835Y-57510619D01*
X67773467Y-57578996D01*
X67751898Y-57608022D01*
X64987741Y-60372181D01*
X64926418Y-60405666D01*
X64900060Y-60408500D01*
X64464351Y-60408500D01*
X64397312Y-60388815D01*
X64351557Y-60336011D01*
X64341061Y-60297752D01*
X64336091Y-60251516D01*
X64285797Y-60116671D01*
X64285793Y-60116664D01*
X64199547Y-60001455D01*
X64199544Y-60001452D01*
X64084335Y-59915206D01*
X64084328Y-59915202D01*
X63949482Y-59864908D01*
X63949483Y-59864908D01*
X63889883Y-59858501D01*
X63889881Y-59858500D01*
X63889873Y-59858500D01*
X63889864Y-59858500D01*
X62094129Y-59858500D01*
X62094123Y-59858501D01*
X62034516Y-59864908D01*
X61899671Y-59915202D01*
X61899664Y-59915206D01*
X61784455Y-60001452D01*
X61784452Y-60001455D01*
X61698206Y-60116664D01*
X61698202Y-60116671D01*
X61647908Y-60251517D01*
X61641501Y-60311116D01*
X61641500Y-60311135D01*
X60698500Y-60311135D01*
X60698500Y-53041828D01*
X78123510Y-53041828D01*
X79576368Y-53041828D01*
X79576368Y-51588971D01*
X78123510Y-51588971D01*
X78123510Y-53041828D01*
X60698500Y-53041828D01*
X60698500Y-52787750D01*
X60698726Y-52780263D01*
X60716271Y-52490205D01*
X60718076Y-52475340D01*
X60769780Y-52193201D01*
X60773364Y-52178663D01*
X60850096Y-51932422D01*
X60858696Y-51904822D01*
X60863998Y-51890841D01*
X60981731Y-51629249D01*
X60988676Y-51616016D01*
X61137080Y-51370526D01*
X61145567Y-51358230D01*
X61322480Y-51132417D01*
X61332395Y-51121226D01*
X61535226Y-50918395D01*
X61546417Y-50908480D01*
X61772230Y-50731567D01*
X61784526Y-50723080D01*
X62030016Y-50574676D01*
X62043249Y-50567731D01*
X62304841Y-50449998D01*
X62318822Y-50444696D01*
X62592668Y-50359362D01*
X62607197Y-50355780D01*
X62889344Y-50304075D01*
X62904201Y-50302271D01*
X63194264Y-50284726D01*
X63201751Y-50284500D01*
X63263892Y-50284500D01*
X182100108Y-50284500D01*
X182162249Y-50284500D01*
X182169736Y-50284726D01*
G37*
%TD.AperFunction*%
%TD*%
M02*
